{"glyphs":{"0":{"ha":883,"x_min":60,"x_max":822,"o":"m 442 -22 q 263 23 336 -22 q 144 142 189 68 q 80 306 100 217 q 60 482 60 394 q 84 660 60 569 q 157 826 108 750 q 278 948 206 901 q 447 994 350 994 q 620 949 549 994 q 736 828 692 903 q 801 665 781 754 q 822 489 822 576 q 799 313 822 403 q 729 147 776 222 q 610 24 682 71 q 442 -22 539 -22 m 450 76 q 531 107 499 76 q 580 191 563 138 q 604 314 597 244 q 611 460 611 383 q 605 623 611 544 q 581 763 599 701 q 531 861 564 825 q 444 897 499 897 q 361 867 394 897 q 308 782 328 836 q 279 658 288 728 q 271 511 271 589 q 274 392 271 453 q 288 274 278 331 q 318 174 299 218 q 370 103 338 129 q 450 76 403 76 z "},"1":{"ha":564,"x_min":8,"x_max":510,"o":"m 111 0 l 111 92 q 165 100 143 93 q 198 132 186 107 q 210 213 210 157 l 210 769 l 58 679 l 8 763 l 326 994 l 410 994 l 410 228 q 409 156 410 190 q 406 103 408 121 q 462 106 428 106 q 510 107 496 107 l 510 0 l 111 0 z "},"2":{"ha":740,"x_min":54,"x_max":674,"o":"m 54 0 q 73 129 54 72 q 123 232 92 186 q 192 317 154 278 q 271 393 231 356 q 415 564 372 488 q 457 715 457 640 q 446 801 457 760 q 406 870 435 843 q 324 896 376 897 q 256 878 286 896 q 211 838 226 861 q 233 801 226 822 q 239 765 239 781 q 229 728 239 750 q 199 692 219 707 q 144 676 179 676 q 78 708 101 679 q 56 778 56 738 q 75 847 56 810 q 133 917 94 883 q 228 973 172 951 q 358 994 285 994 q 469 981 414 994 q 569 936 524 967 q 642 856 615 906 q 669 732 669 806 q 657 659 669 697 q 611 576 644 621 q 518 472 578 531 q 364 336 458 414 q 251 222 288 274 q 208 143 215 171 l 481 136 q 535 141 513 135 q 572 167 558 147 q 585 226 585 188 l 674 226 l 663 0 l 54 0 z "},"3":{"ha":778,"x_min":49,"x_max":722,"o":"m 350 -22 q 179 9 246 -22 q 81 88 113 40 q 49 182 49 135 q 74 255 49 224 q 143 288 100 286 q 197 274 178 289 q 225 238 217 258 q 233 199 233 217 q 228 167 233 185 q 211 135 222 150 q 262 94 226 108 q 336 79 297 79 q 468 132 424 79 q 513 263 513 185 q 494 357 513 310 q 432 435 476 404 q 307 465 388 467 q 272 464 297 465 q 235 461 247 463 l 235 561 q 256 560 246 560 q 275 560 265 560 q 379 582 336 560 q 445 643 422 604 q 469 733 468 682 q 458 819 471 782 q 416 876 444 856 q 340 897 388 897 q 272 879 303 897 q 231 839 242 861 q 248 803 243 824 q 253 771 253 783 q 244 733 253 754 q 214 696 235 711 q 158 682 193 681 q 93 713 115 683 q 71 782 71 742 q 103 874 71 824 q 200 959 135 924 q 363 994 265 994 q 519 971 449 994 q 630 893 589 947 q 671 749 671 839 q 651 667 671 713 q 585 585 631 622 q 463 529 539 547 q 659 433 596 506 q 722 272 722 361 q 674 112 722 178 q 542 12 626 46 q 350 -22 458 -22 z "},"4":{"ha":760,"x_min":17,"x_max":714,"o":"m 578 228 q 576 156 578 190 q 572 103 575 121 q 629 106 596 106 q 676 107 663 107 l 676 0 l 281 0 l 281 92 l 289 92 q 344 99 321 92 q 380 131 367 106 q 393 213 393 157 l 393 251 l 17 251 l 17 382 l 493 994 l 578 994 l 578 376 l 714 376 l 714 251 l 578 251 l 578 228 m 392 703 l 146 381 l 393 379 l 394 703 l 392 703 z "},"5":{"ha":750,"x_min":61,"x_max":706,"o":"m 347 -22 q 193 7 257 -22 q 95 80 129 36 q 61 168 61 124 q 86 240 61 208 q 154 274 111 272 q 208 260 189 275 q 236 225 228 246 q 244 185 244 204 q 241 158 244 174 q 229 128 238 142 q 254 101 236 113 q 295 83 272 89 q 338 76 318 76 q 427 106 393 76 q 476 181 461 135 q 492 274 492 226 q 488 346 492 306 q 467 425 483 386 q 417 489 451 464 q 325 514 383 514 q 279 509 306 514 q 222 493 253 504 q 158 463 190 482 l 99 508 l 93 972 l 453 972 q 530 988 501 972 q 558 1063 558 1004 l 646 1063 l 636 838 l 200 829 l 200 582 q 279 606 232 596 q 368 615 326 615 q 518 590 454 615 q 624 522 582 565 q 685 422 665 478 q 706 303 706 365 q 653 123 706 196 q 519 14 601 50 q 347 -22 438 -22 z "},"6":{"ha":799,"x_min":64,"x_max":739,"o":"m 399 -22 q 201 35 275 -22 q 96 199 128 93 q 64 447 64 304 q 74 565 64 496 q 107 709 83 635 q 174 849 131 783 q 283 954 217 914 q 444 994 350 994 q 588 965 532 994 q 671 894 644 936 q 697 808 697 851 q 675 740 697 771 q 610 710 653 710 q 538 740 558 710 q 518 797 518 769 q 522 826 518 808 q 538 858 526 844 q 502 888 526 875 q 443 897 478 900 q 373 872 403 894 q 323 812 343 849 q 291 729 303 775 q 273 635 279 683 q 265 542 267 586 q 309 577 281 560 q 374 606 338 594 q 443 619 410 618 q 576 599 521 622 q 668 533 632 576 q 722 429 704 489 q 739 299 739 369 q 695 138 739 211 q 574 22 651 65 q 399 -22 497 -22 m 406 75 q 481 102 454 75 q 519 173 508 129 q 529 264 529 217 q 526 337 529 296 q 510 417 522 378 q 472 483 497 457 q 404 508 447 508 q 348 496 375 508 q 299 463 321 483 q 265 417 278 442 q 272 310 265 368 q 295 198 279 251 q 338 110 311 144 q 406 75 365 75 z "},"7":{"ha":651,"x_min":21,"x_max":622,"o":"m 278 -22 q 217 3 235 -22 q 200 58 200 28 q 213 129 200 86 q 247 224 226 172 q 290 328 268 276 q 344 456 314 383 q 415 621 375 528 q 506 832 456 714 l 214 835 q 138 815 167 836 q 108 736 108 793 l 21 736 l 31 972 l 622 972 l 622 846 q 541 660 575 750 q 480 479 507 569 q 428 292 453 389 q 376 83 404 194 q 342 10 367 44 q 278 -22 318 -24 z "},"8":{"ha":794,"x_min":78,"x_max":736,"o":"m 393 -22 q 288 -10 343 -22 q 185 31 233 3 q 108 105 138 58 q 78 219 78 151 q 105 321 78 272 q 174 410 132 369 q 261 478 215 451 q 131 604 169 535 q 93 729 93 674 q 122 847 93 797 q 197 930 150 897 q 299 978 244 963 q 408 994 354 994 q 546 967 481 994 q 653 888 611 940 q 694 758 694 835 q 669 668 694 711 q 606 590 644 625 q 529 531 568 556 q 646 440 600 488 q 714 342 692 393 q 736 239 736 292 q 688 91 736 149 q 562 6 640 33 q 393 -22 483 -22 m 394 75 q 499 113 461 74 q 538 210 538 153 q 499 319 538 263 q 357 426 460 375 q 276 328 301 383 q 247 233 250 274 q 286 122 244 168 q 394 75 328 76 m 439 588 q 513 667 483 621 q 544 753 543 714 q 510 860 547 822 q 419 897 472 897 q 349 880 379 897 q 303 833 319 863 q 288 768 288 804 q 333 663 288 714 q 439 588 378 613 z "},"9":{"ha":800,"x_min":60,"x_max":735,"o":"m 354 -22 q 207 4 263 -22 q 126 72 151 31 q 100 160 100 114 q 124 230 100 197 q 192 263 149 263 q 263 233 244 263 q 281 175 281 203 q 276 145 281 164 q 261 115 271 126 q 297 87 272 99 q 356 76 321 75 q 426 99 396 79 q 478 154 457 119 q 513 233 500 189 q 531 328 526 278 q 533 432 536 379 q 461 381 511 406 q 358 353 411 356 q 226 374 282 351 q 133 442 169 397 q 78 546 96 486 q 60 676 60 606 q 102 841 60 769 q 220 953 144 913 q 394 994 296 994 q 552 960 488 994 q 657 862 617 925 q 716 713 697 799 q 735 525 735 626 q 726 389 735 463 q 694 243 717 315 q 628 110 671 171 q 519 14 586 50 q 354 -22 451 -22 m 397 464 q 453 476 426 464 q 500 510 479 489 q 533 556 521 531 q 526 683 533 622 q 503 793 519 744 q 460 869 488 842 q 393 897 433 897 q 324 870 351 897 q 283 800 296 843 q 269 708 269 757 q 274 636 269 678 q 290 555 278 594 q 328 490 303 515 q 397 464 354 464 z "},"A":{"ha":928,"x_min":6,"x_max":922,"o":"m 6 0 l 6 96 q 68 118 44 96 q 108 176 92 140 q 139 254 124 213 l 410 997 l 507 997 l 803 240 q 825 177 811 219 q 842 103 839 135 q 887 106 865 106 q 922 107 908 107 l 922 0 l 549 0 l 549 92 q 602 108 588 92 q 615 151 617 124 q 600 214 614 179 l 572 290 l 271 285 l 249 219 q 228 166 242 201 q 204 107 215 131 q 258 110 226 110 q 303 111 289 111 l 303 0 l 6 0 m 306 389 l 538 389 l 474 563 q 442 663 456 613 q 421 753 428 714 l 419 753 q 403 682 414 729 q 368 569 392 635 l 306 389 z "},"Á":{"ha":928,"x_min":6,"x_max":922,"o":"m 6 0 l 6 96 q 68 118 44 96 q 108 176 92 140 q 139 254 124 213 l 410 997 l 507 997 l 803 240 q 825 177 811 219 q 842 103 839 135 q 887 106 865 106 q 922 107 908 107 l 922 0 l 549 0 l 549 92 q 602 108 588 92 q 615 151 617 124 q 600 214 614 179 l 572 290 l 271 285 l 249 219 q 228 166 242 201 q 204 107 215 131 q 258 110 226 110 q 303 111 289 111 l 303 0 l 6 0 m 306 389 l 538 389 l 474 563 q 442 663 456 613 q 421 753 428 714 l 419 753 q 403 682 414 729 q 368 569 392 635 l 306 389 m 401 1042 l 351 1110 l 506 1274 q 550 1301 525 1293 q 599 1305 575 1310 q 640 1276 624 1300 q 654 1228 657 1253 q 636 1181 651 1203 q 599 1146 621 1160 l 401 1042 z "},"Ă":{"ha":928,"x_min":6,"x_max":922,"o":"m 6 0 l 6 96 q 68 118 44 96 q 108 176 92 140 q 139 254 124 213 l 410 997 l 507 997 l 803 240 q 825 177 811 219 q 842 103 839 135 q 887 106 865 106 q 922 107 908 107 l 922 0 l 549 0 l 549 92 q 602 108 588 92 q 615 151 617 124 q 600 214 614 179 l 572 290 l 271 285 l 249 219 q 228 166 242 201 q 204 107 215 131 q 258 110 226 110 q 303 111 289 111 l 303 0 l 6 0 m 306 389 l 538 389 l 474 563 q 442 663 456 613 q 421 753 428 714 l 419 753 q 403 682 414 729 q 368 569 392 635 l 306 389 m 460 1086 q 369 1102 415 1086 q 283 1155 322 1118 q 222 1254 244 1192 l 281 1283 q 352 1231 310 1254 q 460 1207 394 1207 q 567 1231 525 1207 q 638 1283 608 1254 l 696 1254 q 635 1155 674 1192 q 550 1102 596 1118 q 460 1086 504 1086 z "},"Ắ":{"ha":928,"x_min":6,"x_max":922,"o":"m 6 0 l 6 96 q 68 118 44 96 q 108 176 92 140 q 139 254 124 213 l 410 997 l 507 997 l 803 240 q 825 177 811 219 q 842 103 839 135 q 887 106 865 106 q 922 107 908 107 l 922 0 l 549 0 l 549 92 q 602 108 588 92 q 615 151 617 124 q 600 214 614 179 l 572 290 l 271 285 l 249 219 q 228 166 242 201 q 204 107 215 131 q 258 110 226 110 q 303 111 289 111 l 303 0 l 6 0 m 306 389 l 538 389 l 474 563 q 442 663 456 613 q 421 753 428 714 l 419 753 q 403 682 414 729 q 368 569 392 635 l 306 389 m 456 1113 q 375 1130 417 1113 q 297 1187 333 1147 q 239 1293 261 1226 l 329 1339 q 382 1270 351 1300 q 461 1240 413 1240 q 539 1271 510 1240 q 588 1340 568 1301 l 678 1300 q 584 1156 642 1199 q 456 1113 526 1113 m 463 1326 l 399 1383 l 513 1578 q 549 1615 526 1601 q 596 1629 571 1629 q 643 1611 621 1629 q 668 1565 665 1592 q 660 1515 671 1539 q 631 1474 650 1490 l 463 1326 z "},"Ặ":{"ha":928,"x_min":6,"x_max":922,"o":"m 6 0 l 6 96 q 68 118 44 96 q 108 176 92 140 q 139 254 124 213 l 410 997 l 507 997 l 803 240 q 825 177 811 219 q 842 103 839 135 q 887 106 865 106 q 922 107 908 107 l 922 0 l 549 0 l 549 92 q 602 108 588 92 q 615 151 617 124 q 600 214 614 179 l 572 290 l 271 285 l 249 219 q 228 166 242 201 q 204 107 215 131 q 258 110 226 110 q 303 111 289 111 l 303 0 l 6 0 m 306 389 l 538 389 l 474 563 q 442 663 456 613 q 421 753 428 714 l 419 753 q 403 682 414 729 q 368 569 392 635 l 306 389 m 467 -265 q 404 -239 428 -265 q 381 -176 381 -212 q 406 -112 381 -139 q 465 -86 431 -86 q 524 -112 501 -86 q 547 -176 547 -139 q 525 -239 547 -212 q 467 -265 503 -265 m 460 1086 q 369 1102 415 1086 q 283 1155 322 1118 q 222 1254 244 1192 l 281 1283 q 352 1231 310 1254 q 460 1207 394 1207 q 567 1231 525 1207 q 638 1283 608 1254 l 696 1254 q 635 1155 674 1192 q 550 1102 596 1118 q 460 1086 504 1086 z "},"Ằ":{"ha":928,"x_min":6,"x_max":922,"o":"m 6 0 l 6 96 q 68 118 44 96 q 108 176 92 140 q 139 254 124 213 l 410 997 l 507 997 l 803 240 q 825 177 811 219 q 842 103 839 135 q 887 106 865 106 q 922 107 908 107 l 922 0 l 549 0 l 549 92 q 602 108 588 92 q 615 151 617 124 q 600 214 614 179 l 572 290 l 271 285 l 249 219 q 228 166 242 201 q 204 107 215 131 q 258 110 226 110 q 303 111 289 111 l 303 0 l 6 0 m 306 389 l 538 389 l 474 563 q 442 663 456 613 q 421 753 428 714 l 419 753 q 403 682 414 729 q 368 569 392 635 l 306 389 m 454 1113 q 374 1130 415 1113 q 296 1187 332 1147 q 238 1293 260 1226 l 328 1339 q 381 1270 350 1300 q 460 1240 411 1240 q 538 1271 508 1240 q 586 1340 567 1301 l 676 1300 q 583 1156 640 1199 q 454 1113 525 1113 m 458 1331 l 290 1478 q 260 1519 271 1494 q 253 1569 250 1543 q 279 1615 257 1596 q 326 1633 301 1633 q 372 1619 350 1633 q 408 1582 394 1606 l 522 1388 l 458 1331 z "},"Ẳ":{"ha":928,"x_min":6,"x_max":922,"o":"m 6 0 l 6 96 q 68 118 44 96 q 108 176 92 140 q 139 254 124 213 l 410 997 l 507 997 l 803 240 q 825 177 811 219 q 842 103 839 135 q 887 106 865 106 q 922 107 908 107 l 922 0 l 549 0 l 549 92 q 602 108 588 92 q 615 151 617 124 q 600 214 614 179 l 572 290 l 271 285 l 249 219 q 228 166 242 201 q 204 107 215 131 q 258 110 226 110 q 303 111 289 111 l 303 0 l 6 0 m 306 389 l 538 389 l 474 563 q 442 663 456 613 q 421 753 428 714 l 419 753 q 403 682 414 729 q 368 569 392 635 l 306 389 m 454 1111 q 374 1128 415 1111 q 296 1185 332 1146 q 238 1292 260 1225 l 328 1338 q 381 1269 350 1299 q 460 1239 411 1239 q 538 1269 508 1239 q 586 1339 567 1300 l 676 1299 q 583 1154 640 1197 q 454 1111 525 1111 m 421 1361 q 440 1406 421 1390 q 475 1440 458 1422 q 492 1464 485 1451 q 499 1494 499 1476 q 478 1538 499 1524 q 429 1553 458 1553 q 373 1539 390 1553 q 353 1515 356 1525 q 384 1504 374 1515 q 394 1478 394 1493 q 382 1449 394 1463 q 346 1435 369 1435 q 294 1456 314 1435 q 274 1506 274 1476 q 292 1567 274 1538 q 345 1617 310 1597 q 429 1636 381 1636 q 557 1601 511 1636 q 603 1507 603 1567 q 583 1451 603 1469 q 544 1415 564 1432 q 517 1388 528 1401 q 507 1361 507 1374 l 421 1361 z "},"Ẵ":{"ha":928,"x_min":6,"x_max":922,"o":"m 6 0 l 6 96 q 68 118 44 96 q 108 176 92 140 q 139 254 124 213 l 410 997 l 507 997 l 803 240 q 825 177 811 219 q 842 103 839 135 q 887 106 865 106 q 922 107 908 107 l 922 0 l 549 0 l 549 92 q 602 108 588 92 q 615 151 617 124 q 600 214 614 179 l 572 290 l 271 285 l 249 219 q 228 166 242 201 q 204 107 215 131 q 258 110 226 110 q 303 111 289 111 l 303 0 l 6 0 m 306 389 l 538 389 l 474 563 q 442 663 456 613 q 421 753 428 714 l 419 753 q 403 682 414 729 q 368 569 392 635 l 306 389 m 454 1113 q 374 1130 415 1113 q 296 1187 332 1147 q 238 1293 260 1226 l 328 1339 q 381 1270 350 1300 q 460 1240 411 1240 q 538 1271 508 1240 q 586 1340 567 1301 l 676 1300 q 583 1156 640 1199 q 454 1113 525 1113 m 725 1529 q 649 1405 696 1443 q 560 1367 601 1367 q 495 1381 522 1367 q 444 1408 468 1394 q 392 1421 419 1421 q 351 1409 375 1421 q 306 1364 326 1397 l 228 1410 q 297 1513 251 1474 q 390 1553 343 1553 q 458 1540 433 1553 q 505 1513 483 1526 q 560 1500 526 1500 q 606 1519 583 1500 q 646 1569 628 1538 l 725 1529 z "},"Ǎ":{"ha":928,"x_min":6,"x_max":922,"o":"m 6 0 l 6 96 q 68 118 44 96 q 108 176 92 140 q 139 254 124 213 l 410 997 l 507 997 l 803 240 q 825 177 811 219 q 842 103 839 135 q 887 106 865 106 q 922 107 908 107 l 922 0 l 549 0 l 549 92 q 602 108 588 92 q 615 151 617 124 q 600 214 614 179 l 572 290 l 271 285 l 249 219 q 228 166 242 201 q 204 107 215 131 q 258 110 226 110 q 303 111 289 111 l 303 0 l 6 0 m 306 389 l 538 389 l 474 563 q 442 663 456 613 q 421 753 428 714 l 419 753 q 403 682 414 729 q 368 569 392 635 l 306 389 m 438 1063 l 167 1271 l 210 1335 l 457 1214 l 711 1338 l 747 1275 l 464 1063 l 438 1063 z "},"Â":{"ha":928,"x_min":6,"x_max":922,"o":"m 6 0 l 6 96 q 68 118 44 96 q 108 176 92 140 q 139 254 124 213 l 410 997 l 507 997 l 803 240 q 825 177 811 219 q 842 103 839 135 q 887 106 865 106 q 922 107 908 107 l 922 0 l 549 0 l 549 92 q 602 108 588 92 q 615 151 617 124 q 600 214 614 179 l 572 290 l 271 285 l 249 219 q 228 166 242 201 q 204 107 215 131 q 258 110 226 110 q 303 111 289 111 l 303 0 l 6 0 m 306 389 l 538 389 l 474 563 q 442 663 456 613 q 421 753 428 714 l 419 753 q 403 682 414 729 q 368 569 392 635 l 306 389 m 651 1075 l 458 1196 l 260 1078 l 222 1140 l 451 1349 l 478 1349 l 696 1140 l 651 1075 z "},"Ấ":{"ha":928,"x_min":6,"x_max":922,"o":"m 6 0 l 6 96 q 68 118 44 96 q 108 176 92 140 q 139 254 124 213 l 410 997 l 507 997 l 803 240 q 825 177 811 219 q 842 103 839 135 q 887 106 865 106 q 922 107 908 107 l 922 0 l 549 0 l 549 92 q 602 108 588 92 q 615 151 617 124 q 600 214 614 179 l 572 290 l 271 285 l 249 219 q 228 166 242 201 q 204 107 215 131 q 258 110 226 110 q 303 111 289 111 l 303 0 l 6 0 m 306 389 l 538 389 l 474 563 q 442 663 456 613 q 421 753 428 714 l 419 753 q 403 682 414 729 q 368 569 392 635 l 306 389 m 618 1058 l 458 1158 l 294 1060 l 263 1111 l 453 1283 l 474 1283 l 654 1111 l 618 1058 m 700 1181 l 636 1238 l 750 1432 q 786 1469 764 1456 q 833 1483 808 1483 q 881 1465 858 1483 q 906 1419 903 1446 q 898 1369 908 1393 q 868 1328 888 1344 l 700 1181 z "},"Ậ":{"ha":928,"x_min":6,"x_max":922,"o":"m 6 0 l 6 96 q 68 118 44 96 q 108 176 92 140 q 139 254 124 213 l 410 997 l 507 997 l 803 240 q 825 177 811 219 q 842 103 839 135 q 887 106 865 106 q 922 107 908 107 l 922 0 l 549 0 l 549 92 q 602 108 588 92 q 615 151 617 124 q 600 214 614 179 l 572 290 l 271 285 l 249 219 q 228 166 242 201 q 204 107 215 131 q 258 110 226 110 q 303 111 289 111 l 303 0 l 6 0 m 306 389 l 538 389 l 474 563 q 442 663 456 613 q 421 753 428 714 l 419 753 q 403 682 414 729 q 368 569 392 635 l 306 389 m 467 -265 q 404 -239 428 -265 q 381 -176 381 -212 q 406 -112 381 -139 q 465 -86 431 -86 q 524 -112 501 -86 q 547 -176 547 -139 q 525 -239 547 -212 q 467 -265 503 -265 m 651 1075 l 458 1196 l 260 1078 l 222 1140 l 451 1349 l 478 1349 l 696 1140 l 651 1075 z "},"Ầ":{"ha":928,"x_min":6,"x_max":922,"o":"m 6 0 l 6 96 q 68 118 44 96 q 108 176 92 140 q 139 254 124 213 l 410 997 l 507 997 l 803 240 q 825 177 811 219 q 842 103 839 135 q 887 106 865 106 q 922 107 908 107 l 922 0 l 549 0 l 549 92 q 602 108 588 92 q 615 151 617 124 q 600 214 614 179 l 572 290 l 271 285 l 249 219 q 228 166 242 201 q 204 107 215 131 q 258 110 226 110 q 303 111 289 111 l 303 0 l 6 0 m 306 389 l 538 389 l 474 563 q 442 663 456 613 q 421 753 428 714 l 419 753 q 403 682 414 729 q 368 569 392 635 l 306 389 m 618 1058 l 458 1158 l 294 1060 l 263 1111 l 453 1283 l 474 1283 l 654 1111 l 618 1058 m 669 1240 l 501 1388 q 472 1428 482 1404 q 465 1479 461 1453 q 490 1525 468 1506 q 537 1543 513 1543 q 583 1529 561 1543 q 619 1492 606 1515 l 733 1297 l 669 1240 z "},"Ẩ":{"ha":928,"x_min":6,"x_max":922,"o":"m 6 0 l 6 96 q 68 118 44 96 q 108 176 92 140 q 139 254 124 213 l 410 997 l 507 997 l 803 240 q 825 177 811 219 q 842 103 839 135 q 887 106 865 106 q 922 107 908 107 l 922 0 l 549 0 l 549 92 q 602 108 588 92 q 615 151 617 124 q 600 214 614 179 l 572 290 l 271 285 l 249 219 q 228 166 242 201 q 204 107 215 131 q 258 110 226 110 q 303 111 289 111 l 303 0 l 6 0 m 306 389 l 538 389 l 474 563 q 442 663 456 613 q 421 753 428 714 l 419 753 q 403 682 414 729 q 368 569 392 635 l 306 389 m 618 1058 l 458 1158 l 294 1060 l 263 1111 l 453 1283 l 474 1283 l 654 1111 l 618 1058 m 629 1249 q 648 1294 629 1278 q 683 1328 667 1310 q 700 1351 693 1339 q 707 1382 707 1364 q 687 1426 707 1411 q 638 1440 667 1440 q 581 1426 599 1440 q 561 1403 564 1413 q 592 1392 582 1403 q 603 1365 603 1381 q 590 1336 603 1350 q 554 1322 578 1322 q 502 1343 522 1322 q 482 1393 482 1364 q 500 1455 482 1425 q 553 1504 518 1485 q 638 1524 589 1524 q 765 1489 719 1524 q 811 1394 811 1454 q 792 1338 811 1357 q 753 1303 772 1319 q 726 1275 736 1289 q 715 1249 715 1261 l 629 1249 z "},"Ẫ":{"ha":928,"x_min":6,"x_max":922,"o":"m 6 0 l 6 96 q 68 118 44 96 q 108 176 92 140 q 139 254 124 213 l 410 997 l 507 997 l 803 240 q 825 177 811 219 q 842 103 839 135 q 887 106 865 106 q 922 107 908 107 l 922 0 l 549 0 l 549 92 q 602 108 588 92 q 615 151 617 124 q 600 214 614 179 l 572 290 l 271 285 l 249 219 q 228 166 242 201 q 204 107 215 131 q 258 110 226 110 q 303 111 289 111 l 303 0 l 6 0 m 306 389 l 538 389 l 474 563 q 442 663 456 613 q 421 753 428 714 l 419 753 q 403 682 414 729 q 368 569 392 635 l 306 389 m 618 1058 l 458 1158 l 294 1060 l 263 1111 l 453 1283 l 474 1283 l 654 1111 l 618 1058 m 732 1489 q 656 1365 703 1403 q 567 1326 608 1326 q 502 1340 529 1326 q 451 1367 475 1354 q 399 1381 426 1381 q 358 1369 382 1381 q 313 1324 333 1357 l 235 1369 q 304 1473 258 1433 q 397 1513 350 1513 q 465 1499 440 1513 q 512 1473 490 1486 q 567 1460 533 1460 q 613 1478 590 1460 q 653 1529 635 1497 l 732 1489 z "},"Ä":{"ha":928,"x_min":6,"x_max":922,"o":"m 6 0 l 6 96 q 68 118 44 96 q 108 176 92 140 q 139 254 124 213 l 410 997 l 507 997 l 803 240 q 825 177 811 219 q 842 103 839 135 q 887 106 865 106 q 922 107 908 107 l 922 0 l 549 0 l 549 92 q 602 108 588 92 q 615 151 617 124 q 600 214 614 179 l 572 290 l 271 285 l 249 219 q 228 166 242 201 q 204 107 215 131 q 258 110 226 110 q 303 111 289 111 l 303 0 l 6 0 m 306 389 l 538 389 l 474 563 q 442 663 456 613 q 421 753 428 714 l 419 753 q 403 682 414 729 q 368 569 392 635 l 306 389 m 336 1107 q 271 1138 299 1107 q 243 1211 243 1168 q 272 1287 243 1256 q 338 1318 300 1318 q 403 1287 376 1318 q 429 1211 429 1256 q 401 1138 429 1168 q 336 1107 374 1107 m 578 1107 q 514 1138 542 1107 q 486 1211 486 1168 q 515 1287 486 1256 q 579 1318 543 1318 q 645 1287 619 1318 q 671 1211 671 1256 q 643 1138 671 1168 q 578 1107 615 1107 z "},"Ạ":{"ha":928,"x_min":6,"x_max":922,"o":"m 6 0 l 6 96 q 68 118 44 96 q 108 176 92 140 q 139 254 124 213 l 410 997 l 507 997 l 803 240 q 825 177 811 219 q 842 103 839 135 q 887 106 865 106 q 922 107 908 107 l 922 0 l 549 0 l 549 92 q 602 108 588 92 q 615 151 617 124 q 600 214 614 179 l 572 290 l 271 285 l 249 219 q 228 166 242 201 q 204 107 215 131 q 258 110 226 110 q 303 111 289 111 l 303 0 l 6 0 m 306 389 l 538 389 l 474 563 q 442 663 456 613 q 421 753 428 714 l 419 753 q 403 682 414 729 q 368 569 392 635 l 306 389 m 467 -265 q 404 -239 428 -265 q 381 -176 381 -212 q 406 -112 381 -139 q 465 -86 431 -86 q 524 -112 501 -86 q 547 -176 547 -139 q 525 -239 547 -212 q 467 -265 503 -265 z "},"À":{"ha":928,"x_min":6,"x_max":922,"o":"m 6 0 l 6 96 q 68 118 44 96 q 108 176 92 140 q 139 254 124 213 l 410 997 l 507 997 l 803 240 q 825 177 811 219 q 842 103 839 135 q 887 106 865 106 q 922 107 908 107 l 922 0 l 549 0 l 549 92 q 602 108 588 92 q 615 151 617 124 q 600 214 614 179 l 572 290 l 271 285 l 249 219 q 228 166 242 201 q 204 107 215 131 q 258 110 226 110 q 303 111 289 111 l 303 0 l 6 0 m 306 389 l 538 389 l 474 563 q 442 663 456 613 q 421 753 428 714 l 419 753 q 403 682 414 729 q 368 569 392 635 l 306 389 m 489 1042 l 292 1146 q 256 1181 271 1160 q 238 1228 240 1203 q 250 1276 235 1253 q 292 1305 268 1300 q 340 1301 315 1310 q 385 1274 365 1293 l 539 1110 l 489 1042 z "},"Ả":{"ha":928,"x_min":6,"x_max":922,"o":"m 6 0 l 6 96 q 68 118 44 96 q 108 176 92 140 q 139 254 124 213 l 410 997 l 507 997 l 803 240 q 825 177 811 219 q 842 103 839 135 q 887 106 865 106 q 922 107 908 107 l 922 0 l 549 0 l 549 92 q 602 108 588 92 q 615 151 617 124 q 600 214 614 179 l 572 290 l 271 285 l 249 219 q 228 166 242 201 q 204 107 215 131 q 258 110 226 110 q 303 111 289 111 l 303 0 l 6 0 m 306 389 l 538 389 l 474 563 q 442 663 456 613 q 421 753 428 714 l 419 753 q 403 682 414 729 q 368 569 392 635 l 306 389 m 429 1054 q 447 1099 429 1083 q 483 1133 465 1115 q 500 1157 493 1144 q 507 1188 507 1169 q 487 1231 507 1217 q 438 1246 467 1246 q 381 1232 399 1246 q 361 1208 364 1218 q 392 1197 382 1208 q 403 1171 403 1186 q 390 1142 403 1156 q 354 1128 378 1128 q 302 1149 322 1128 q 282 1199 282 1169 q 300 1260 282 1231 q 353 1310 318 1290 q 438 1329 389 1329 q 565 1294 519 1329 q 611 1200 611 1260 q 593 1142 611 1163 q 553 1108 575 1122 q 526 1081 536 1094 q 515 1054 515 1067 l 429 1054 z "},"Ā":{"ha":928,"x_min":6,"x_max":922,"o":"m 6 0 l 6 96 q 68 118 44 96 q 108 176 92 140 q 139 254 124 213 l 410 997 l 507 997 l 803 240 q 825 177 811 219 q 842 103 839 135 q 887 106 865 106 q 922 107 908 107 l 922 0 l 549 0 l 549 92 q 602 108 588 92 q 615 151 617 124 q 600 214 614 179 l 572 290 l 271 285 l 249 219 q 228 166 242 201 q 204 107 215 131 q 258 110 226 110 q 303 111 289 111 l 303 0 l 6 0 m 306 389 l 538 389 l 474 563 q 442 663 456 613 q 421 753 428 714 l 419 753 q 403 682 414 729 q 368 569 392 635 l 306 389 m 260 1149 l 260 1282 l 654 1282 l 654 1154 l 260 1149 z "},"Ą":{"ha":928,"x_min":6,"x_max":922,"o":"m 6 0 l 6 96 q 68 118 44 96 q 108 176 92 140 q 139 254 124 213 l 410 997 l 507 997 l 803 240 q 825 177 811 219 q 842 103 839 135 q 887 106 865 106 q 922 107 908 107 l 922 0 l 549 0 l 549 92 q 602 108 588 92 q 615 151 617 124 q 600 214 614 179 l 572 290 l 271 285 l 249 219 q 228 166 242 201 q 204 107 215 131 q 258 110 226 110 q 303 111 289 111 l 303 0 l 6 0 m 306 389 l 538 389 l 474 563 q 442 663 456 613 q 421 753 428 714 l 419 753 q 403 682 414 729 q 368 569 392 635 l 306 389 m 669 -368 q 561 -332 603 -368 q 519 -225 519 -296 q 565 -103 519 -160 q 682 -3 610 -46 q 833 64 754 40 l 833 0 q 749 -47 790 -18 q 681 -111 707 -75 q 657 -186 656 -147 q 674 -226 658 -211 q 718 -242 690 -242 q 760 -231 738 -242 q 804 -201 782 -221 l 853 -261 q 768 -338 817 -308 q 669 -368 719 -368 z "},"Å":{"ha":928,"x_min":6,"x_max":922,"o":"m 6 0 l 6 96 q 68 118 44 96 q 108 176 92 140 q 139 254 124 213 l 410 997 l 507 997 l 803 240 q 825 177 811 219 q 842 103 839 135 q 887 106 865 106 q 922 107 908 107 l 922 0 l 549 0 l 549 92 q 602 108 588 92 q 615 151 617 124 q 600 214 614 179 l 572 290 l 271 285 l 249 219 q 228 166 242 201 q 204 107 215 131 q 258 110 226 110 q 303 111 289 111 l 303 0 l 6 0 m 306 389 l 538 389 l 474 563 q 442 663 456 613 q 421 753 428 714 l 419 753 q 403 682 414 729 q 368 569 392 635 l 306 389 m 458 1043 q 372 1061 414 1043 q 303 1116 331 1079 q 272 1211 275 1153 q 298 1308 271 1267 q 368 1374 325 1350 q 457 1397 411 1397 q 542 1379 500 1397 q 612 1324 583 1361 q 643 1229 640 1288 q 617 1129 644 1171 q 546 1065 589 1088 q 458 1043 503 1043 m 467 1118 q 505 1140 490 1119 q 519 1204 519 1161 q 501 1296 519 1265 q 451 1324 482 1326 q 411 1297 426 1322 q 396 1229 396 1272 q 416 1145 396 1174 q 467 1118 436 1117 z "},"Ã":{"ha":928,"x_min":6,"x_max":922,"o":"m 6 0 l 6 96 q 68 118 44 96 q 108 176 92 140 q 139 254 124 213 l 410 997 l 507 997 l 803 240 q 825 177 811 219 q 842 103 839 135 q 887 106 865 106 q 922 107 908 107 l 922 0 l 549 0 l 549 92 q 602 108 588 92 q 615 151 617 124 q 600 214 614 179 l 572 290 l 271 285 l 249 219 q 228 166 242 201 q 204 107 215 131 q 258 110 226 110 q 303 111 289 111 l 303 0 l 6 0 m 306 389 l 538 389 l 474 563 q 442 663 456 613 q 421 753 428 714 l 419 753 q 403 682 414 729 q 368 569 392 635 l 306 389 m 749 1281 q 692 1172 724 1210 q 626 1119 660 1133 q 564 1106 593 1106 q 506 1116 532 1106 q 458 1140 481 1126 q 411 1165 435 1154 q 358 1175 388 1175 q 301 1160 332 1175 q 242 1103 269 1144 l 164 1154 q 249 1267 196 1232 q 353 1303 303 1303 q 414 1292 388 1303 q 463 1269 440 1282 q 508 1245 485 1256 q 557 1235 531 1235 q 617 1260 585 1235 q 669 1325 650 1286 l 749 1281 z "},"Æ":{"ha":1299,"x_min":-8,"x_max":1243,"o":"m -8 0 l -8 92 q 53 115 25 92 q 108 172 82 138 q 157 238 135 206 l 606 869 l 501 865 l 501 972 l 1196 972 l 1204 703 l 1113 703 q 1086 818 1113 779 q 1021 870 1060 857 q 944 882 982 883 l 894 881 q 844 873 865 881 q 813 840 824 865 q 801 760 801 814 l 801 551 l 964 551 l 958 672 l 1065 672 l 1065 335 l 974 335 q 956 419 974 393 q 906 451 938 444 q 838 457 875 458 l 801 456 l 801 228 q 800 157 801 190 q 796 106 799 124 l 982 106 q 1063 124 1024 106 q 1126 187 1101 143 q 1151 306 1151 231 l 1243 306 l 1235 0 l 501 0 l 501 92 q 555 100 533 93 q 588 132 576 107 q 600 213 600 157 l 600 288 l 328 281 l 279 210 q 235 149 257 178 q 192 104 214 121 l 303 107 l 303 0 l -8 0 m 396 383 l 600 383 l 600 694 l 396 383 z "},"B":{"ha":918,"x_min":69,"x_max":879,"o":"m 69 0 l 69 92 q 123 100 101 93 q 156 132 144 107 q 168 213 168 157 l 168 744 q 170 817 168 782 q 174 869 172 851 q 118 867 151 868 q 69 865 85 867 l 69 972 q 262 974 165 974 q 454 975 358 974 q 719 913 621 976 q 810 722 817 850 q 785 644 807 682 q 719 575 763 606 q 610 526 675 544 l 610 525 q 814 433 749 503 q 879 276 879 363 q 835 124 879 186 q 715 31 792 63 q 542 0 639 0 l 69 0 m 364 99 q 411 99 389 99 q 456 99 433 99 q 499 100 478 100 q 622 154 583 104 q 661 281 661 204 q 635 381 661 344 q 567 433 608 418 q 482 449 526 449 q 422 449 447 449 q 369 447 397 449 l 369 221 q 368 150 369 183 q 364 99 367 117 m 369 546 l 442 547 q 534 574 500 549 q 583 641 568 599 q 597 733 597 683 q 575 820 597 789 q 519 865 553 851 q 450 878 486 879 q 410 871 428 878 q 381 840 392 864 q 369 761 369 815 l 369 546 z "},"C":{"ha":956,"x_min":49,"x_max":943,"o":"m 786 661 q 709 835 768 776 q 553 894 650 893 q 426 861 481 894 q 337 772 372 828 q 284 646 301 717 q 267 500 267 575 q 301 288 267 381 q 400 143 335 196 q 558 90 465 90 q 732 135 646 90 q 876 261 818 181 l 943 200 q 800 59 875 107 q 653 -6 725 11 q 525 -22 582 -22 q 331 16 418 -22 q 180 122 243 54 q 83 278 117 189 q 49 472 49 368 q 79 660 49 567 q 170 828 110 753 q 322 949 231 904 q 535 994 414 994 q 653 977 589 994 q 775 926 718 960 l 769 985 l 876 985 l 876 661 l 786 661 z "},"Ć":{"ha":956,"x_min":49,"x_max":943,"o":"m 786 661 q 709 835 768 776 q 553 894 650 893 q 426 861 481 894 q 337 772 372 828 q 284 646 301 717 q 267 500 267 575 q 301 288 267 381 q 400 143 335 196 q 558 90 465 90 q 732 135 646 90 q 876 261 818 181 l 943 200 q 800 59 875 107 q 653 -6 725 11 q 525 -22 582 -22 q 331 16 418 -22 q 180 122 243 54 q 83 278 117 189 q 49 472 49 368 q 79 660 49 567 q 170 828 110 753 q 322 949 231 904 q 535 994 414 994 q 653 977 589 994 q 775 926 718 960 l 769 985 l 876 985 l 876 661 l 786 661 m 504 1042 l 454 1110 l 608 1274 q 653 1301 628 1293 q 702 1305 678 1310 q 743 1276 726 1300 q 757 1228 760 1253 q 739 1181 754 1203 q 701 1146 724 1160 l 504 1042 z "},"Č":{"ha":956,"x_min":49,"x_max":943,"o":"m 786 661 q 709 835 768 776 q 553 894 650 893 q 426 861 481 894 q 337 772 372 828 q 284 646 301 717 q 267 500 267 575 q 301 288 267 381 q 400 143 335 196 q 558 90 465 90 q 732 135 646 90 q 876 261 818 181 l 943 200 q 800 59 875 107 q 653 -6 725 11 q 525 -22 582 -22 q 331 16 418 -22 q 180 122 243 54 q 83 278 117 189 q 49 472 49 368 q 79 660 49 567 q 170 828 110 753 q 322 949 231 904 q 535 994 414 994 q 653 977 589 994 q 775 926 718 960 l 769 985 l 876 985 l 876 661 l 786 661 m 540 1063 l 269 1271 l 313 1335 l 560 1214 l 814 1338 l 850 1275 l 567 1063 l 540 1063 z "},"Ç":{"ha":956,"x_min":49,"x_max":943,"o":"m 786 661 q 709 835 768 776 q 553 894 650 893 q 426 861 481 894 q 337 772 372 828 q 284 646 301 717 q 267 500 267 575 q 301 288 267 381 q 400 143 335 196 q 558 90 465 90 q 732 135 646 90 q 876 261 818 181 l 943 200 q 800 59 875 107 q 653 -6 725 11 q 525 -22 582 -22 q 331 16 418 -22 q 180 122 243 54 q 83 278 117 189 q 49 472 49 368 q 79 660 49 567 q 170 828 110 753 q 322 949 231 904 q 535 994 414 994 q 653 977 589 994 q 775 926 718 960 l 769 985 l 876 985 l 876 661 l 786 661 m 410 -382 l 399 -306 q 443 -294 415 -303 q 499 -273 471 -286 q 546 -242 526 -260 q 565 -203 565 -224 q 547 -171 565 -176 q 507 -172 529 -165 q 471 -189 485 -178 l 414 -168 l 456 14 l 568 14 l 529 -93 q 576 -78 546 -85 q 624 -72 606 -71 q 699 -99 668 -74 q 729 -174 729 -125 q 695 -259 729 -222 q 610 -321 661 -296 q 504 -361 558 -346 q 410 -382 450 -376 z "},"Ĉ":{"ha":956,"x_min":49,"x_max":943,"o":"m 786 661 q 709 835 768 776 q 553 894 650 893 q 426 861 481 894 q 337 772 372 828 q 284 646 301 717 q 267 500 267 575 q 301 288 267 381 q 400 143 335 196 q 558 90 465 90 q 732 135 646 90 q 876 261 818 181 l 943 200 q 800 59 875 107 q 653 -6 725 11 q 525 -22 582 -22 q 331 16 418 -22 q 180 122 243 54 q 83 278 117 189 q 49 472 49 368 q 79 660 49 567 q 170 828 110 753 q 322 949 231 904 q 535 994 414 994 q 653 977 589 994 q 775 926 718 960 l 769 985 l 876 985 l 876 661 l 786 661 m 754 1075 l 561 1196 l 363 1078 l 325 1140 l 554 1349 l 581 1349 l 799 1140 l 754 1075 z "},"Ċ":{"ha":956,"x_min":49,"x_max":943,"o":"m 786 661 q 709 835 768 776 q 553 894 650 893 q 426 861 481 894 q 337 772 372 828 q 284 646 301 717 q 267 500 267 575 q 301 288 267 381 q 400 143 335 196 q 558 90 465 90 q 732 135 646 90 q 876 261 818 181 l 943 200 q 800 59 875 107 q 653 -6 725 11 q 525 -22 582 -22 q 331 16 418 -22 q 180 122 243 54 q 83 278 117 189 q 49 472 49 368 q 79 660 49 567 q 170 828 110 753 q 322 949 231 904 q 535 994 414 994 q 653 977 589 994 q 775 926 718 960 l 769 985 l 876 985 l 876 661 l 786 661 m 563 1096 q 485 1129 515 1096 q 454 1210 454 1163 q 486 1290 454 1257 q 561 1324 518 1324 q 635 1290 606 1324 q 665 1210 665 1257 q 638 1129 665 1163 q 563 1096 610 1096 z "},"D":{"ha":1054,"x_min":69,"x_max":1006,"o":"m 69 92 q 123 100 101 93 q 156 132 144 107 q 168 213 168 157 l 168 744 q 170 817 168 782 q 174 869 172 851 q 118 867 151 868 q 69 865 85 867 l 69 972 l 474 974 q 712 933 611 974 q 877 822 813 892 q 974 667 942 753 q 1006 496 1006 582 q 976 324 1006 411 q 882 163 946 236 q 715 45 818 90 q 467 0 613 0 l 69 0 l 69 92 m 369 228 q 368 156 369 190 q 364 103 367 121 q 402 103 378 104 q 453 102 426 103 q 496 101 479 101 q 627 132 572 101 q 717 215 682 163 q 769 332 753 267 q 786 467 786 397 q 747 699 786 608 q 638 833 708 789 q 471 881 568 878 q 415 874 438 882 q 381 842 392 867 q 369 763 369 817 l 369 228 z "},"Ð":{"ha":1053,"x_min":42,"x_max":1006,"o":"m 42 433 l 42 543 l 585 543 l 585 439 l 42 433 m 69 92 q 123 100 101 93 q 156 132 144 107 q 168 213 168 157 l 168 744 q 170 817 168 782 q 174 869 172 851 q 118 867 151 868 q 69 865 85 867 l 69 972 l 474 974 q 712 933 611 974 q 877 822 813 892 q 974 667 942 753 q 1006 496 1006 582 q 976 324 1006 411 q 882 163 946 236 q 715 45 818 90 q 467 0 613 0 l 69 0 l 69 92 m 369 228 q 368 156 369 190 q 364 103 367 121 q 402 103 378 104 q 453 102 426 103 q 496 101 479 101 q 627 132 572 101 q 717 215 682 163 q 769 332 753 267 q 786 467 786 397 q 747 699 786 608 q 638 833 708 789 q 471 881 568 878 q 415 874 438 882 q 381 842 392 867 q 369 763 369 817 l 369 228 z "},"Ď":{"ha":1054,"x_min":69,"x_max":1006,"o":"m 69 92 q 123 100 101 93 q 156 132 144 107 q 168 213 168 157 l 168 744 q 170 817 168 782 q 174 869 172 851 q 118 867 151 868 q 69 865 85 867 l 69 972 l 474 974 q 712 933 611 974 q 877 822 813 892 q 974 667 942 753 q 1006 496 1006 582 q 976 324 1006 411 q 882 163 946 236 q 715 45 818 90 q 467 0 613 0 l 69 0 l 69 92 m 369 228 q 368 156 369 190 q 364 103 367 121 q 402 103 378 104 q 453 102 426 103 q 496 101 479 101 q 627 132 572 101 q 717 215 682 163 q 769 332 753 267 q 786 467 786 397 q 747 699 786 608 q 638 833 708 789 q 471 881 568 878 q 415 874 438 882 q 381 842 392 867 q 369 763 369 817 l 369 228 m 481 1063 l 210 1271 l 253 1335 l 500 1214 l 754 1338 l 790 1275 l 507 1063 l 481 1063 z "},"Đ":{"ha":1053,"x_min":42,"x_max":1006,"o":"m 42 433 l 42 543 l 585 543 l 585 439 l 42 433 m 69 92 q 123 100 101 93 q 156 132 144 107 q 168 213 168 157 l 168 744 q 170 817 168 782 q 174 869 172 851 q 118 867 151 868 q 69 865 85 867 l 69 972 l 474 974 q 712 933 611 974 q 877 822 813 892 q 974 667 942 753 q 1006 496 1006 582 q 976 324 1006 411 q 882 163 946 236 q 715 45 818 90 q 467 0 613 0 l 69 0 l 69 92 m 369 228 q 368 156 369 190 q 364 103 367 121 q 402 103 378 104 q 453 102 426 103 q 496 101 479 101 q 627 132 572 101 q 717 215 682 163 q 769 332 753 267 q 786 467 786 397 q 747 699 786 608 q 638 833 708 789 q 471 881 568 878 q 415 874 438 882 q 381 842 392 867 q 369 763 369 817 l 369 228 z "},"E":{"ha":867,"x_min":69,"x_max":810,"o":"m 542 335 q 524 419 542 393 q 474 452 506 446 q 406 457 443 458 l 369 456 l 369 228 q 368 157 369 190 q 364 106 367 124 l 550 106 q 631 124 592 106 q 694 187 669 143 q 719 306 719 231 l 810 306 l 803 0 l 69 0 l 69 92 q 123 100 101 93 q 156 132 144 107 q 168 213 168 157 l 168 744 q 170 817 168 782 q 174 869 172 851 q 118 867 151 868 q 69 865 85 867 l 69 972 l 764 972 l 772 703 l 681 703 q 654 818 681 779 q 589 870 628 857 q 513 882 550 883 l 463 881 q 413 873 433 881 q 381 840 392 865 q 369 760 369 814 l 369 551 l 532 551 l 526 672 l 633 672 l 633 335 l 542 335 z "},"É":{"ha":867,"x_min":69,"x_max":810,"o":"m 542 335 q 524 419 542 393 q 474 452 506 446 q 406 457 443 458 l 369 456 l 369 228 q 368 157 369 190 q 364 106 367 124 l 550 106 q 631 124 592 106 q 694 187 669 143 q 719 306 719 231 l 810 306 l 803 0 l 69 0 l 69 92 q 123 100 101 93 q 156 132 144 107 q 168 213 168 157 l 168 744 q 170 817 168 782 q 174 869 172 851 q 118 867 151 868 q 69 865 85 867 l 69 972 l 764 972 l 772 703 l 681 703 q 654 818 681 779 q 589 870 628 857 q 513 882 550 883 l 463 881 q 413 873 433 881 q 381 840 392 865 q 369 760 369 814 l 369 551 l 532 551 l 526 672 l 633 672 l 633 335 l 542 335 m 394 1042 l 344 1110 l 499 1274 q 543 1301 518 1293 q 592 1305 568 1310 q 633 1276 617 1300 q 647 1228 650 1253 q 629 1181 644 1203 q 592 1146 614 1160 l 394 1042 z "},"Ĕ":{"ha":867,"x_min":69,"x_max":810,"o":"m 542 335 q 524 419 542 393 q 474 452 506 446 q 406 457 443 458 l 369 456 l 369 228 q 368 157 369 190 q 364 106 367 124 l 550 106 q 631 124 592 106 q 694 187 669 143 q 719 306 719 231 l 810 306 l 803 0 l 69 0 l 69 92 q 123 100 101 93 q 156 132 144 107 q 168 213 168 157 l 168 744 q 170 817 168 782 q 174 869 172 851 q 118 867 151 868 q 69 865 85 867 l 69 972 l 764 972 l 772 703 l 681 703 q 654 818 681 779 q 589 870 628 857 q 513 882 550 883 l 463 881 q 413 873 433 881 q 381 840 392 865 q 369 760 369 814 l 369 551 l 532 551 l 526 672 l 633 672 l 633 335 l 542 335 m 453 1086 q 362 1102 408 1086 q 276 1155 315 1118 q 215 1254 238 1192 l 274 1283 q 345 1231 303 1254 q 453 1207 388 1207 q 560 1231 518 1207 q 631 1283 601 1254 l 689 1254 q 628 1155 667 1192 q 543 1102 589 1118 q 453 1086 497 1086 z "},"Ě":{"ha":867,"x_min":69,"x_max":810,"o":"m 542 335 q 524 419 542 393 q 474 452 506 446 q 406 457 443 458 l 369 456 l 369 228 q 368 157 369 190 q 364 106 367 124 l 550 106 q 631 124 592 106 q 694 187 669 143 q 719 306 719 231 l 810 306 l 803 0 l 69 0 l 69 92 q 123 100 101 93 q 156 132 144 107 q 168 213 168 157 l 168 744 q 170 817 168 782 q 174 869 172 851 q 118 867 151 868 q 69 865 85 867 l 69 972 l 764 972 l 772 703 l 681 703 q 654 818 681 779 q 589 870 628 857 q 513 882 550 883 l 463 881 q 413 873 433 881 q 381 840 392 865 q 369 760 369 814 l 369 551 l 532 551 l 526 672 l 633 672 l 633 335 l 542 335 m 431 1063 l 160 1271 l 203 1335 l 450 1214 l 704 1338 l 740 1275 l 457 1063 l 431 1063 z "},"Ê":{"ha":867,"x_min":69,"x_max":810,"o":"m 542 335 q 524 419 542 393 q 474 452 506 446 q 406 457 443 458 l 369 456 l 369 228 q 368 157 369 190 q 364 106 367 124 l 550 106 q 631 124 592 106 q 694 187 669 143 q 719 306 719 231 l 810 306 l 803 0 l 69 0 l 69 92 q 123 100 101 93 q 156 132 144 107 q 168 213 168 157 l 168 744 q 170 817 168 782 q 174 869 172 851 q 118 867 151 868 q 69 865 85 867 l 69 972 l 764 972 l 772 703 l 681 703 q 654 818 681 779 q 589 870 628 857 q 513 882 550 883 l 463 881 q 413 873 433 881 q 381 840 392 865 q 369 760 369 814 l 369 551 l 532 551 l 526 672 l 633 672 l 633 335 l 542 335 m 644 1075 l 451 1196 l 253 1078 l 215 1140 l 444 1349 l 471 1349 l 689 1140 l 644 1075 z "},"Ế":{"ha":867,"x_min":69,"x_max":901,"o":"m 542 335 q 524 419 542 393 q 474 452 506 446 q 406 457 443 458 l 369 456 l 369 228 q 368 157 369 190 q 364 106 367 124 l 550 106 q 631 124 592 106 q 694 187 669 143 q 719 306 719 231 l 810 306 l 803 0 l 69 0 l 69 92 q 123 100 101 93 q 156 132 144 107 q 168 213 168 157 l 168 744 q 170 817 168 782 q 174 869 172 851 q 118 867 151 868 q 69 865 85 867 l 69 972 l 764 972 l 772 703 l 681 703 q 654 818 681 779 q 589 870 628 857 q 513 882 550 883 l 463 881 q 413 873 433 881 q 381 840 392 865 q 369 760 369 814 l 369 551 l 532 551 l 526 672 l 633 672 l 633 335 l 542 335 m 611 1058 l 451 1158 l 288 1060 l 256 1111 l 446 1283 l 467 1283 l 647 1111 l 611 1058 m 693 1181 l 629 1238 l 743 1432 q 779 1469 757 1456 q 826 1483 801 1483 q 874 1465 851 1483 q 899 1419 896 1446 q 891 1369 901 1393 q 861 1328 881 1344 l 693 1181 z "},"Ệ":{"ha":867,"x_min":69,"x_max":810,"o":"m 542 335 q 524 419 542 393 q 474 452 506 446 q 406 457 443 458 l 369 456 l 369 228 q 368 157 369 190 q 364 106 367 124 l 550 106 q 631 124 592 106 q 694 187 669 143 q 719 306 719 231 l 810 306 l 803 0 l 69 0 l 69 92 q 123 100 101 93 q 156 132 144 107 q 168 213 168 157 l 168 744 q 170 817 168 782 q 174 869 172 851 q 118 867 151 868 q 69 865 85 867 l 69 972 l 764 972 l 772 703 l 681 703 q 654 818 681 779 q 589 870 628 857 q 513 882 550 883 l 463 881 q 413 873 433 881 q 381 840 392 865 q 369 760 369 814 l 369 551 l 532 551 l 526 672 l 633 672 l 633 335 l 542 335 m 465 -265 q 403 -239 426 -265 q 379 -176 379 -212 q 404 -112 379 -139 q 464 -86 429 -86 q 523 -112 500 -86 q 546 -176 546 -139 q 524 -239 546 -212 q 465 -265 501 -265 m 644 1075 l 451 1196 l 253 1078 l 215 1140 l 444 1349 l 471 1349 l 689 1140 l 644 1075 z "},"Ề":{"ha":867,"x_min":69,"x_max":810,"o":"m 542 335 q 524 419 542 393 q 474 452 506 446 q 406 457 443 458 l 369 456 l 369 228 q 368 157 369 190 q 364 106 367 124 l 550 106 q 631 124 592 106 q 694 187 669 143 q 719 306 719 231 l 810 306 l 803 0 l 69 0 l 69 92 q 123 100 101 93 q 156 132 144 107 q 168 213 168 157 l 168 744 q 170 817 168 782 q 174 869 172 851 q 118 867 151 868 q 69 865 85 867 l 69 972 l 764 972 l 772 703 l 681 703 q 654 818 681 779 q 589 870 628 857 q 513 882 550 883 l 463 881 q 413 873 433 881 q 381 840 392 865 q 369 760 369 814 l 369 551 l 532 551 l 526 672 l 633 672 l 633 335 l 542 335 m 611 1058 l 451 1158 l 288 1060 l 256 1111 l 446 1283 l 467 1283 l 647 1111 l 611 1058 m 663 1240 l 494 1388 q 465 1428 475 1404 q 458 1479 454 1453 q 483 1525 461 1506 q 530 1543 506 1543 q 576 1529 554 1543 q 613 1492 599 1515 l 726 1297 l 663 1240 z "},"Ể":{"ha":867,"x_min":69,"x_max":810,"o":"m 542 335 q 524 419 542 393 q 474 452 506 446 q 406 457 443 458 l 369 456 l 369 228 q 368 157 369 190 q 364 106 367 124 l 550 106 q 631 124 592 106 q 694 187 669 143 q 719 306 719 231 l 810 306 l 803 0 l 69 0 l 69 92 q 123 100 101 93 q 156 132 144 107 q 168 213 168 157 l 168 744 q 170 817 168 782 q 174 869 172 851 q 118 867 151 868 q 69 865 85 867 l 69 972 l 764 972 l 772 703 l 681 703 q 654 818 681 779 q 589 870 628 857 q 513 882 550 883 l 463 881 q 413 873 433 881 q 381 840 392 865 q 369 760 369 814 l 369 551 l 532 551 l 526 672 l 633 672 l 633 335 l 542 335 m 611 1058 l 451 1158 l 288 1060 l 256 1111 l 446 1283 l 467 1283 l 647 1111 l 611 1058 m 622 1249 q 641 1294 622 1278 q 676 1328 660 1310 q 693 1351 686 1339 q 700 1382 700 1364 q 680 1426 700 1411 q 631 1440 660 1440 q 574 1426 592 1440 q 554 1403 557 1413 q 585 1392 575 1403 q 596 1365 596 1381 q 583 1336 596 1350 q 547 1322 571 1322 q 495 1343 515 1322 q 475 1393 475 1364 q 493 1455 475 1425 q 547 1504 511 1485 q 631 1524 582 1524 q 758 1489 713 1524 q 804 1394 804 1454 q 785 1338 804 1357 q 746 1303 765 1319 q 719 1275 729 1289 q 708 1249 708 1261 l 622 1249 z "},"Ễ":{"ha":867,"x_min":69,"x_max":810,"o":"m 542 335 q 524 419 542 393 q 474 452 506 446 q 406 457 443 458 l 369 456 l 369 228 q 368 157 369 190 q 364 106 367 124 l 550 106 q 631 124 592 106 q 694 187 669 143 q 719 306 719 231 l 810 306 l 803 0 l 69 0 l 69 92 q 123 100 101 93 q 156 132 144 107 q 168 213 168 157 l 168 744 q 170 817 168 782 q 174 869 172 851 q 118 867 151 868 q 69 865 85 867 l 69 972 l 764 972 l 772 703 l 681 703 q 654 818 681 779 q 589 870 628 857 q 513 882 550 883 l 463 881 q 413 873 433 881 q 381 840 392 865 q 369 760 369 814 l 369 551 l 532 551 l 526 672 l 633 672 l 633 335 l 542 335 m 611 1058 l 451 1158 l 288 1060 l 256 1111 l 446 1283 l 467 1283 l 647 1111 l 611 1058 m 725 1489 q 649 1365 696 1403 q 560 1326 601 1326 q 495 1340 522 1326 q 444 1367 468 1354 q 392 1381 419 1381 q 351 1369 375 1381 q 306 1324 326 1357 l 228 1369 q 297 1473 251 1433 q 390 1513 343 1513 q 458 1499 433 1513 q 505 1473 483 1486 q 560 1460 526 1460 q 606 1478 583 1460 q 646 1529 628 1497 l 725 1489 z "},"Ë":{"ha":867,"x_min":69,"x_max":810,"o":"m 542 335 q 524 419 542 393 q 474 452 506 446 q 406 457 443 458 l 369 456 l 369 228 q 368 157 369 190 q 364 106 367 124 l 550 106 q 631 124 592 106 q 694 187 669 143 q 719 306 719 231 l 810 306 l 803 0 l 69 0 l 69 92 q 123 100 101 93 q 156 132 144 107 q 168 213 168 157 l 168 744 q 170 817 168 782 q 174 869 172 851 q 118 867 151 868 q 69 865 85 867 l 69 972 l 764 972 l 772 703 l 681 703 q 654 818 681 779 q 589 870 628 857 q 513 882 550 883 l 463 881 q 413 873 433 881 q 381 840 392 865 q 369 760 369 814 l 369 551 l 532 551 l 526 672 l 633 672 l 633 335 l 542 335 m 329 1107 q 264 1138 292 1107 q 236 1211 236 1168 q 265 1287 236 1256 q 331 1318 293 1318 q 396 1287 369 1318 q 422 1211 422 1256 q 394 1138 422 1168 q 329 1107 367 1107 m 571 1107 q 507 1138 535 1107 q 479 1211 479 1168 q 508 1287 479 1256 q 572 1318 536 1318 q 638 1287 613 1318 q 664 1211 664 1256 q 636 1138 664 1168 q 571 1107 608 1107 z "},"Ė":{"ha":867,"x_min":69,"x_max":810,"o":"m 542 335 q 524 419 542 393 q 474 452 506 446 q 406 457 443 458 l 369 456 l 369 228 q 368 157 369 190 q 364 106 367 124 l 550 106 q 631 124 592 106 q 694 187 669 143 q 719 306 719 231 l 810 306 l 803 0 l 69 0 l 69 92 q 123 100 101 93 q 156 132 144 107 q 168 213 168 157 l 168 744 q 170 817 168 782 q 174 869 172 851 q 118 867 151 868 q 69 865 85 867 l 69 972 l 764 972 l 772 703 l 681 703 q 654 818 681 779 q 589 870 628 857 q 513 882 550 883 l 463 881 q 413 873 433 881 q 381 840 392 865 q 369 760 369 814 l 369 551 l 532 551 l 526 672 l 633 672 l 633 335 l 542 335 m 453 1096 q 375 1129 406 1096 q 344 1210 344 1163 q 376 1290 344 1257 q 451 1324 408 1324 q 526 1290 496 1324 q 556 1210 556 1257 q 528 1129 556 1163 q 453 1096 500 1096 z "},"Ẹ":{"ha":867,"x_min":69,"x_max":810,"o":"m 542 335 q 524 419 542 393 q 474 452 506 446 q 406 457 443 458 l 369 456 l 369 228 q 368 157 369 190 q 364 106 367 124 l 550 106 q 631 124 592 106 q 694 187 669 143 q 719 306 719 231 l 810 306 l 803 0 l 69 0 l 69 92 q 123 100 101 93 q 156 132 144 107 q 168 213 168 157 l 168 744 q 170 817 168 782 q 174 869 172 851 q 118 867 151 868 q 69 865 85 867 l 69 972 l 764 972 l 772 703 l 681 703 q 654 818 681 779 q 589 870 628 857 q 513 882 550 883 l 463 881 q 413 873 433 881 q 381 840 392 865 q 369 760 369 814 l 369 551 l 532 551 l 526 672 l 633 672 l 633 335 l 542 335 m 465 -265 q 403 -239 426 -265 q 379 -176 379 -212 q 404 -112 379 -139 q 464 -86 429 -86 q 523 -112 500 -86 q 546 -176 546 -139 q 524 -239 546 -212 q 465 -265 501 -265 z "},"È":{"ha":867,"x_min":69,"x_max":810,"o":"m 542 335 q 524 419 542 393 q 474 452 506 446 q 406 457 443 458 l 369 456 l 369 228 q 368 157 369 190 q 364 106 367 124 l 550 106 q 631 124 592 106 q 694 187 669 143 q 719 306 719 231 l 810 306 l 803 0 l 69 0 l 69 92 q 123 100 101 93 q 156 132 144 107 q 168 213 168 157 l 168 744 q 170 817 168 782 q 174 869 172 851 q 118 867 151 868 q 69 865 85 867 l 69 972 l 764 972 l 772 703 l 681 703 q 654 818 681 779 q 589 870 628 857 q 513 882 550 883 l 463 881 q 413 873 433 881 q 381 840 392 865 q 369 760 369 814 l 369 551 l 532 551 l 526 672 l 633 672 l 633 335 l 542 335 m 482 1042 l 285 1146 q 249 1181 264 1160 q 231 1228 233 1203 q 243 1276 228 1253 q 285 1305 261 1300 q 333 1301 308 1310 q 378 1274 358 1293 l 532 1110 l 482 1042 z "},"Ẻ":{"ha":867,"x_min":69,"x_max":810,"o":"m 542 335 q 524 419 542 393 q 474 452 506 446 q 406 457 443 458 l 369 456 l 369 228 q 368 157 369 190 q 364 106 367 124 l 550 106 q 631 124 592 106 q 694 187 669 143 q 719 306 719 231 l 810 306 l 803 0 l 69 0 l 69 92 q 123 100 101 93 q 156 132 144 107 q 168 213 168 157 l 168 744 q 170 817 168 782 q 174 869 172 851 q 118 867 151 868 q 69 865 85 867 l 69 972 l 764 972 l 772 703 l 681 703 q 654 818 681 779 q 589 870 628 857 q 513 882 550 883 l 463 881 q 413 873 433 881 q 381 840 392 865 q 369 760 369 814 l 369 551 l 532 551 l 526 672 l 633 672 l 633 335 l 542 335 m 422 1054 q 440 1099 422 1083 q 476 1133 458 1115 q 493 1157 486 1144 q 500 1188 500 1169 q 480 1231 500 1217 q 431 1246 460 1246 q 374 1232 392 1246 q 354 1208 357 1218 q 385 1197 375 1208 q 396 1171 396 1186 q 383 1142 396 1156 q 347 1128 371 1128 q 295 1149 315 1128 q 275 1199 275 1169 q 293 1260 275 1231 q 347 1310 311 1290 q 431 1329 382 1329 q 558 1294 513 1329 q 604 1200 604 1260 q 586 1142 604 1163 q 546 1108 568 1122 q 519 1081 529 1094 q 508 1054 508 1067 l 422 1054 z "},"Ē":{"ha":867,"x_min":69,"x_max":810,"o":"m 542 335 q 524 419 542 393 q 474 452 506 446 q 406 457 443 458 l 369 456 l 369 228 q 368 157 369 190 q 364 106 367 124 l 550 106 q 631 124 592 106 q 694 187 669 143 q 719 306 719 231 l 810 306 l 803 0 l 69 0 l 69 92 q 123 100 101 93 q 156 132 144 107 q 168 213 168 157 l 168 744 q 170 817 168 782 q 174 869 172 851 q 118 867 151 868 q 69 865 85 867 l 69 972 l 764 972 l 772 703 l 681 703 q 654 818 681 779 q 589 870 628 857 q 513 882 550 883 l 463 881 q 413 873 433 881 q 381 840 392 865 q 369 760 369 814 l 369 551 l 532 551 l 526 672 l 633 672 l 633 335 l 542 335 m 253 1149 l 253 1282 l 647 1282 l 647 1154 l 253 1149 z "},"Ę":{"ha":867,"x_min":69,"x_max":810,"o":"m 542 335 q 524 419 542 393 q 474 452 506 446 q 406 457 443 458 l 369 456 l 369 228 q 368 157 369 190 q 364 106 367 124 l 550 106 q 631 124 592 106 q 694 187 669 143 q 719 306 719 231 l 810 306 l 803 0 l 69 0 l 69 92 q 123 100 101 93 q 156 132 144 107 q 168 213 168 157 l 168 744 q 170 817 168 782 q 174 869 172 851 q 118 867 151 868 q 69 865 85 867 l 69 972 l 764 972 l 772 703 l 681 703 q 654 818 681 779 q 589 870 628 857 q 513 882 550 883 l 463 881 q 413 873 433 881 q 381 840 392 865 q 369 760 369 814 l 369 551 l 532 551 l 526 672 l 633 672 l 633 335 l 542 335 m 615 -361 q 507 -325 549 -361 q 465 -218 465 -289 q 510 -96 465 -153 q 628 4 556 -39 q 779 71 700 47 l 779 7 q 694 -40 736 -11 q 627 -104 653 -68 q 603 -179 601 -140 q 620 -219 604 -204 q 664 -235 636 -235 q 706 -224 683 -235 q 750 -194 728 -214 l 799 -254 q 714 -331 763 -301 q 615 -361 665 -361 z "},"Ẽ":{"ha":867,"x_min":69,"x_max":810,"o":"m 542 335 q 524 419 542 393 q 474 452 506 446 q 406 457 443 458 l 369 456 l 369 228 q 368 157 369 190 q 364 106 367 124 l 550 106 q 631 124 592 106 q 694 187 669 143 q 719 306 719 231 l 810 306 l 803 0 l 69 0 l 69 92 q 123 100 101 93 q 156 132 144 107 q 168 213 168 157 l 168 744 q 170 817 168 782 q 174 869 172 851 q 118 867 151 868 q 69 865 85 867 l 69 972 l 764 972 l 772 703 l 681 703 q 654 818 681 779 q 589 870 628 857 q 513 882 550 883 l 463 881 q 413 873 433 881 q 381 840 392 865 q 369 760 369 814 l 369 551 l 532 551 l 526 672 l 633 672 l 633 335 l 542 335 m 742 1281 q 685 1172 717 1210 q 619 1119 653 1133 q 557 1106 586 1106 q 499 1116 525 1106 q 451 1140 474 1126 q 404 1165 428 1154 q 351 1175 381 1175 q 294 1160 325 1175 q 235 1103 263 1144 l 157 1154 q 242 1267 189 1232 q 346 1303 296 1303 q 407 1292 381 1303 q 456 1269 433 1282 q 501 1245 478 1256 q 550 1235 524 1235 q 610 1260 578 1235 q 663 1325 643 1286 l 742 1281 z "},"Ə":{"ha":1035,"x_min":63,"x_max":986,"o":"m 506 -22 q 298 20 383 -22 q 161 132 213 63 q 86 286 110 201 q 63 456 63 371 q 64 498 63 476 q 68 540 65 519 l 764 544 q 740 667 758 606 q 687 778 721 728 q 599 858 653 828 q 468 888 546 888 q 348 865 403 888 q 256 797 293 843 q 207 681 219 751 l 115 681 l 115 985 l 222 985 l 218 926 q 308 964 256 949 q 413 987 361 979 q 501 994 465 994 q 732 950 639 994 q 881 831 825 906 q 961 667 936 757 q 986 486 986 576 q 957 300 986 390 q 869 137 928 210 q 719 21 810 64 q 506 -22 629 -22 m 536 79 q 642 113 599 82 q 712 196 685 144 q 752 310 739 247 q 768 436 765 372 l 281 436 q 297 296 281 361 q 346 181 314 231 q 426 105 378 132 q 536 79 474 78 z "},"Ʒ":{"ha":901,"x_min":42,"x_max":863,"o":"m 524 575 q 714 547 639 586 q 826 439 789 507 q 863 296 863 371 q 828 160 863 219 q 734 59 793 100 q 600 -3 675 18 q 443 -22 525 -24 q 361 -16 410 -22 q 257 11 313 -10 q 146 74 201 32 q 42 186 90 115 l 110 244 q 255 127 168 164 q 426 90 342 90 q 536 110 488 90 q 614 178 585 131 q 643 303 643 225 q 602 444 643 392 q 478 497 561 497 l 357 497 l 357 546 l 524 575 m 513 738 q 580 818 553 789 q 638 875 607 847 l 372 882 q 246 837 296 885 q 196 676 196 789 l 104 676 l 113 972 l 819 972 l 819 868 l 563 546 l 357 546 l 513 738 z "},"Ǯ":{"ha":901,"x_min":42,"x_max":863,"o":"m 524 575 q 714 547 639 586 q 826 439 789 507 q 863 296 863 371 q 828 160 863 219 q 734 59 793 100 q 600 -3 675 18 q 443 -22 525 -24 q 361 -16 410 -22 q 257 11 313 -10 q 146 74 201 32 q 42 186 90 115 l 110 244 q 255 127 168 164 q 426 90 342 90 q 536 110 488 90 q 614 178 585 131 q 643 303 643 225 q 602 444 643 392 q 478 497 561 497 l 357 497 l 357 546 l 524 575 m 513 738 q 580 818 553 789 q 638 875 607 847 l 372 882 q 246 837 296 885 q 196 676 196 789 l 104 676 l 113 972 l 819 972 l 819 868 l 563 546 l 357 546 l 513 738 m 424 1063 l 153 1271 l 196 1335 l 443 1214 l 697 1338 l 733 1275 l 450 1063 l 424 1063 z "},"F":{"ha":793,"x_min":69,"x_max":772,"o":"m 69 0 l 69 92 q 123 100 101 93 q 156 132 144 107 q 168 213 168 157 l 168 744 q 170 817 168 782 q 174 869 172 851 q 118 867 151 868 q 69 865 85 867 l 69 972 l 764 972 l 772 703 l 681 703 q 654 818 681 779 q 589 870 628 857 q 513 882 550 883 l 463 881 q 413 873 433 881 q 381 840 392 865 q 369 760 369 814 l 369 518 l 513 518 l 507 638 l 614 638 l 614 300 l 522 300 q 504 385 522 358 q 455 417 486 411 q 386 422 424 424 l 369 422 l 369 228 q 368 156 369 190 q 364 103 367 121 q 404 105 379 104 q 453 106 429 106 q 488 107 478 107 l 488 0 l 69 0 z "},"G":{"ha":1047,"x_min":50,"x_max":1024,"o":"m 522 -22 q 267 44 372 -22 q 106 222 161 110 q 50 472 50 335 q 80 660 50 567 q 169 828 110 753 q 320 949 229 904 q 532 994 411 994 q 617 987 569 994 q 712 964 664 979 q 797 926 760 949 l 792 985 l 899 985 l 899 661 l 808 661 q 760 790 796 739 q 669 868 724 842 q 550 894 615 894 q 424 861 478 894 q 336 772 371 828 q 284 646 301 717 q 267 500 267 575 q 300 288 267 381 q 398 141 333 194 q 557 88 463 88 q 619 92 583 88 q 692 104 656 96 q 753 125 728 113 l 753 254 q 755 326 753 292 q 758 379 757 361 q 703 377 736 378 q 654 375 669 376 l 654 482 l 1024 482 l 1024 390 q 983 385 1000 389 q 953 369 965 381 q 936 333 942 357 q 931 269 931 310 l 931 47 l 897 47 q 817 36 857 47 q 731 11 776 25 q 636 -12 688 -1 q 522 -22 585 -22 z "},"Ğ":{"ha":1047,"x_min":50,"x_max":1024,"o":"m 522 -22 q 267 44 372 -22 q 106 222 161 110 q 50 472 50 335 q 80 660 50 567 q 169 828 110 753 q 320 949 229 904 q 532 994 411 994 q 617 987 569 994 q 712 964 664 979 q 797 926 760 949 l 792 985 l 899 985 l 899 661 l 808 661 q 760 790 796 739 q 669 868 724 842 q 550 894 615 894 q 424 861 478 894 q 336 772 371 828 q 284 646 301 717 q 267 500 267 575 q 300 288 267 381 q 398 141 333 194 q 557 88 463 88 q 619 92 583 88 q 692 104 656 96 q 753 125 728 113 l 753 254 q 755 326 753 292 q 758 379 757 361 q 703 377 736 378 q 654 375 669 376 l 654 482 l 1024 482 l 1024 390 q 983 385 1000 389 q 953 369 965 381 q 936 333 942 357 q 931 269 931 310 l 931 47 l 897 47 q 817 36 857 47 q 731 11 776 25 q 636 -12 688 -1 q 522 -22 585 -22 m 540 1086 q 449 1102 496 1086 q 364 1155 403 1118 q 303 1254 325 1192 l 361 1283 q 433 1231 390 1254 q 540 1207 475 1207 q 647 1231 606 1207 q 718 1283 689 1254 l 776 1254 q 715 1155 754 1192 q 631 1102 676 1118 q 540 1086 585 1086 z "},"Ǧ":{"ha":1047,"x_min":50,"x_max":1024,"o":"m 522 -22 q 267 44 372 -22 q 106 222 161 110 q 50 472 50 335 q 80 660 50 567 q 169 828 110 753 q 320 949 229 904 q 532 994 411 994 q 617 987 569 994 q 712 964 664 979 q 797 926 760 949 l 792 985 l 899 985 l 899 661 l 808 661 q 760 790 796 739 q 669 868 724 842 q 550 894 615 894 q 424 861 478 894 q 336 772 371 828 q 284 646 301 717 q 267 500 267 575 q 300 288 267 381 q 398 141 333 194 q 557 88 463 88 q 619 92 583 88 q 692 104 656 96 q 753 125 728 113 l 753 254 q 755 326 753 292 q 758 379 757 361 q 703 377 736 378 q 654 375 669 376 l 654 482 l 1024 482 l 1024 390 q 983 385 1000 389 q 953 369 965 381 q 936 333 942 357 q 931 269 931 310 l 931 47 l 897 47 q 817 36 857 47 q 731 11 776 25 q 636 -12 688 -1 q 522 -22 585 -22 m 518 1063 l 247 1271 l 290 1335 l 538 1214 l 792 1338 l 828 1275 l 544 1063 l 518 1063 z "},"Ĝ":{"ha":1047,"x_min":50,"x_max":1024,"o":"m 522 -22 q 267 44 372 -22 q 106 222 161 110 q 50 472 50 335 q 80 660 50 567 q 169 828 110 753 q 320 949 229 904 q 532 994 411 994 q 617 987 569 994 q 712 964 664 979 q 797 926 760 949 l 792 985 l 899 985 l 899 661 l 808 661 q 760 790 796 739 q 669 868 724 842 q 550 894 615 894 q 424 861 478 894 q 336 772 371 828 q 284 646 301 717 q 267 500 267 575 q 300 288 267 381 q 398 141 333 194 q 557 88 463 88 q 619 92 583 88 q 692 104 656 96 q 753 125 728 113 l 753 254 q 755 326 753 292 q 758 379 757 361 q 703 377 736 378 q 654 375 669 376 l 654 482 l 1024 482 l 1024 390 q 983 385 1000 389 q 953 369 965 381 q 936 333 942 357 q 931 269 931 310 l 931 47 l 897 47 q 817 36 857 47 q 731 11 776 25 q 636 -12 688 -1 q 522 -22 585 -22 m 732 1075 l 539 1196 l 340 1078 l 303 1140 l 532 1349 l 558 1349 l 776 1140 l 732 1075 z "},"Ģ":{"ha":1047,"x_min":50,"x_max":1024,"o":"m 522 -22 q 267 44 372 -22 q 106 222 161 110 q 50 472 50 335 q 80 660 50 567 q 169 828 110 753 q 320 949 229 904 q 532 994 411 994 q 617 987 569 994 q 712 964 664 979 q 797 926 760 949 l 792 985 l 899 985 l 899 661 l 808 661 q 760 790 796 739 q 669 868 724 842 q 550 894 615 894 q 424 861 478 894 q 336 772 371 828 q 284 646 301 717 q 267 500 267 575 q 300 288 267 381 q 398 141 333 194 q 557 88 463 88 q 619 92 583 88 q 692 104 656 96 q 753 125 728 113 l 753 254 q 755 326 753 292 q 758 379 757 361 q 703 377 736 378 q 654 375 669 376 l 654 482 l 1024 482 l 1024 390 q 983 385 1000 389 q 953 369 965 381 q 936 333 942 357 q 931 269 931 310 l 931 47 l 897 47 q 817 36 857 47 q 731 11 776 25 q 636 -12 688 -1 q 522 -22 585 -22 m 556 -394 l 493 -346 q 539 -247 525 -292 q 552 -161 553 -203 q 539 -75 551 -119 l 664 -50 q 693 -150 693 -97 q 655 -274 693 -211 q 556 -394 617 -337 z "},"Ġ":{"ha":1047,"x_min":50,"x_max":1024,"o":"m 522 -22 q 267 44 372 -22 q 106 222 161 110 q 50 472 50 335 q 80 660 50 567 q 169 828 110 753 q 320 949 229 904 q 532 994 411 994 q 617 987 569 994 q 712 964 664 979 q 797 926 760 949 l 792 985 l 899 985 l 899 661 l 808 661 q 760 790 796 739 q 669 868 724 842 q 550 894 615 894 q 424 861 478 894 q 336 772 371 828 q 284 646 301 717 q 267 500 267 575 q 300 288 267 381 q 398 141 333 194 q 557 88 463 88 q 619 92 583 88 q 692 104 656 96 q 753 125 728 113 l 753 254 q 755 326 753 292 q 758 379 757 361 q 703 377 736 378 q 654 375 669 376 l 654 482 l 1024 482 l 1024 390 q 983 385 1000 389 q 953 369 965 381 q 936 333 942 357 q 931 269 931 310 l 931 47 l 897 47 q 817 36 857 47 q 731 11 776 25 q 636 -12 688 -1 q 522 -22 585 -22 m 540 1096 q 463 1129 493 1096 q 432 1210 432 1163 q 464 1290 432 1257 q 539 1324 496 1324 q 613 1290 583 1324 q 643 1210 643 1257 q 615 1129 643 1163 q 540 1096 588 1096 z "},"Ǥ":{"ha":1047,"x_min":50,"x_max":1044,"o":"m 621 257 l 621 317 l 1044 317 l 1044 263 l 621 257 m 522 -22 q 267 44 372 -22 q 106 222 161 110 q 50 472 50 335 q 80 660 50 567 q 169 828 110 753 q 320 949 229 904 q 532 994 411 994 q 617 987 569 994 q 712 964 664 979 q 797 926 760 949 l 792 985 l 899 985 l 899 661 l 808 661 q 760 790 796 739 q 669 868 724 842 q 550 894 615 894 q 424 861 478 894 q 336 772 371 828 q 284 646 301 717 q 267 500 267 575 q 300 288 267 381 q 398 141 333 194 q 557 88 463 88 q 619 92 583 88 q 692 104 656 96 q 753 125 728 113 l 753 254 q 755 326 753 292 q 758 379 757 361 q 703 377 736 378 q 654 375 669 376 l 654 482 l 1024 482 l 1024 390 q 983 385 1000 389 q 953 369 965 381 q 936 333 942 357 q 931 269 931 310 l 931 47 l 897 47 q 817 36 857 47 q 731 11 776 25 q 636 -12 688 -1 q 522 -22 585 -22 z "},"H":{"ha":1121,"x_min":69,"x_max":1051,"o":"m 69 0 l 69 92 q 123 100 101 93 q 156 132 144 107 q 168 213 168 157 l 168 744 q 170 817 168 782 q 174 869 172 851 q 118 867 151 868 q 69 865 85 867 l 69 972 l 468 972 l 468 881 q 415 872 438 879 q 381 841 393 865 q 369 760 369 817 l 369 543 l 751 543 l 751 744 q 753 817 751 782 q 757 869 754 851 q 701 867 735 868 q 653 865 668 867 l 653 972 l 1051 972 l 1051 881 q 999 872 1021 879 q 965 841 976 865 q 953 760 953 817 l 953 228 q 951 156 953 190 q 947 103 950 121 q 1003 106 969 106 q 1051 107 1038 107 l 1051 0 l 653 0 l 653 92 q 706 100 685 93 q 740 132 728 107 q 751 213 751 157 l 751 438 l 369 433 l 369 228 q 368 156 369 190 q 364 103 367 121 q 420 106 386 106 q 468 107 454 107 l 468 0 l 69 0 z "},"Ħ":{"ha":1121,"x_min":69,"x_max":1051,"o":"m 71 674 l 71 747 l 1050 747 l 1050 679 l 71 674 m 69 0 l 69 92 q 123 100 101 93 q 156 132 144 107 q 168 213 168 157 l 168 744 q 170 817 168 782 q 174 869 172 851 q 118 867 151 868 q 69 865 85 867 l 69 972 l 468 972 l 468 881 q 415 872 438 879 q 381 841 393 865 q 369 760 369 817 l 369 543 l 751 543 l 751 744 q 753 817 751 782 q 757 869 754 851 q 701 867 735 868 q 653 865 668 867 l 653 972 l 1051 972 l 1051 881 q 999 872 1021 879 q 965 841 976 865 q 953 760 953 817 l 953 228 q 951 156 953 190 q 947 103 950 121 q 1003 106 969 106 q 1051 107 1038 107 l 1051 0 l 653 0 l 653 92 q 706 100 685 93 q 740 132 728 107 q 751 213 751 157 l 751 438 l 369 433 l 369 228 q 368 156 369 190 q 364 103 367 121 q 420 106 386 106 q 468 107 454 107 l 468 0 l 69 0 z "},"Ȟ":{"ha":1121,"x_min":69,"x_max":1051,"o":"m 69 0 l 69 92 q 123 100 101 93 q 156 132 144 107 q 168 213 168 157 l 168 744 q 170 817 168 782 q 174 869 172 851 q 118 867 151 868 q 69 865 85 867 l 69 972 l 468 972 l 468 881 q 415 872 438 879 q 381 841 393 865 q 369 760 369 817 l 369 543 l 751 543 l 751 744 q 753 817 751 782 q 757 869 754 851 q 701 867 735 868 q 653 865 668 867 l 653 972 l 1051 972 l 1051 881 q 999 872 1021 879 q 965 841 976 865 q 953 760 953 817 l 953 228 q 951 156 953 190 q 947 103 950 121 q 1003 106 969 106 q 1051 107 1038 107 l 1051 0 l 653 0 l 653 92 q 706 100 685 93 q 740 132 728 107 q 751 213 751 157 l 751 438 l 369 433 l 369 228 q 368 156 369 190 q 364 103 367 121 q 420 106 386 106 q 468 107 454 107 l 468 0 l 69 0 m 540 1063 l 269 1271 l 313 1335 l 560 1214 l 814 1338 l 850 1275 l 567 1063 l 540 1063 z "},"Ĥ":{"ha":1121,"x_min":69,"x_max":1051,"o":"m 69 0 l 69 92 q 123 100 101 93 q 156 132 144 107 q 168 213 168 157 l 168 744 q 170 817 168 782 q 174 869 172 851 q 118 867 151 868 q 69 865 85 867 l 69 972 l 468 972 l 468 881 q 415 872 438 879 q 381 841 393 865 q 369 760 369 817 l 369 543 l 751 543 l 751 744 q 753 817 751 782 q 757 869 754 851 q 701 867 735 868 q 653 865 668 867 l 653 972 l 1051 972 l 1051 881 q 999 872 1021 879 q 965 841 976 865 q 953 760 953 817 l 953 228 q 951 156 953 190 q 947 103 950 121 q 1003 106 969 106 q 1051 107 1038 107 l 1051 0 l 653 0 l 653 92 q 706 100 685 93 q 740 132 728 107 q 751 213 751 157 l 751 438 l 369 433 l 369 228 q 368 156 369 190 q 364 103 367 121 q 420 106 386 106 q 468 107 454 107 l 468 0 l 69 0 m 754 1075 l 561 1196 l 363 1078 l 325 1140 l 554 1349 l 581 1349 l 799 1140 l 754 1075 z "},"I":{"ha":538,"x_min":69,"x_max":468,"o":"m 468 881 q 415 872 438 879 q 381 841 393 865 q 369 760 369 817 l 369 228 q 368 156 369 190 q 364 103 367 121 q 420 106 386 106 q 468 107 454 107 l 468 0 l 69 0 l 69 92 q 123 100 101 93 q 156 132 144 107 q 168 213 168 157 l 168 744 q 170 817 168 782 q 174 869 172 851 q 118 867 151 868 q 69 865 85 867 l 69 972 l 468 972 l 468 881 z "},"Ĳ":{"ha":1164,"x_min":69,"x_max":1126,"o":"m 468 881 q 415 872 438 879 q 381 841 393 865 q 369 760 369 817 l 369 228 q 368 156 369 190 q 364 103 367 121 q 420 106 386 106 q 468 107 454 107 l 468 0 l 69 0 l 69 92 q 123 100 101 93 q 156 132 144 107 q 168 213 168 157 l 168 744 q 170 817 168 782 q 174 869 172 851 q 118 867 151 868 q 69 865 85 867 l 69 972 l 468 972 l 468 881 m 738 -22 q 638 -3 683 -22 q 566 50 593 17 q 539 126 539 83 q 563 206 539 171 q 635 242 588 240 q 710 216 688 244 q 735 151 733 188 q 733 126 736 140 q 722 100 729 113 q 744 82 729 86 q 765 78 758 78 q 810 103 794 78 q 826 188 826 129 l 826 744 q 828 817 826 782 q 832 869 829 851 q 776 867 810 868 q 728 865 743 867 l 728 972 l 1126 972 l 1126 881 q 1074 872 1096 879 q 1040 841 1051 865 q 1028 760 1028 817 l 1028 353 q 953 65 1028 153 q 738 -22 878 -22 z "},"Í":{"ha":538,"x_min":69,"x_max":468,"o":"m 468 881 q 415 872 438 879 q 381 841 393 865 q 369 760 369 817 l 369 228 q 368 156 369 190 q 364 103 367 121 q 420 106 386 106 q 468 107 454 107 l 468 0 l 69 0 l 69 92 q 123 100 101 93 q 156 132 144 107 q 168 213 168 157 l 168 744 q 170 817 168 782 q 174 869 172 851 q 118 867 151 868 q 69 865 85 867 l 69 972 l 468 972 l 468 881 m 211 1042 l 161 1110 l 315 1274 q 360 1301 335 1293 q 409 1305 385 1310 q 450 1276 433 1300 q 464 1228 467 1253 q 446 1181 461 1203 q 408 1146 431 1160 l 211 1042 z "},"Ĭ":{"ha":538,"x_min":32,"x_max":506,"o":"m 468 881 q 415 872 438 879 q 381 841 393 865 q 369 760 369 817 l 369 228 q 368 156 369 190 q 364 103 367 121 q 420 106 386 106 q 468 107 454 107 l 468 0 l 69 0 l 69 92 q 123 100 101 93 q 156 132 144 107 q 168 213 168 157 l 168 744 q 170 817 168 782 q 174 869 172 851 q 118 867 151 868 q 69 865 85 867 l 69 972 l 468 972 l 468 881 m 269 1086 q 178 1102 225 1086 q 93 1155 132 1118 q 32 1254 54 1192 l 90 1283 q 162 1231 119 1254 q 269 1207 204 1207 q 376 1231 335 1207 q 447 1283 418 1254 l 506 1254 q 444 1155 483 1192 q 360 1102 406 1118 q 269 1086 314 1086 z "},"Î":{"ha":538,"x_min":32,"x_max":506,"o":"m 468 881 q 415 872 438 879 q 381 841 393 865 q 369 760 369 817 l 369 228 q 368 156 369 190 q 364 103 367 121 q 420 106 386 106 q 468 107 454 107 l 468 0 l 69 0 l 69 92 q 123 100 101 93 q 156 132 144 107 q 168 213 168 157 l 168 744 q 170 817 168 782 q 174 869 172 851 q 118 867 151 868 q 69 865 85 867 l 69 972 l 468 972 l 468 881 m 461 1075 l 268 1196 l 69 1078 l 32 1140 l 261 1349 l 288 1349 l 506 1140 l 461 1075 z "},"Ï":{"ha":538,"x_min":53,"x_max":481,"o":"m 468 881 q 415 872 438 879 q 381 841 393 865 q 369 760 369 817 l 369 228 q 368 156 369 190 q 364 103 367 121 q 420 106 386 106 q 468 107 454 107 l 468 0 l 69 0 l 69 92 q 123 100 101 93 q 156 132 144 107 q 168 213 168 157 l 168 744 q 170 817 168 782 q 174 869 172 851 q 118 867 151 868 q 69 865 85 867 l 69 972 l 468 972 l 468 881 m 146 1107 q 81 1138 108 1107 q 53 1211 53 1168 q 81 1287 53 1256 q 147 1318 110 1318 q 213 1287 186 1318 q 239 1211 239 1256 q 211 1138 239 1168 q 146 1107 183 1107 m 388 1107 q 324 1138 351 1107 q 296 1211 296 1168 q 324 1287 296 1256 q 389 1318 353 1318 q 455 1287 429 1318 q 481 1211 481 1256 q 453 1138 481 1168 q 388 1107 425 1107 z "},"İ":{"ha":538,"x_min":69,"x_max":468,"o":"m 468 881 q 415 872 438 879 q 381 841 393 865 q 369 760 369 817 l 369 228 q 368 156 369 190 q 364 103 367 121 q 420 106 386 106 q 468 107 454 107 l 468 0 l 69 0 l 69 92 q 123 100 101 93 q 156 132 144 107 q 168 213 168 157 l 168 744 q 170 817 168 782 q 174 869 172 851 q 118 867 151 868 q 69 865 85 867 l 69 972 l 468 972 l 468 881 m 269 1096 q 192 1129 222 1096 q 161 1210 161 1163 q 193 1290 161 1257 q 268 1324 225 1324 q 342 1290 313 1324 q 372 1210 372 1257 q 344 1129 372 1163 q 269 1096 317 1096 z "},"Ị":{"ha":538,"x_min":69,"x_max":468,"o":"m 468 881 q 415 872 438 879 q 381 841 393 865 q 369 760 369 817 l 369 228 q 368 156 369 190 q 364 103 367 121 q 420 106 386 106 q 468 107 454 107 l 468 0 l 69 0 l 69 92 q 123 100 101 93 q 156 132 144 107 q 168 213 168 157 l 168 744 q 170 817 168 782 q 174 869 172 851 q 118 867 151 868 q 69 865 85 867 l 69 972 l 468 972 l 468 881 m 272 -265 q 210 -239 233 -265 q 186 -176 186 -212 q 211 -112 186 -139 q 271 -86 236 -86 q 330 -112 307 -86 q 353 -176 353 -139 q 331 -239 353 -212 q 272 -265 308 -265 z "},"Ì":{"ha":538,"x_min":44,"x_max":468,"o":"m 468 881 q 415 872 438 879 q 381 841 393 865 q 369 760 369 817 l 369 228 q 368 156 369 190 q 364 103 367 121 q 420 106 386 106 q 468 107 454 107 l 468 0 l 69 0 l 69 92 q 123 100 101 93 q 156 132 144 107 q 168 213 168 157 l 168 744 q 170 817 168 782 q 174 869 172 851 q 118 867 151 868 q 69 865 85 867 l 69 972 l 468 972 l 468 881 m 299 1042 l 101 1146 q 65 1181 81 1160 q 47 1228 50 1203 q 60 1276 44 1253 q 101 1305 78 1300 q 150 1301 125 1310 q 194 1274 175 1293 l 349 1110 l 299 1042 z "},"Ỉ":{"ha":538,"x_min":69,"x_max":468,"o":"m 468 881 q 415 872 438 879 q 381 841 393 865 q 369 760 369 817 l 369 228 q 368 156 369 190 q 364 103 367 121 q 420 106 386 106 q 468 107 454 107 l 468 0 l 69 0 l 69 92 q 123 100 101 93 q 156 132 144 107 q 168 213 168 157 l 168 744 q 170 817 168 782 q 174 869 172 851 q 118 867 151 868 q 69 865 85 867 l 69 972 l 468 972 l 468 881 m 239 1054 q 257 1099 239 1083 q 293 1133 275 1115 q 310 1157 303 1144 q 317 1188 317 1169 q 297 1231 317 1217 q 247 1246 276 1246 q 191 1232 208 1246 q 171 1208 174 1218 q 202 1197 192 1208 q 213 1171 213 1186 q 200 1142 213 1156 q 164 1128 188 1128 q 112 1149 132 1128 q 92 1199 92 1169 q 110 1260 92 1231 q 163 1310 128 1290 q 247 1329 199 1329 q 375 1294 329 1329 q 421 1200 421 1260 q 403 1142 421 1163 q 363 1108 385 1122 q 335 1081 346 1094 q 325 1054 325 1067 l 239 1054 z "},"Ī":{"ha":538,"x_min":69,"x_max":468,"o":"m 468 881 q 415 872 438 879 q 381 841 393 865 q 369 760 369 817 l 369 228 q 368 156 369 190 q 364 103 367 121 q 420 106 386 106 q 468 107 454 107 l 468 0 l 69 0 l 69 92 q 123 100 101 93 q 156 132 144 107 q 168 213 168 157 l 168 744 q 170 817 168 782 q 174 869 172 851 q 118 867 151 868 q 69 865 85 867 l 69 972 l 468 972 l 468 881 m 69 1149 l 69 1282 l 464 1282 l 464 1154 l 69 1149 z "},"Į":{"ha":538,"x_min":69,"x_max":485,"o":"m 468 881 q 415 872 438 879 q 381 841 393 865 q 369 760 369 817 l 369 228 q 368 156 369 190 q 364 103 367 121 q 420 106 386 106 q 468 107 454 107 l 468 0 l 69 0 l 69 92 q 123 100 101 93 q 156 132 144 107 q 168 213 168 157 l 168 744 q 170 817 168 782 q 174 869 172 851 q 118 867 151 868 q 69 865 85 867 l 69 972 l 468 972 l 468 881 m 301 -368 q 193 -332 235 -368 q 151 -225 151 -296 q 197 -103 151 -160 q 314 -3 242 -46 q 465 64 386 40 l 465 0 q 381 -47 422 -18 q 313 -111 339 -75 q 289 -186 288 -147 q 306 -226 290 -211 q 350 -242 322 -242 q 392 -231 369 -242 q 436 -201 414 -221 l 485 -261 q 400 -338 449 -308 q 301 -368 351 -368 z "},"Ĩ":{"ha":538,"x_min":18,"x_max":515,"o":"m 468 881 q 415 872 438 879 q 381 841 393 865 q 369 760 369 817 l 369 228 q 368 156 369 190 q 364 103 367 121 q 420 106 386 106 q 468 107 454 107 l 468 0 l 69 0 l 69 92 q 123 100 101 93 q 156 132 144 107 q 168 213 168 157 l 168 744 q 170 817 168 782 q 174 869 172 851 q 118 867 151 868 q 69 865 85 867 l 69 972 l 468 972 l 468 881 m 515 1283 q 439 1159 486 1197 q 350 1121 392 1121 q 285 1135 313 1121 q 234 1162 258 1149 q 182 1175 210 1175 q 141 1163 165 1175 q 96 1118 117 1151 l 18 1164 q 88 1267 42 1228 q 181 1307 133 1307 q 249 1294 224 1307 q 295 1267 274 1281 q 350 1254 317 1254 q 396 1273 374 1254 q 436 1324 418 1292 l 515 1283 z "},"J":{"ha":626,"x_min":1,"x_max":589,"o":"m 200 -22 q 101 -3 146 -22 q 28 50 56 17 q 1 126 1 83 q 26 206 1 171 q 97 242 50 240 q 173 216 150 244 q 197 151 196 188 q 195 126 199 140 q 185 100 192 113 q 206 82 192 86 q 228 78 221 78 q 273 103 257 78 q 289 188 289 129 l 289 744 q 290 817 289 782 q 294 869 292 851 q 239 867 272 868 q 190 865 206 867 l 190 972 l 589 972 l 589 881 q 536 872 558 879 q 502 841 514 865 q 490 760 490 817 l 490 353 q 415 65 490 153 q 200 -22 340 -22 z "},"Ĵ":{"ha":626,"x_min":1,"x_max":594,"o":"m 200 -22 q 101 -3 146 -22 q 28 50 56 17 q 1 126 1 83 q 26 206 1 171 q 97 242 50 240 q 173 216 150 244 q 197 151 196 188 q 195 126 199 140 q 185 100 192 113 q 206 82 192 86 q 228 78 221 78 q 273 103 257 78 q 289 188 289 129 l 289 744 q 290 817 289 782 q 294 869 292 851 q 239 867 272 868 q 190 865 206 867 l 190 972 l 589 972 l 589 881 q 536 872 558 879 q 502 841 514 865 q 490 760 490 817 l 490 353 q 415 65 490 153 q 200 -22 340 -22 m 550 1075 l 357 1196 l 158 1078 l 121 1140 l 350 1349 l 376 1349 l 594 1140 l 550 1075 z "},"K":{"ha":989,"x_min":69,"x_max":988,"o":"m 69 0 l 69 92 q 123 100 101 93 q 156 132 144 107 q 168 213 168 157 l 168 744 q 170 817 168 782 q 174 869 172 851 q 118 867 151 868 q 69 865 85 867 l 69 972 l 468 972 l 468 881 q 415 872 438 879 q 381 841 393 865 q 369 760 369 817 l 369 549 l 469 549 l 576 731 q 626 814 600 772 q 671 871 653 856 q 624 868 649 869 q 583 865 599 867 l 583 972 l 924 972 l 924 881 q 858 869 893 879 q 785 831 822 860 q 708 739 747 801 l 575 525 q 624 487 603 507 q 663 443 646 467 l 806 242 q 863 169 833 203 q 925 114 893 135 q 988 92 957 93 l 988 0 l 774 0 q 738 25 763 1 q 685 82 713 49 q 638 142 657 115 l 500 342 q 460 396 482 368 q 419 438 439 424 l 369 438 l 369 228 q 368 156 369 190 q 364 103 367 121 q 420 106 386 106 q 468 107 454 107 l 468 0 l 69 0 z "},"Ǩ":{"ha":989,"x_min":69,"x_max":988,"o":"m 69 0 l 69 92 q 123 100 101 93 q 156 132 144 107 q 168 213 168 157 l 168 744 q 170 817 168 782 q 174 869 172 851 q 118 867 151 868 q 69 865 85 867 l 69 972 l 468 972 l 468 881 q 415 872 438 879 q 381 841 393 865 q 369 760 369 817 l 369 549 l 469 549 l 576 731 q 626 814 600 772 q 671 871 653 856 q 624 868 649 869 q 583 865 599 867 l 583 972 l 924 972 l 924 881 q 858 869 893 879 q 785 831 822 860 q 708 739 747 801 l 575 525 q 624 487 603 507 q 663 443 646 467 l 806 242 q 863 169 833 203 q 925 114 893 135 q 988 92 957 93 l 988 0 l 774 0 q 738 25 763 1 q 685 82 713 49 q 638 142 657 115 l 500 342 q 460 396 482 368 q 419 438 439 424 l 369 438 l 369 228 q 368 156 369 190 q 364 103 367 121 q 420 106 386 106 q 468 107 454 107 l 468 0 l 69 0 m 496 1063 l 225 1271 l 268 1335 l 515 1214 l 769 1338 l 806 1275 l 522 1063 l 496 1063 z "},"Ķ":{"ha":989,"x_min":69,"x_max":988,"o":"m 69 0 l 69 92 q 123 100 101 93 q 156 132 144 107 q 168 213 168 157 l 168 744 q 170 817 168 782 q 174 869 172 851 q 118 867 151 868 q 69 865 85 867 l 69 972 l 468 972 l 468 881 q 415 872 438 879 q 381 841 393 865 q 369 760 369 817 l 369 549 l 469 549 l 576 731 q 626 814 600 772 q 671 871 653 856 q 624 868 649 869 q 583 865 599 867 l 583 972 l 924 972 l 924 881 q 858 869 893 879 q 785 831 822 860 q 708 739 747 801 l 575 525 q 624 487 603 507 q 663 443 646 467 l 806 242 q 863 169 833 203 q 925 114 893 135 q 988 92 957 93 l 988 0 l 774 0 q 738 25 763 1 q 685 82 713 49 q 638 142 657 115 l 500 342 q 460 396 482 368 q 419 438 439 424 l 369 438 l 369 228 q 368 156 369 190 q 364 103 367 121 q 420 106 386 106 q 468 107 454 107 l 468 0 l 69 0 m 522 -394 l 460 -346 q 506 -247 492 -292 q 519 -161 519 -203 q 506 -75 518 -119 l 631 -50 q 660 -150 660 -97 q 622 -274 660 -211 q 522 -394 583 -337 z "},"L":{"ha":839,"x_min":69,"x_max":818,"o":"m 69 0 l 69 92 q 123 100 101 93 q 156 132 144 107 q 168 213 168 157 l 168 744 q 170 817 168 782 q 174 869 172 851 q 118 867 151 868 q 69 865 85 867 l 69 972 l 468 972 l 468 881 q 415 872 438 879 q 381 841 393 865 q 369 760 369 817 l 369 228 q 368 157 369 190 q 364 106 367 124 l 550 106 q 678 163 632 106 q 725 333 725 219 l 818 333 l 810 0 l 69 0 z "},"Ĺ":{"ha":839,"x_min":69,"x_max":818,"o":"m 69 0 l 69 92 q 123 100 101 93 q 156 132 144 107 q 168 213 168 157 l 168 744 q 170 817 168 782 q 174 869 172 851 q 118 867 151 868 q 69 865 85 867 l 69 972 l 468 972 l 468 881 q 415 872 438 879 q 381 841 393 865 q 369 760 369 817 l 369 228 q 368 157 369 190 q 364 106 367 124 l 550 106 q 678 163 632 106 q 725 333 725 219 l 818 333 l 810 0 l 69 0 m 229 1042 l 179 1110 l 333 1274 q 378 1301 353 1293 q 427 1305 403 1310 q 468 1276 451 1300 q 482 1228 485 1253 q 464 1181 479 1203 q 426 1146 449 1160 l 229 1042 z "},"Ľ":{"ha":839,"x_min":69,"x_max":818,"o":"m 626 660 l 572 700 q 618 813 607 763 q 626 907 629 863 q 610 996 622 951 l 733 972 q 751 926 747 946 q 751 879 754 907 q 710 763 746 821 q 626 660 674 706 m 69 0 l 69 92 q 123 100 101 93 q 156 132 144 107 q 168 213 168 157 l 168 744 q 170 817 168 782 q 174 869 172 851 q 118 867 151 868 q 69 865 85 867 l 69 972 l 468 972 l 468 881 q 415 872 438 879 q 381 841 393 865 q 369 760 369 817 l 369 228 q 368 157 369 190 q 364 106 367 124 l 550 106 q 678 163 632 106 q 725 333 725 219 l 818 333 l 810 0 l 69 0 z "},"Ļ":{"ha":839,"x_min":69,"x_max":818,"o":"m 69 0 l 69 92 q 123 100 101 93 q 156 132 144 107 q 168 213 168 157 l 168 744 q 170 817 168 782 q 174 869 172 851 q 118 867 151 868 q 69 865 85 867 l 69 972 l 468 972 l 468 881 q 415 872 438 879 q 381 841 393 865 q 369 760 369 817 l 369 228 q 368 157 369 190 q 364 106 367 124 l 550 106 q 678 163 632 106 q 725 333 725 219 l 818 333 l 810 0 l 69 0 m 438 -394 l 375 -346 q 421 -247 407 -292 q 434 -161 435 -203 q 421 -75 433 -119 l 546 -50 q 575 -150 575 -97 q 537 -274 575 -211 q 438 -394 499 -337 z "},"Ŀ":{"ha":839,"x_min":69,"x_max":818,"o":"m 69 0 l 69 92 q 123 100 101 93 q 156 132 144 107 q 168 213 168 157 l 168 744 q 170 817 168 782 q 174 869 172 851 q 118 867 151 868 q 69 865 85 867 l 69 972 l 468 972 l 468 881 q 415 872 438 879 q 381 841 393 865 q 369 760 369 817 l 369 228 q 368 157 369 190 q 364 106 367 124 l 550 106 q 678 163 632 106 q 725 333 725 219 l 818 333 l 810 0 l 69 0 m 604 367 q 530 399 558 367 q 501 475 501 431 q 532 551 501 519 q 603 583 563 583 q 674 551 646 583 q 703 475 703 519 q 676 399 703 431 q 604 367 649 367 z "},"Ł":{"ha":840,"x_min":63,"x_max":818,"o":"m 63 246 l 63 406 l 606 808 l 606 651 l 63 246 m 69 0 l 69 92 q 123 100 101 93 q 156 132 144 107 q 168 213 168 157 l 168 744 q 170 817 168 782 q 174 869 172 851 q 118 867 151 868 q 69 865 85 867 l 69 972 l 468 972 l 468 881 q 415 872 438 879 q 381 841 393 865 q 369 760 369 817 l 369 228 q 368 157 369 190 q 364 106 367 124 l 550 106 q 678 163 632 106 q 725 333 725 219 l 818 333 l 810 0 l 69 0 z "},"M":{"ha":1350,"x_min":65,"x_max":1292,"o":"m 567 -14 q 473 215 519 101 q 379 443 426 329 q 351 517 368 469 q 315 628 333 565 q 281 757 296 690 q 285 610 283 679 q 285 479 286 542 q 285 417 285 449 q 284 353 285 385 q 283 291 283 322 q 283 228 283 260 q 281 156 283 190 q 276 103 279 121 q 334 106 300 106 q 382 107 368 107 l 382 0 l 65 0 l 65 92 q 119 100 97 93 q 152 132 140 107 q 164 213 164 157 l 172 744 q 175 817 174 782 q 178 869 176 851 q 122 867 156 868 q 74 865 89 867 l 74 972 l 381 972 l 590 435 q 618 360 603 403 q 647 278 633 318 q 668 215 661 239 l 669 215 q 703 310 688 264 q 735 399 718 356 q 842 686 789 543 q 950 972 896 829 l 1271 972 l 1271 881 q 1217 872 1240 879 q 1181 841 1193 865 q 1171 760 1169 817 l 1192 228 q 1192 156 1194 190 q 1186 103 1189 121 q 1244 106 1210 106 q 1292 107 1278 107 l 1292 0 l 906 0 l 906 92 q 960 100 938 93 q 995 132 983 107 q 1004 213 1007 157 l 993 507 q 990 565 993 524 q 985 655 988 606 q 982 747 983 704 q 974 728 978 738 q 967 710 969 719 l 696 -14 l 567 -14 z "},"N":{"ha":1074,"x_min":67,"x_max":1025,"o":"m 808 -14 l 364 554 q 326 604 346 578 q 288 658 307 631 l 286 658 l 289 228 q 288 156 289 190 q 283 103 286 121 q 340 106 306 106 q 388 107 374 107 l 388 0 l 71 0 l 71 92 q 124 100 103 93 q 158 132 146 107 q 169 213 169 157 l 167 744 q 168 817 167 782 q 172 869 169 851 q 116 867 150 868 q 67 865 82 867 l 67 972 l 285 972 l 710 436 q 767 360 744 392 q 807 304 790 328 l 808 304 l 808 744 q 810 817 808 782 q 813 869 811 851 q 757 867 790 868 q 708 865 724 867 l 708 972 l 1025 972 l 1025 881 q 972 872 994 879 q 938 841 950 865 q 926 760 926 817 l 926 -14 l 808 -14 z "},"Ń":{"ha":1074,"x_min":67,"x_max":1025,"o":"m 808 -14 l 364 554 q 326 604 346 578 q 288 658 307 631 l 286 658 l 289 228 q 288 156 289 190 q 283 103 286 121 q 340 106 306 106 q 388 107 374 107 l 388 0 l 71 0 l 71 92 q 124 100 103 93 q 158 132 146 107 q 169 213 169 157 l 167 744 q 168 817 167 782 q 172 869 169 851 q 116 867 150 868 q 67 865 82 867 l 67 972 l 285 972 l 710 436 q 767 360 744 392 q 807 304 790 328 l 808 304 l 808 744 q 810 817 808 782 q 813 869 811 851 q 757 867 790 868 q 708 865 724 867 l 708 972 l 1025 972 l 1025 881 q 972 872 994 879 q 938 841 950 865 q 926 760 926 817 l 926 -14 l 808 -14 m 482 1042 l 432 1110 l 586 1274 q 631 1301 606 1293 q 680 1305 656 1310 q 721 1276 704 1300 q 735 1228 738 1253 q 717 1181 732 1203 q 679 1146 701 1160 l 482 1042 z "},"Ň":{"ha":1074,"x_min":67,"x_max":1025,"o":"m 808 -14 l 364 554 q 326 604 346 578 q 288 658 307 631 l 286 658 l 289 228 q 288 156 289 190 q 283 103 286 121 q 340 106 306 106 q 388 107 374 107 l 388 0 l 71 0 l 71 92 q 124 100 103 93 q 158 132 146 107 q 169 213 169 157 l 167 744 q 168 817 167 782 q 172 869 169 851 q 116 867 150 868 q 67 865 82 867 l 67 972 l 285 972 l 710 436 q 767 360 744 392 q 807 304 790 328 l 808 304 l 808 744 q 810 817 808 782 q 813 869 811 851 q 757 867 790 868 q 708 865 724 867 l 708 972 l 1025 972 l 1025 881 q 972 872 994 879 q 938 841 950 865 q 926 760 926 817 l 926 -14 l 808 -14 m 518 1063 l 247 1271 l 290 1335 l 538 1214 l 792 1338 l 828 1275 l 544 1063 l 518 1063 z "},"Ņ":{"ha":1074,"x_min":67,"x_max":1025,"o":"m 808 -14 l 364 554 q 326 604 346 578 q 288 658 307 631 l 286 658 l 289 228 q 288 156 289 190 q 283 103 286 121 q 340 106 306 106 q 388 107 374 107 l 388 0 l 71 0 l 71 92 q 124 100 103 93 q 158 132 146 107 q 169 213 169 157 l 167 744 q 168 817 167 782 q 172 869 169 851 q 116 867 150 868 q 67 865 82 867 l 67 972 l 285 972 l 710 436 q 767 360 744 392 q 807 304 790 328 l 808 304 l 808 744 q 810 817 808 782 q 813 869 811 851 q 757 867 790 868 q 708 865 724 867 l 708 972 l 1025 972 l 1025 881 q 972 872 994 879 q 938 841 950 865 q 926 760 926 817 l 926 -14 l 808 -14 m 518 -394 l 456 -346 q 501 -247 488 -292 q 515 -161 515 -203 q 501 -75 514 -119 l 626 -50 q 656 -150 656 -97 q 617 -274 656 -211 q 518 -394 579 -337 z "},"Ñ":{"ha":1074,"x_min":67,"x_max":1025,"o":"m 808 -14 l 364 554 q 326 604 346 578 q 288 658 307 631 l 286 658 l 289 228 q 288 156 289 190 q 283 103 286 121 q 340 106 306 106 q 388 107 374 107 l 388 0 l 71 0 l 71 92 q 124 100 103 93 q 158 132 146 107 q 169 213 169 157 l 167 744 q 168 817 167 782 q 172 869 169 851 q 116 867 150 868 q 67 865 82 867 l 67 972 l 285 972 l 710 436 q 767 360 744 392 q 807 304 790 328 l 808 304 l 808 744 q 810 817 808 782 q 813 869 811 851 q 757 867 790 868 q 708 865 724 867 l 708 972 l 1025 972 l 1025 881 q 972 872 994 879 q 938 841 950 865 q 926 760 926 817 l 926 -14 l 808 -14 m 829 1281 q 772 1172 804 1210 q 707 1119 740 1133 q 644 1106 674 1106 q 587 1116 613 1106 q 538 1140 561 1126 q 492 1165 515 1154 q 439 1175 468 1175 q 381 1160 413 1175 q 322 1103 350 1144 l 244 1154 q 330 1267 276 1232 q 433 1303 383 1303 q 494 1292 468 1303 q 543 1269 521 1282 q 588 1245 565 1256 q 638 1235 611 1235 q 698 1260 665 1235 q 750 1325 731 1286 l 829 1281 z "},"Ŋ":{"ha":1074,"x_min":67,"x_max":1025,"o":"m 711 -376 q 597 -341 633 -376 q 560 -262 560 -306 q 583 -198 560 -226 q 647 -168 606 -169 q 708 -190 685 -167 q 732 -250 732 -214 q 731 -261 732 -256 q 729 -274 731 -267 q 753 -279 738 -279 q 775 -274 765 -279 q 790 -258 785 -268 q 805 -221 801 -243 q 808 -175 808 -199 l 808 151 l 926 151 l 926 3 q 865 -283 926 -190 q 711 -376 803 -376 m 808 -14 l 364 554 q 326 604 346 578 q 288 658 307 631 l 286 658 l 289 228 q 288 156 289 190 q 283 103 286 121 q 340 106 306 106 q 388 107 374 107 l 388 0 l 71 0 l 71 92 q 124 100 103 93 q 158 132 146 107 q 169 213 169 157 l 167 744 q 168 817 167 782 q 172 869 169 851 q 116 867 150 868 q 67 865 82 867 l 67 972 l 285 972 l 710 436 q 767 360 744 392 q 807 304 790 328 l 808 304 l 808 744 q 810 817 808 782 q 813 869 811 851 q 757 867 790 868 q 708 865 724 867 l 708 972 l 1025 972 l 1025 881 q 972 872 994 879 q 938 841 950 865 q 926 760 926 817 l 926 -14 l 808 -14 z "},"O":{"ha":1068,"x_min":49,"x_max":1019,"o":"m 532 -22 q 308 22 400 -22 q 158 141 215 67 q 75 306 101 215 q 49 486 49 396 q 78 663 49 574 q 169 828 108 753 q 321 949 229 903 q 536 994 413 994 q 754 949 663 994 q 904 827 846 903 q 991 663 963 751 q 1019 486 1019 574 q 990 311 1019 400 q 899 147 960 222 q 747 24 839 71 q 532 -22 656 -22 m 547 79 q 668 115 619 79 q 746 207 717 150 q 788 331 775 264 q 800 463 800 399 q 783 638 800 558 q 732 774 767 717 q 644 863 697 832 q 518 893 590 894 q 399 855 447 892 q 321 760 350 818 q 279 635 292 703 q 267 503 267 567 q 281 364 267 438 q 328 225 296 290 q 414 119 360 160 q 547 79 468 79 z "},"Ó":{"ha":1068,"x_min":49,"x_max":1019,"o":"m 532 -22 q 308 22 400 -22 q 158 141 215 67 q 75 306 101 215 q 49 486 49 396 q 78 663 49 574 q 169 828 108 753 q 321 949 229 903 q 536 994 413 994 q 754 949 663 994 q 904 827 846 903 q 991 663 963 751 q 1019 486 1019 574 q 990 311 1019 400 q 899 147 960 222 q 747 24 839 71 q 532 -22 656 -22 m 547 79 q 668 115 619 79 q 746 207 717 150 q 788 331 775 264 q 800 463 800 399 q 783 638 800 558 q 732 774 767 717 q 644 863 697 832 q 518 893 590 894 q 399 855 447 892 q 321 760 350 818 q 279 635 292 703 q 267 503 267 567 q 281 364 267 438 q 328 225 296 290 q 414 119 360 160 q 547 79 468 79 m 478 1042 l 428 1110 l 582 1274 q 626 1301 601 1293 q 676 1305 651 1310 q 717 1276 700 1300 q 731 1228 733 1253 q 713 1181 728 1203 q 675 1146 697 1160 l 478 1042 z "},"Ŏ":{"ha":1068,"x_min":49,"x_max":1019,"o":"m 532 -22 q 308 22 400 -22 q 158 141 215 67 q 75 306 101 215 q 49 486 49 396 q 78 663 49 574 q 169 828 108 753 q 321 949 229 903 q 536 994 413 994 q 754 949 663 994 q 904 827 846 903 q 991 663 963 751 q 1019 486 1019 574 q 990 311 1019 400 q 899 147 960 222 q 747 24 839 71 q 532 -22 656 -22 m 547 79 q 668 115 619 79 q 746 207 717 150 q 788 331 775 264 q 800 463 800 399 q 783 638 800 558 q 732 774 767 717 q 644 863 697 832 q 518 893 590 894 q 399 855 447 892 q 321 760 350 818 q 279 635 292 703 q 267 503 267 567 q 281 364 267 438 q 328 225 296 290 q 414 119 360 160 q 547 79 468 79 m 536 1086 q 445 1102 492 1086 q 360 1155 399 1118 q 299 1254 321 1192 l 357 1283 q 428 1231 386 1254 q 536 1207 471 1207 q 643 1231 601 1207 q 714 1283 685 1254 l 772 1254 q 711 1155 750 1192 q 626 1102 672 1118 q 536 1086 581 1086 z "},"Ô":{"ha":1068,"x_min":49,"x_max":1019,"o":"m 532 -22 q 308 22 400 -22 q 158 141 215 67 q 75 306 101 215 q 49 486 49 396 q 78 663 49 574 q 169 828 108 753 q 321 949 229 903 q 536 994 413 994 q 754 949 663 994 q 904 827 846 903 q 991 663 963 751 q 1019 486 1019 574 q 990 311 1019 400 q 899 147 960 222 q 747 24 839 71 q 532 -22 656 -22 m 547 79 q 668 115 619 79 q 746 207 717 150 q 788 331 775 264 q 800 463 800 399 q 783 638 800 558 q 732 774 767 717 q 644 863 697 832 q 518 893 590 894 q 399 855 447 892 q 321 760 350 818 q 279 635 292 703 q 267 503 267 567 q 281 364 267 438 q 328 225 296 290 q 414 119 360 160 q 547 79 468 79 m 728 1075 l 535 1196 l 336 1078 l 299 1140 l 528 1349 l 554 1349 l 772 1140 l 728 1075 z "},"Ố":{"ha":1068,"x_min":49,"x_max":1019,"o":"m 532 -22 q 308 22 400 -22 q 158 141 215 67 q 75 306 101 215 q 49 486 49 396 q 78 663 49 574 q 169 828 108 753 q 321 949 229 903 q 536 994 413 994 q 754 949 663 994 q 904 827 846 903 q 991 663 963 751 q 1019 486 1019 574 q 990 311 1019 400 q 899 147 960 222 q 747 24 839 71 q 532 -22 656 -22 m 547 79 q 668 115 619 79 q 746 207 717 150 q 788 331 775 264 q 800 463 800 399 q 783 638 800 558 q 732 774 767 717 q 644 863 697 832 q 518 893 590 894 q 399 855 447 892 q 321 760 350 818 q 279 635 292 703 q 267 503 267 567 q 281 364 267 438 q 328 225 296 290 q 414 119 360 160 q 547 79 468 79 m 694 1058 l 535 1158 l 371 1060 l 339 1111 l 529 1283 l 550 1283 l 731 1111 l 694 1058 m 776 1181 l 713 1238 l 826 1432 q 863 1469 840 1456 q 910 1483 885 1483 q 957 1465 935 1483 q 982 1419 979 1446 q 974 1369 985 1393 q 944 1328 964 1344 l 776 1181 z "},"Ộ":{"ha":1068,"x_min":49,"x_max":1019,"o":"m 532 -22 q 308 22 400 -22 q 158 141 215 67 q 75 306 101 215 q 49 486 49 396 q 78 663 49 574 q 169 828 108 753 q 321 949 229 903 q 536 994 413 994 q 754 949 663 994 q 904 827 846 903 q 991 663 963 751 q 1019 486 1019 574 q 990 311 1019 400 q 899 147 960 222 q 747 24 839 71 q 532 -22 656 -22 m 547 79 q 668 115 619 79 q 746 207 717 150 q 788 331 775 264 q 800 463 800 399 q 783 638 800 558 q 732 774 767 717 q 644 863 697 832 q 518 893 590 894 q 399 855 447 892 q 321 760 350 818 q 279 635 292 703 q 267 503 267 567 q 281 364 267 438 q 328 225 296 290 q 414 119 360 160 q 547 79 468 79 m 538 -265 q 475 -239 499 -265 q 451 -176 451 -212 q 476 -112 451 -139 q 536 -86 501 -86 q 595 -112 572 -86 q 618 -176 618 -139 q 596 -239 618 -212 q 538 -265 574 -265 m 728 1075 l 535 1196 l 336 1078 l 299 1140 l 528 1349 l 554 1349 l 772 1140 l 728 1075 z "},"Ồ":{"ha":1068,"x_min":49,"x_max":1019,"o":"m 532 -22 q 308 22 400 -22 q 158 141 215 67 q 75 306 101 215 q 49 486 49 396 q 78 663 49 574 q 169 828 108 753 q 321 949 229 903 q 536 994 413 994 q 754 949 663 994 q 904 827 846 903 q 991 663 963 751 q 1019 486 1019 574 q 990 311 1019 400 q 899 147 960 222 q 747 24 839 71 q 532 -22 656 -22 m 547 79 q 668 115 619 79 q 746 207 717 150 q 788 331 775 264 q 800 463 800 399 q 783 638 800 558 q 732 774 767 717 q 644 863 697 832 q 518 893 590 894 q 399 855 447 892 q 321 760 350 818 q 279 635 292 703 q 267 503 267 567 q 281 364 267 438 q 328 225 296 290 q 414 119 360 160 q 547 79 468 79 m 694 1058 l 535 1158 l 371 1060 l 339 1111 l 529 1283 l 550 1283 l 731 1111 l 694 1058 m 746 1240 l 578 1388 q 548 1428 558 1404 q 541 1479 538 1453 q 567 1525 544 1506 q 613 1543 589 1543 q 660 1529 638 1543 q 696 1492 682 1515 l 810 1297 l 746 1240 z "},"Ổ":{"ha":1068,"x_min":49,"x_max":1019,"o":"m 532 -22 q 308 22 400 -22 q 158 141 215 67 q 75 306 101 215 q 49 486 49 396 q 78 663 49 574 q 169 828 108 753 q 321 949 229 903 q 536 994 413 994 q 754 949 663 994 q 904 827 846 903 q 991 663 963 751 q 1019 486 1019 574 q 990 311 1019 400 q 899 147 960 222 q 747 24 839 71 q 532 -22 656 -22 m 547 79 q 668 115 619 79 q 746 207 717 150 q 788 331 775 264 q 800 463 800 399 q 783 638 800 558 q 732 774 767 717 q 644 863 697 832 q 518 893 590 894 q 399 855 447 892 q 321 760 350 818 q 279 635 292 703 q 267 503 267 567 q 281 364 267 438 q 328 225 296 290 q 414 119 360 160 q 547 79 468 79 m 694 1058 l 535 1158 l 371 1060 l 339 1111 l 529 1283 l 550 1283 l 731 1111 l 694 1058 m 706 1249 q 724 1294 706 1278 q 760 1328 743 1310 q 776 1351 769 1339 q 783 1382 783 1364 q 763 1426 783 1411 q 714 1440 743 1440 q 658 1426 675 1440 q 638 1403 640 1413 q 669 1392 658 1403 q 679 1365 679 1381 q 667 1336 679 1350 q 631 1322 654 1322 q 578 1343 599 1322 q 558 1393 558 1364 q 576 1455 558 1425 q 630 1504 594 1485 q 714 1524 665 1524 q 842 1489 796 1524 q 888 1394 888 1454 q 868 1338 888 1357 q 829 1303 849 1319 q 802 1275 813 1289 q 792 1249 792 1261 l 706 1249 z "},"Ỗ":{"ha":1068,"x_min":49,"x_max":1019,"o":"m 532 -22 q 308 22 400 -22 q 158 141 215 67 q 75 306 101 215 q 49 486 49 396 q 78 663 49 574 q 169 828 108 753 q 321 949 229 903 q 536 994 413 994 q 754 949 663 994 q 904 827 846 903 q 991 663 963 751 q 1019 486 1019 574 q 990 311 1019 400 q 899 147 960 222 q 747 24 839 71 q 532 -22 656 -22 m 547 79 q 668 115 619 79 q 746 207 717 150 q 788 331 775 264 q 800 463 800 399 q 783 638 800 558 q 732 774 767 717 q 644 863 697 832 q 518 893 590 894 q 399 855 447 892 q 321 760 350 818 q 279 635 292 703 q 267 503 267 567 q 281 364 267 438 q 328 225 296 290 q 414 119 360 160 q 547 79 468 79 m 694 1058 l 535 1158 l 371 1060 l 339 1111 l 529 1283 l 550 1283 l 731 1111 l 694 1058 m 808 1489 q 732 1365 779 1403 q 643 1326 685 1326 q 578 1340 606 1326 q 527 1367 551 1354 q 475 1381 503 1381 q 434 1369 458 1381 q 389 1324 410 1357 l 311 1369 q 381 1473 335 1433 q 474 1513 426 1513 q 542 1499 517 1513 q 588 1473 567 1486 q 643 1460 610 1460 q 689 1478 667 1460 q 729 1529 711 1497 l 808 1489 z "},"Ö":{"ha":1068,"x_min":49,"x_max":1019,"o":"m 532 -22 q 308 22 400 -22 q 158 141 215 67 q 75 306 101 215 q 49 486 49 396 q 78 663 49 574 q 169 828 108 753 q 321 949 229 903 q 536 994 413 994 q 754 949 663 994 q 904 827 846 903 q 991 663 963 751 q 1019 486 1019 574 q 990 311 1019 400 q 899 147 960 222 q 747 24 839 71 q 532 -22 656 -22 m 547 79 q 668 115 619 79 q 746 207 717 150 q 788 331 775 264 q 800 463 800 399 q 783 638 800 558 q 732 774 767 717 q 644 863 697 832 q 518 893 590 894 q 399 855 447 892 q 321 760 350 818 q 279 635 292 703 q 267 503 267 567 q 281 364 267 438 q 328 225 296 290 q 414 119 360 160 q 547 79 468 79 m 413 1107 q 347 1138 375 1107 q 319 1211 319 1168 q 348 1287 319 1256 q 414 1318 376 1318 q 479 1287 453 1318 q 506 1211 506 1256 q 478 1138 506 1168 q 413 1107 450 1107 m 654 1107 q 590 1138 618 1107 q 563 1211 563 1168 q 591 1287 563 1256 q 656 1318 619 1318 q 722 1287 696 1318 q 747 1211 747 1256 q 719 1138 747 1168 q 654 1107 692 1107 z "},"Ọ":{"ha":1068,"x_min":49,"x_max":1019,"o":"m 532 -22 q 308 22 400 -22 q 158 141 215 67 q 75 306 101 215 q 49 486 49 396 q 78 663 49 574 q 169 828 108 753 q 321 949 229 903 q 536 994 413 994 q 754 949 663 994 q 904 827 846 903 q 991 663 963 751 q 1019 486 1019 574 q 990 311 1019 400 q 899 147 960 222 q 747 24 839 71 q 532 -22 656 -22 m 547 79 q 668 115 619 79 q 746 207 717 150 q 788 331 775 264 q 800 463 800 399 q 783 638 800 558 q 732 774 767 717 q 644 863 697 832 q 518 893 590 894 q 399 855 447 892 q 321 760 350 818 q 279 635 292 703 q 267 503 267 567 q 281 364 267 438 q 328 225 296 290 q 414 119 360 160 q 547 79 468 79 m 538 -265 q 475 -239 499 -265 q 451 -176 451 -212 q 476 -112 451 -139 q 536 -86 501 -86 q 595 -112 572 -86 q 618 -176 618 -139 q 596 -239 618 -212 q 538 -265 574 -265 z "},"Ò":{"ha":1068,"x_min":49,"x_max":1019,"o":"m 532 -22 q 308 22 400 -22 q 158 141 215 67 q 75 306 101 215 q 49 486 49 396 q 78 663 49 574 q 169 828 108 753 q 321 949 229 903 q 536 994 413 994 q 754 949 663 994 q 904 827 846 903 q 991 663 963 751 q 1019 486 1019 574 q 990 311 1019 400 q 899 147 960 222 q 747 24 839 71 q 532 -22 656 -22 m 547 79 q 668 115 619 79 q 746 207 717 150 q 788 331 775 264 q 800 463 800 399 q 783 638 800 558 q 732 774 767 717 q 644 863 697 832 q 518 893 590 894 q 399 855 447 892 q 321 760 350 818 q 279 635 292 703 q 267 503 267 567 q 281 364 267 438 q 328 225 296 290 q 414 119 360 160 q 547 79 468 79 m 565 1042 l 368 1146 q 332 1181 347 1160 q 314 1228 317 1203 q 326 1276 311 1253 q 368 1305 344 1300 q 417 1301 392 1310 q 461 1274 442 1293 l 615 1110 l 565 1042 z "},"Ỏ":{"ha":1068,"x_min":49,"x_max":1019,"o":"m 532 -22 q 308 22 400 -22 q 158 141 215 67 q 75 306 101 215 q 49 486 49 396 q 78 663 49 574 q 169 828 108 753 q 321 949 229 903 q 536 994 413 994 q 754 949 663 994 q 904 827 846 903 q 991 663 963 751 q 1019 486 1019 574 q 990 311 1019 400 q 899 147 960 222 q 747 24 839 71 q 532 -22 656 -22 m 547 79 q 668 115 619 79 q 746 207 717 150 q 788 331 775 264 q 800 463 800 399 q 783 638 800 558 q 732 774 767 717 q 644 863 697 832 q 518 893 590 894 q 399 855 447 892 q 321 760 350 818 q 279 635 292 703 q 267 503 267 567 q 281 364 267 438 q 328 225 296 290 q 414 119 360 160 q 547 79 468 79 m 506 1054 q 524 1099 506 1083 q 560 1133 542 1115 q 576 1157 569 1144 q 583 1188 583 1169 q 563 1231 583 1217 q 514 1246 543 1246 q 458 1232 475 1246 q 438 1208 440 1218 q 469 1197 458 1208 q 479 1171 479 1186 q 467 1142 479 1156 q 431 1128 454 1128 q 378 1149 399 1128 q 358 1199 358 1169 q 376 1260 358 1231 q 430 1310 394 1290 q 514 1329 465 1329 q 642 1294 596 1329 q 688 1200 688 1260 q 669 1142 688 1163 q 629 1108 651 1122 q 602 1081 613 1094 q 592 1054 592 1067 l 506 1054 z "},"Ơ":{"ha":1068,"x_min":49,"x_max":1019,"o":"m 532 -22 q 308 22 400 -22 q 158 141 215 67 q 75 306 101 215 q 49 486 49 396 q 78 663 49 574 q 169 828 108 753 q 321 949 229 903 q 536 994 413 994 q 754 949 663 994 q 904 827 846 903 q 991 663 963 751 q 1019 486 1019 574 q 990 311 1019 400 q 899 147 960 222 q 747 24 839 71 q 532 -22 656 -22 m 547 79 q 668 115 619 79 q 746 207 717 150 q 788 331 775 264 q 800 463 800 399 q 783 638 800 558 q 732 774 767 717 q 644 863 697 832 q 518 893 590 894 q 399 855 447 892 q 321 760 350 818 q 279 635 292 703 q 267 503 267 567 q 281 364 267 438 q 328 225 296 290 q 414 119 360 160 q 547 79 468 79 m 697 878 l 697 968 q 780 1004 750 968 q 810 1079 810 1040 l 961 1079 q 928 970 961 1015 q 837 901 896 925 q 697 878 778 878 z "},"Ớ":{"ha":1068,"x_min":49,"x_max":1019,"o":"m 532 -22 q 308 22 400 -22 q 158 141 215 67 q 75 306 101 215 q 49 486 49 396 q 78 663 49 574 q 169 828 108 753 q 321 949 229 903 q 536 994 413 994 q 754 949 663 994 q 904 827 846 903 q 991 663 963 751 q 1019 486 1019 574 q 990 311 1019 400 q 899 147 960 222 q 747 24 839 71 q 532 -22 656 -22 m 547 79 q 668 115 619 79 q 746 207 717 150 q 788 331 775 264 q 800 463 800 399 q 783 638 800 558 q 732 774 767 717 q 644 863 697 832 q 518 893 590 894 q 399 855 447 892 q 321 760 350 818 q 279 635 292 703 q 267 503 267 567 q 281 364 267 438 q 328 225 296 290 q 414 119 360 160 q 547 79 468 79 m 697 878 l 697 968 q 780 1004 750 968 q 810 1079 810 1040 l 961 1079 q 928 970 961 1015 q 837 901 896 925 q 697 878 778 878 m 463 1063 l 399 1119 l 513 1314 q 549 1351 528 1338 q 596 1365 571 1364 q 643 1347 621 1365 q 668 1302 665 1328 q 660 1252 671 1276 q 631 1210 650 1228 l 463 1063 z "},"Ợ":{"ha":1068,"x_min":49,"x_max":1019,"o":"m 532 -22 q 308 22 400 -22 q 158 141 215 67 q 75 306 101 215 q 49 486 49 396 q 78 663 49 574 q 169 828 108 753 q 321 949 229 903 q 536 994 413 994 q 754 949 663 994 q 904 827 846 903 q 991 663 963 751 q 1019 486 1019 574 q 990 311 1019 400 q 899 147 960 222 q 747 24 839 71 q 532 -22 656 -22 m 547 79 q 668 115 619 79 q 746 207 717 150 q 788 331 775 264 q 800 463 800 399 q 783 638 800 558 q 732 774 767 717 q 644 863 697 832 q 518 893 590 894 q 399 855 447 892 q 321 760 350 818 q 279 635 292 703 q 267 503 267 567 q 281 364 267 438 q 328 225 296 290 q 414 119 360 160 q 547 79 468 79 m 697 878 l 697 968 q 780 1004 750 968 q 810 1079 810 1040 l 961 1079 q 928 970 961 1015 q 837 901 896 925 q 697 878 778 878 m 538 -265 q 475 -239 499 -265 q 451 -176 451 -212 q 476 -112 451 -139 q 536 -86 501 -86 q 595 -112 572 -86 q 618 -176 618 -139 q 596 -239 618 -212 q 538 -265 574 -265 z "},"Ờ":{"ha":1068,"x_min":49,"x_max":1019,"o":"m 532 -22 q 308 22 400 -22 q 158 141 215 67 q 75 306 101 215 q 49 486 49 396 q 78 663 49 574 q 169 828 108 753 q 321 949 229 903 q 536 994 413 994 q 754 949 663 994 q 904 827 846 903 q 991 663 963 751 q 1019 486 1019 574 q 990 311 1019 400 q 899 147 960 222 q 747 24 839 71 q 532 -22 656 -22 m 547 79 q 668 115 619 79 q 746 207 717 150 q 788 331 775 264 q 800 463 800 399 q 783 638 800 558 q 732 774 767 717 q 644 863 697 832 q 518 893 590 894 q 399 855 447 892 q 321 760 350 818 q 279 635 292 703 q 267 503 267 567 q 281 364 267 438 q 328 225 296 290 q 414 119 360 160 q 547 79 468 79 m 697 878 l 697 968 q 780 1004 750 968 q 810 1079 810 1040 l 961 1079 q 928 970 961 1015 q 837 901 896 925 q 697 878 778 878 m 604 1063 l 436 1210 q 407 1252 418 1228 q 399 1302 396 1276 q 425 1347 403 1328 q 472 1365 447 1365 q 518 1351 496 1364 q 554 1314 540 1338 l 668 1119 l 604 1063 z "},"Ở":{"ha":1068,"x_min":49,"x_max":1019,"o":"m 532 -22 q 308 22 400 -22 q 158 141 215 67 q 75 306 101 215 q 49 486 49 396 q 78 663 49 574 q 169 828 108 753 q 321 949 229 903 q 536 994 413 994 q 754 949 663 994 q 904 827 846 903 q 991 663 963 751 q 1019 486 1019 574 q 990 311 1019 400 q 899 147 960 222 q 747 24 839 71 q 532 -22 656 -22 m 547 79 q 668 115 619 79 q 746 207 717 150 q 788 331 775 264 q 800 463 800 399 q 783 638 800 558 q 732 774 767 717 q 644 863 697 832 q 518 893 590 894 q 399 855 447 892 q 321 760 350 818 q 279 635 292 703 q 267 503 267 567 q 281 364 267 438 q 328 225 296 290 q 414 119 360 160 q 547 79 468 79 m 697 878 l 697 968 q 780 1004 750 968 q 810 1079 810 1040 l 961 1079 q 928 970 961 1015 q 837 901 896 925 q 697 878 778 878 m 506 1054 q 524 1099 506 1083 q 560 1133 542 1115 q 576 1157 569 1144 q 583 1188 583 1169 q 563 1231 583 1217 q 514 1246 543 1246 q 458 1232 475 1246 q 438 1208 440 1218 q 469 1197 458 1208 q 479 1171 479 1186 q 467 1142 479 1156 q 431 1128 454 1128 q 378 1149 399 1128 q 358 1199 358 1169 q 376 1260 358 1231 q 430 1310 394 1290 q 514 1329 465 1329 q 642 1294 596 1329 q 688 1200 688 1260 q 669 1142 688 1163 q 629 1108 651 1122 q 602 1081 613 1094 q 592 1054 592 1067 l 506 1054 z "},"Ỡ":{"ha":1068,"x_min":49,"x_max":1019,"o":"m 532 -22 q 308 22 400 -22 q 158 141 215 67 q 75 306 101 215 q 49 486 49 396 q 78 663 49 574 q 169 828 108 753 q 321 949 229 903 q 536 994 413 994 q 754 949 663 994 q 904 827 846 903 q 991 663 963 751 q 1019 486 1019 574 q 990 311 1019 400 q 899 147 960 222 q 747 24 839 71 q 532 -22 656 -22 m 547 79 q 668 115 619 79 q 746 207 717 150 q 788 331 775 264 q 800 463 800 399 q 783 638 800 558 q 732 774 767 717 q 644 863 697 832 q 518 893 590 894 q 399 855 447 892 q 321 760 350 818 q 279 635 292 703 q 267 503 267 567 q 281 364 267 438 q 328 225 296 290 q 414 119 360 160 q 547 79 468 79 m 697 878 l 697 968 q 780 1004 750 968 q 810 1079 810 1040 l 961 1079 q 928 970 961 1015 q 837 901 896 925 q 697 878 778 878 m 782 1283 q 706 1159 753 1197 q 617 1121 658 1121 q 552 1135 579 1121 q 501 1162 525 1149 q 449 1175 476 1175 q 408 1163 432 1175 q 363 1118 383 1151 l 285 1164 q 354 1267 308 1228 q 447 1307 400 1307 q 515 1294 490 1307 q 562 1267 540 1281 q 617 1254 583 1254 q 663 1273 640 1254 q 703 1324 685 1292 l 782 1283 z "},"Ő":{"ha":1068,"x_min":49,"x_max":1019,"o":"m 532 -22 q 308 22 400 -22 q 158 141 215 67 q 75 306 101 215 q 49 486 49 396 q 78 663 49 574 q 169 828 108 753 q 321 949 229 903 q 536 994 413 994 q 754 949 663 994 q 904 827 846 903 q 991 663 963 751 q 1019 486 1019 574 q 990 311 1019 400 q 899 147 960 222 q 747 24 839 71 q 532 -22 656 -22 m 547 79 q 668 115 619 79 q 746 207 717 150 q 788 331 775 264 q 800 463 800 399 q 783 638 800 558 q 732 774 767 717 q 644 863 697 832 q 518 893 590 894 q 399 855 447 892 q 321 760 350 818 q 279 635 292 703 q 267 503 267 567 q 281 364 267 438 q 328 225 296 290 q 414 119 360 160 q 547 79 468 79 m 638 1036 l 593 1107 l 750 1249 q 832 1291 789 1283 q 896 1264 875 1299 q 903 1219 911 1242 q 876 1176 896 1196 q 833 1143 857 1157 l 638 1036 m 435 1038 l 372 1094 l 490 1268 q 554 1324 517 1306 q 621 1318 592 1342 q 642 1276 642 1300 q 629 1228 642 1251 q 597 1186 617 1204 l 435 1038 z "},"Ō":{"ha":1068,"x_min":49,"x_max":1019,"o":"m 532 -22 q 308 22 400 -22 q 158 141 215 67 q 75 306 101 215 q 49 486 49 396 q 78 663 49 574 q 169 828 108 753 q 321 949 229 903 q 536 994 413 994 q 754 949 663 994 q 904 827 846 903 q 991 663 963 751 q 1019 486 1019 574 q 990 311 1019 400 q 899 147 960 222 q 747 24 839 71 q 532 -22 656 -22 m 547 79 q 668 115 619 79 q 746 207 717 150 q 788 331 775 264 q 800 463 800 399 q 783 638 800 558 q 732 774 767 717 q 644 863 697 832 q 518 893 590 894 q 399 855 447 892 q 321 760 350 818 q 279 635 292 703 q 267 503 267 567 q 281 364 267 438 q 328 225 296 290 q 414 119 360 160 q 547 79 468 79 m 336 1149 l 336 1282 l 731 1282 l 731 1154 l 336 1149 z "},"Ø":{"ha":1068,"x_min":49,"x_max":1019,"o":"m 826 1092 l 938 1024 l 256 -137 l 151 -68 l 826 1092 m 532 -22 q 308 22 400 -22 q 158 141 215 67 q 75 306 101 215 q 49 486 49 396 q 78 663 49 574 q 169 828 108 753 q 321 949 229 903 q 536 994 413 994 q 754 949 663 994 q 904 827 846 903 q 991 663 963 751 q 1019 486 1019 574 q 990 311 1019 400 q 899 147 960 222 q 747 24 839 71 q 532 -22 656 -22 m 547 79 q 668 115 619 79 q 746 207 717 150 q 788 331 775 264 q 800 463 800 399 q 783 638 800 558 q 732 774 767 717 q 644 863 697 832 q 518 893 590 894 q 399 855 447 892 q 321 760 350 818 q 279 635 292 703 q 267 503 267 567 q 281 364 267 438 q 328 225 296 290 q 414 119 360 160 q 547 79 468 79 z "},"Ǿ":{"ha":1068,"x_min":49,"x_max":1019,"o":"m 826 1092 l 938 1024 l 256 -137 l 151 -68 l 826 1092 m 532 -22 q 308 22 400 -22 q 158 141 215 67 q 75 306 101 215 q 49 486 49 396 q 78 663 49 574 q 169 828 108 753 q 321 949 229 903 q 536 994 413 994 q 754 949 663 994 q 904 827 846 903 q 991 663 963 751 q 1019 486 1019 574 q 990 311 1019 400 q 899 147 960 222 q 747 24 839 71 q 532 -22 656 -22 m 547 79 q 668 115 619 79 q 746 207 717 150 q 788 331 775 264 q 800 463 800 399 q 783 638 800 558 q 732 774 767 717 q 644 863 697 832 q 518 893 590 894 q 399 855 447 892 q 321 760 350 818 q 279 635 292 703 q 267 503 267 567 q 281 364 267 438 q 328 225 296 290 q 414 119 360 160 q 547 79 468 79 m 478 1042 l 428 1110 l 582 1274 q 626 1301 601 1293 q 676 1305 651 1310 q 717 1276 700 1300 q 731 1228 733 1253 q 713 1181 728 1203 q 675 1146 697 1160 l 478 1042 z "},"Õ":{"ha":1068,"x_min":49,"x_max":1019,"o":"m 532 -22 q 308 22 400 -22 q 158 141 215 67 q 75 306 101 215 q 49 486 49 396 q 78 663 49 574 q 169 828 108 753 q 321 949 229 903 q 536 994 413 994 q 754 949 663 994 q 904 827 846 903 q 991 663 963 751 q 1019 486 1019 574 q 990 311 1019 400 q 899 147 960 222 q 747 24 839 71 q 532 -22 656 -22 m 547 79 q 668 115 619 79 q 746 207 717 150 q 788 331 775 264 q 800 463 800 399 q 783 638 800 558 q 732 774 767 717 q 644 863 697 832 q 518 893 590 894 q 399 855 447 892 q 321 760 350 818 q 279 635 292 703 q 267 503 267 567 q 281 364 267 438 q 328 225 296 290 q 414 119 360 160 q 547 79 468 79 m 825 1281 q 768 1172 800 1210 q 703 1119 736 1133 q 640 1106 669 1106 q 583 1116 608 1106 q 534 1140 557 1126 q 488 1165 511 1154 q 435 1175 464 1175 q 377 1160 408 1175 q 318 1103 346 1144 l 240 1154 q 326 1267 272 1232 q 429 1303 379 1303 q 490 1292 464 1303 q 539 1269 517 1282 q 584 1245 561 1256 q 633 1235 607 1235 q 694 1260 661 1235 q 746 1325 726 1286 l 825 1281 z "},"Œ":{"ha":1428,"x_min":50,"x_max":1371,"o":"m 1103 335 q 1085 419 1103 393 q 1035 451 1067 444 q 967 457 1004 458 l 929 456 l 929 228 q 928 157 929 190 q 925 106 928 124 l 1111 106 q 1191 124 1153 106 q 1254 187 1229 143 q 1279 306 1279 231 l 1371 306 l 1363 0 l 729 0 q 625 -19 679 -14 q 525 -22 571 -24 q 275 46 382 -19 q 109 221 168 111 q 50 468 50 331 q 78 657 50 564 q 167 826 107 750 q 322 949 228 903 q 550 994 417 994 q 638 989 589 994 q 729 972 686 983 l 1325 972 l 1333 703 l 1242 703 q 1215 818 1242 779 q 1150 870 1189 857 q 1072 882 1111 883 l 1022 881 q 972 873 993 881 q 940 840 951 865 q 929 760 929 814 l 929 551 l 1093 551 q 1090 613 1092 581 q 1088 672 1089 646 l 1194 672 l 1194 335 l 1103 335 m 729 849 q 647 883 693 872 q 549 894 600 894 q 423 861 476 894 q 335 772 369 828 q 285 646 301 717 q 268 500 268 575 q 302 291 268 381 q 401 149 336 201 q 560 90 467 97 q 729 114 657 83 l 729 849 z "},"P":{"ha":888,"x_min":69,"x_max":867,"o":"m 69 92 q 123 100 101 93 q 156 132 144 107 q 168 213 168 157 l 168 744 q 170 817 168 782 q 174 869 172 851 q 118 867 151 868 q 69 865 85 867 l 69 972 q 267 974 168 974 q 464 975 365 974 q 677 943 586 976 q 817 840 768 910 q 864 660 867 771 q 838 551 863 604 q 764 453 813 497 q 642 382 715 410 q 469 351 568 354 q 416 350 439 350 q 369 351 393 350 l 369 229 q 368 156 369 190 q 364 103 367 121 q 403 105 379 104 q 449 106 426 106 q 482 107 472 107 l 482 0 l 69 0 l 69 92 m 369 456 q 400 453 385 454 q 432 451 415 451 q 556 477 508 451 q 626 552 604 503 q 649 672 649 601 q 630 783 649 742 q 582 845 611 825 q 521 872 553 865 q 463 878 489 878 q 413 871 433 878 q 381 840 392 864 q 369 768 369 817 l 369 456 z "},"Þ":{"ha":879,"x_min":69,"x_max":860,"o":"m 69 0 l 69 92 q 123 100 101 93 q 156 132 144 107 q 168 213 168 157 l 168 744 q 170 817 168 782 q 174 869 172 851 q 118 867 151 868 q 69 865 85 867 l 69 972 l 468 972 l 468 881 q 401 866 426 879 q 371 792 375 853 l 454 793 q 668 767 576 794 q 810 674 760 739 q 857 499 860 610 q 830 392 856 443 q 755 302 804 342 q 632 238 706 263 q 460 211 558 214 q 410 209 431 210 q 369 210 390 208 q 367 147 368 176 q 364 103 367 118 q 420 106 386 106 q 468 107 454 107 l 468 0 l 69 0 m 421 310 q 589 360 536 310 q 642 511 642 410 q 621 615 642 578 q 569 669 600 653 q 506 690 538 686 q 451 694 474 694 q 406 694 426 694 q 369 694 386 694 l 369 313 q 394 310 381 311 q 421 310 407 310 z "},"Q":{"ha":1069,"x_min":50,"x_max":1103,"o":"m 1043 -303 q 941 -298 979 -303 q 873 -277 903 -293 q 804 -228 843 -261 q 703 -128 746 -175 q 619 -52 661 -82 q 519 -22 578 -22 q 302 23 392 -22 q 157 142 213 68 q 76 307 101 217 q 50 486 50 397 q 80 663 50 574 q 170 828 110 753 q 322 949 231 903 q 538 994 414 994 q 756 949 664 994 q 906 827 847 903 q 992 663 964 751 q 1019 486 1019 574 q 1000 345 1019 417 q 942 208 981 274 q 844 90 903 142 q 707 7 785 38 q 778 1 747 7 q 840 -20 810 -4 q 907 -71 871 -36 q 984 -143 956 -115 q 1031 -185 1013 -171 q 1065 -205 1049 -200 q 1103 -210 1081 -210 l 1103 -303 l 1043 -303 m 547 79 q 668 115 619 79 q 746 207 717 150 q 788 331 775 264 q 801 463 801 399 q 785 638 801 558 q 733 774 768 717 q 645 863 699 832 q 519 893 592 894 q 399 855 447 892 q 322 760 350 818 q 281 635 293 703 q 268 503 268 567 q 283 364 268 438 q 329 225 297 290 q 415 119 361 160 q 547 79 468 79 z "},"R":{"ha":953,"x_min":69,"x_max":933,"o":"m 69 0 l 69 92 q 123 100 101 93 q 156 132 144 107 q 168 213 168 157 l 168 744 q 170 817 168 782 q 174 869 172 851 q 118 867 151 868 q 69 865 85 867 l 69 972 q 267 974 168 974 q 464 975 365 974 q 676 947 586 976 q 815 853 767 918 q 861 676 864 788 q 833 565 860 618 q 752 472 806 513 q 617 408 699 432 q 669 372 643 397 q 713 319 694 347 l 778 222 q 832 147 808 175 q 879 106 856 119 q 933 92 903 93 l 933 0 l 704 0 q 655 52 679 18 q 603 131 631 86 l 500 297 q 469 344 482 325 q 442 378 456 364 q 404 378 419 378 q 369 378 389 378 l 369 229 q 368 156 369 190 q 364 103 367 121 q 403 105 379 104 q 449 106 426 106 q 482 107 472 107 l 482 0 l 69 0 m 436 478 q 561 501 514 478 q 630 570 608 524 q 651 688 651 617 q 631 792 651 754 q 578 849 610 831 q 515 873 547 868 q 463 878 483 878 q 413 871 433 878 q 381 840 392 864 q 369 768 369 817 l 369 483 q 401 480 385 482 q 436 478 418 478 z "},"Ŕ":{"ha":953,"x_min":69,"x_max":933,"o":"m 69 0 l 69 92 q 123 100 101 93 q 156 132 144 107 q 168 213 168 157 l 168 744 q 170 817 168 782 q 174 869 172 851 q 118 867 151 868 q 69 865 85 867 l 69 972 q 267 974 168 974 q 464 975 365 974 q 676 947 586 976 q 815 853 767 918 q 861 676 864 788 q 833 565 860 618 q 752 472 806 513 q 617 408 699 432 q 669 372 643 397 q 713 319 694 347 l 778 222 q 832 147 808 175 q 879 106 856 119 q 933 92 903 93 l 933 0 l 704 0 q 655 52 679 18 q 603 131 631 86 l 500 297 q 469 344 482 325 q 442 378 456 364 q 404 378 419 378 q 369 378 389 378 l 369 229 q 368 156 369 190 q 364 103 367 121 q 403 105 379 104 q 449 106 426 106 q 482 107 472 107 l 482 0 l 69 0 m 436 478 q 561 501 514 478 q 630 570 608 524 q 651 688 651 617 q 631 792 651 754 q 578 849 610 831 q 515 873 547 868 q 463 878 483 878 q 413 871 433 878 q 381 840 392 864 q 369 768 369 817 l 369 483 q 401 480 385 482 q 436 478 418 478 m 421 1042 l 371 1110 l 525 1274 q 569 1301 544 1293 q 619 1305 594 1310 q 660 1276 643 1300 q 674 1228 676 1253 q 656 1181 671 1203 q 618 1146 640 1160 l 421 1042 z "},"Ř":{"ha":953,"x_min":69,"x_max":933,"o":"m 69 0 l 69 92 q 123 100 101 93 q 156 132 144 107 q 168 213 168 157 l 168 744 q 170 817 168 782 q 174 869 172 851 q 118 867 151 868 q 69 865 85 867 l 69 972 q 267 974 168 974 q 464 975 365 974 q 676 947 586 976 q 815 853 767 918 q 861 676 864 788 q 833 565 860 618 q 752 472 806 513 q 617 408 699 432 q 669 372 643 397 q 713 319 694 347 l 778 222 q 832 147 808 175 q 879 106 856 119 q 933 92 903 93 l 933 0 l 704 0 q 655 52 679 18 q 603 131 631 86 l 500 297 q 469 344 482 325 q 442 378 456 364 q 404 378 419 378 q 369 378 389 378 l 369 229 q 368 156 369 190 q 364 103 367 121 q 403 105 379 104 q 449 106 426 106 q 482 107 472 107 l 482 0 l 69 0 m 436 478 q 561 501 514 478 q 630 570 608 524 q 651 688 651 617 q 631 792 651 754 q 578 849 610 831 q 515 873 547 868 q 463 878 483 878 q 413 871 433 878 q 381 840 392 864 q 369 768 369 817 l 369 483 q 401 480 385 482 q 436 478 418 478 m 457 1063 l 186 1271 l 229 1335 l 476 1214 l 731 1338 l 767 1275 l 483 1063 l 457 1063 z "},"Ŗ":{"ha":953,"x_min":69,"x_max":933,"o":"m 69 0 l 69 92 q 123 100 101 93 q 156 132 144 107 q 168 213 168 157 l 168 744 q 170 817 168 782 q 174 869 172 851 q 118 867 151 868 q 69 865 85 867 l 69 972 q 267 974 168 974 q 464 975 365 974 q 676 947 586 976 q 815 853 767 918 q 861 676 864 788 q 833 565 860 618 q 752 472 806 513 q 617 408 699 432 q 669 372 643 397 q 713 319 694 347 l 778 222 q 832 147 808 175 q 879 106 856 119 q 933 92 903 93 l 933 0 l 704 0 q 655 52 679 18 q 603 131 631 86 l 500 297 q 469 344 482 325 q 442 378 456 364 q 404 378 419 378 q 369 378 389 378 l 369 229 q 368 156 369 190 q 364 103 367 121 q 403 105 379 104 q 449 106 426 106 q 482 107 472 107 l 482 0 l 69 0 m 436 478 q 561 501 514 478 q 630 570 608 524 q 651 688 651 617 q 631 792 651 754 q 578 849 610 831 q 515 873 547 868 q 463 878 483 878 q 413 871 433 878 q 381 840 392 864 q 369 768 369 817 l 369 483 q 401 480 385 482 q 436 478 418 478 m 488 -394 l 425 -346 q 471 -247 457 -292 q 484 -161 485 -203 q 471 -75 483 -119 l 596 -50 q 625 -150 625 -97 q 587 -274 625 -211 q 488 -394 549 -337 z "},"S":{"ha":831,"x_min":60,"x_max":782,"o":"m 631 661 q 586 791 618 739 q 505 869 554 843 q 390 894 456 896 q 285 861 331 894 q 240 775 240 828 q 265 700 240 732 q 339 640 289 668 q 465 581 389 613 q 574 532 518 560 q 676 466 629 504 q 753 377 724 428 q 782 258 782 326 q 738 113 782 176 q 613 13 693 49 q 426 -22 533 -22 q 306 -5 371 -22 q 185 46 242 13 l 189 -12 l 82 -12 l 82 313 l 174 313 q 263 137 193 196 q 431 78 333 78 q 518 96 481 78 q 576 144 556 114 q 597 208 597 174 q 563 289 597 257 q 478 343 529 321 q 375 386 428 365 q 251 445 308 414 q 150 517 193 476 q 83 609 107 557 q 60 729 60 661 q 76 819 60 772 q 131 905 93 865 q 231 969 168 944 q 385 994 293 994 q 506 978 440 994 q 619 928 572 961 l 614 985 l 722 985 l 722 661 l 631 661 z "},"Ś":{"ha":831,"x_min":60,"x_max":782,"o":"m 631 661 q 586 791 618 739 q 505 869 554 843 q 390 894 456 896 q 285 861 331 894 q 240 775 240 828 q 265 700 240 732 q 339 640 289 668 q 465 581 389 613 q 574 532 518 560 q 676 466 629 504 q 753 377 724 428 q 782 258 782 326 q 738 113 782 176 q 613 13 693 49 q 426 -22 533 -22 q 306 -5 371 -22 q 185 46 242 13 l 189 -12 l 82 -12 l 82 313 l 174 313 q 263 137 193 196 q 431 78 333 78 q 518 96 481 78 q 576 144 556 114 q 597 208 597 174 q 563 289 597 257 q 478 343 529 321 q 375 386 428 365 q 251 445 308 414 q 150 517 193 476 q 83 609 107 557 q 60 729 60 661 q 76 819 60 772 q 131 905 93 865 q 231 969 168 944 q 385 994 293 994 q 506 978 440 994 q 619 928 572 961 l 614 985 l 722 985 l 722 661 l 631 661 m 360 1042 l 310 1110 l 464 1274 q 508 1301 483 1293 q 558 1305 533 1310 q 599 1276 582 1300 q 613 1228 615 1253 q 594 1181 610 1203 q 557 1146 579 1160 l 360 1042 z "},"Š":{"ha":831,"x_min":60,"x_max":782,"o":"m 631 661 q 586 791 618 739 q 505 869 554 843 q 390 894 456 896 q 285 861 331 894 q 240 775 240 828 q 265 700 240 732 q 339 640 289 668 q 465 581 389 613 q 574 532 518 560 q 676 466 629 504 q 753 377 724 428 q 782 258 782 326 q 738 113 782 176 q 613 13 693 49 q 426 -22 533 -22 q 306 -5 371 -22 q 185 46 242 13 l 189 -12 l 82 -12 l 82 313 l 174 313 q 263 137 193 196 q 431 78 333 78 q 518 96 481 78 q 576 144 556 114 q 597 208 597 174 q 563 289 597 257 q 478 343 529 321 q 375 386 428 365 q 251 445 308 414 q 150 517 193 476 q 83 609 107 557 q 60 729 60 661 q 76 819 60 772 q 131 905 93 865 q 231 969 168 944 q 385 994 293 994 q 506 978 440 994 q 619 928 572 961 l 614 985 l 722 985 l 722 661 l 631 661 m 396 1063 l 125 1271 l 168 1335 l 415 1214 l 669 1338 l 706 1275 l 422 1063 l 396 1063 z "},"Ş":{"ha":831,"x_min":60,"x_max":782,"o":"m 631 661 q 586 791 618 739 q 505 869 554 843 q 390 894 456 896 q 285 861 331 894 q 240 775 240 828 q 265 700 240 732 q 339 640 289 668 q 465 581 389 613 q 574 532 518 560 q 676 466 629 504 q 753 377 724 428 q 782 258 782 326 q 738 113 782 176 q 613 13 693 49 q 426 -22 533 -22 q 306 -5 371 -22 q 185 46 242 13 l 189 -12 l 82 -12 l 82 313 l 174 313 q 263 137 193 196 q 431 78 333 78 q 518 96 481 78 q 576 144 556 114 q 597 208 597 174 q 563 289 597 257 q 478 343 529 321 q 375 386 428 365 q 251 445 308 414 q 150 517 193 476 q 83 609 107 557 q 60 729 60 661 q 76 819 60 772 q 131 905 93 865 q 231 969 168 944 q 385 994 293 994 q 506 978 440 994 q 619 928 572 961 l 614 985 l 722 985 l 722 661 l 631 661 m 343 -360 l 332 -287 q 376 -278 349 -285 q 432 -262 404 -272 q 479 -236 460 -251 q 499 -200 499 -221 q 481 -169 499 -176 q 440 -168 463 -162 q 404 -185 418 -174 l 353 -162 l 396 14 l 501 14 l 463 -96 q 509 -80 479 -86 q 557 -74 539 -74 q 630 -98 601 -75 q 658 -171 658 -121 q 625 -253 658 -219 q 541 -308 592 -286 q 437 -342 490 -329 q 343 -360 383 -354 z "},"Ŝ":{"ha":831,"x_min":60,"x_max":782,"o":"m 631 661 q 586 791 618 739 q 505 869 554 843 q 390 894 456 896 q 285 861 331 894 q 240 775 240 828 q 265 700 240 732 q 339 640 289 668 q 465 581 389 613 q 574 532 518 560 q 676 466 629 504 q 753 377 724 428 q 782 258 782 326 q 738 113 782 176 q 613 13 693 49 q 426 -22 533 -22 q 306 -5 371 -22 q 185 46 242 13 l 189 -12 l 82 -12 l 82 313 l 174 313 q 263 137 193 196 q 431 78 333 78 q 518 96 481 78 q 576 144 556 114 q 597 208 597 174 q 563 289 597 257 q 478 343 529 321 q 375 386 428 365 q 251 445 308 414 q 150 517 193 476 q 83 609 107 557 q 60 729 60 661 q 76 819 60 772 q 131 905 93 865 q 231 969 168 944 q 385 994 293 994 q 506 978 440 994 q 619 928 572 961 l 614 985 l 722 985 l 722 661 l 631 661 m 610 1075 l 417 1196 l 218 1078 l 181 1140 l 410 1349 l 436 1349 l 654 1140 l 610 1075 z "},"Ș":{"ha":831,"x_min":60,"x_max":782,"o":"m 631 661 q 586 791 618 739 q 505 869 554 843 q 390 894 456 896 q 285 861 331 894 q 240 775 240 828 q 265 700 240 732 q 339 640 289 668 q 465 581 389 613 q 574 532 518 560 q 676 466 629 504 q 753 377 724 428 q 782 258 782 326 q 738 113 782 176 q 613 13 693 49 q 426 -22 533 -22 q 306 -5 371 -22 q 185 46 242 13 l 189 -12 l 82 -12 l 82 313 l 174 313 q 263 137 193 196 q 431 78 333 78 q 518 96 481 78 q 576 144 556 114 q 597 208 597 174 q 563 289 597 257 q 478 343 529 321 q 375 386 428 365 q 251 445 308 414 q 150 517 193 476 q 83 609 107 557 q 60 729 60 661 q 76 819 60 772 q 131 905 93 865 q 231 969 168 944 q 385 994 293 994 q 506 978 440 994 q 619 928 572 961 l 614 985 l 722 985 l 722 661 l 631 661 m 389 -394 l 326 -346 q 372 -247 358 -292 q 385 -161 386 -203 q 372 -75 385 -119 l 497 -50 q 526 -150 526 -97 q 488 -274 526 -211 q 389 -394 450 -337 z "},"ẞ":{"ha":1015,"x_min":58,"x_max":974,"o":"m 624 -22 q 497 4 551 -22 q 390 89 443 31 l 458 147 q 529 103 492 115 q 607 90 567 90 q 684 110 647 90 q 744 178 721 131 q 768 303 768 225 q 720 444 768 392 q 575 497 672 497 l 482 497 l 482 546 l 621 739 q 669 811 647 779 q 721 875 692 843 l 535 881 q 393 817 447 883 q 339 607 339 751 l 339 226 q 339 187 339 217 q 338 119 339 157 q 336 49 338 82 q 333 0 335 15 l 58 0 l 58 90 q 115 106 97 90 q 137 149 132 121 q 142 214 142 178 l 142 597 q 174 776 142 704 q 260 892 206 849 q 386 953 315 935 q 535 972 457 972 l 917 972 l 917 868 l 700 581 q 819 559 768 583 q 905 492 871 535 q 956 399 939 450 q 974 296 974 347 q 944 160 974 219 q 864 59 914 100 q 751 -3 814 18 q 624 -22 689 -24 z "},"T":{"ha":903,"x_min":22,"x_max":879,"o":"m 788 658 q 767 783 788 733 q 708 856 746 832 q 617 879 669 881 l 550 879 l 550 228 q 549 156 550 190 q 544 103 547 121 q 605 106 568 106 q 656 107 642 107 l 656 0 l 250 0 l 250 92 q 303 100 282 93 q 337 132 325 107 q 349 213 349 157 l 349 878 l 285 878 q 160 824 206 876 q 114 658 114 771 l 22 658 l 29 972 l 871 972 l 879 658 l 788 658 z "},"Ŧ":{"ha":903,"x_min":22,"x_max":879,"o":"m 167 432 l 167 506 l 729 506 l 729 438 l 167 432 m 788 658 q 767 783 788 733 q 708 856 746 832 q 617 879 669 881 l 550 879 l 550 228 q 549 156 550 190 q 544 103 547 121 q 605 106 568 106 q 656 107 642 107 l 656 0 l 250 0 l 250 92 q 303 100 282 93 q 337 132 325 107 q 349 213 349 157 l 349 878 l 285 878 q 160 824 206 876 q 114 658 114 771 l 22 658 l 29 972 l 871 972 l 879 658 l 788 658 z "},"Ť":{"ha":903,"x_min":22,"x_max":879,"o":"m 788 658 q 767 783 788 733 q 708 856 746 832 q 617 879 669 881 l 550 879 l 550 228 q 549 156 550 190 q 544 103 547 121 q 605 106 568 106 q 656 107 642 107 l 656 0 l 250 0 l 250 92 q 303 100 282 93 q 337 132 325 107 q 349 213 349 157 l 349 878 l 285 878 q 160 824 206 876 q 114 658 114 771 l 22 658 l 29 972 l 871 972 l 879 658 l 788 658 m 432 1063 l 161 1271 l 204 1335 l 451 1214 l 706 1338 l 742 1275 l 458 1063 l 432 1063 z "},"Ţ":{"ha":903,"x_min":22,"x_max":879,"o":"m 788 658 q 767 783 788 733 q 708 856 746 832 q 617 879 669 881 l 550 879 l 550 228 q 549 156 550 190 q 544 103 547 121 q 605 106 568 106 q 656 107 642 107 l 656 0 l 250 0 l 250 92 q 303 100 282 93 q 337 132 325 107 q 349 213 349 157 l 349 878 l 285 878 q 160 824 206 876 q 114 658 114 771 l 22 658 l 29 972 l 871 972 l 879 658 l 788 658 m 354 -360 l 343 -287 q 388 -278 360 -285 q 443 -262 415 -272 q 490 -236 471 -251 q 510 -200 510 -221 q 492 -169 510 -176 q 451 -168 474 -162 q 415 -185 429 -174 l 364 -162 l 407 14 l 513 14 l 474 -96 q 520 -80 490 -86 q 568 -74 550 -74 q 641 -98 613 -75 q 669 -171 669 -121 q 636 -253 669 -219 q 552 -308 603 -286 q 448 -342 501 -329 q 354 -360 394 -354 z "},"Ț":{"ha":903,"x_min":22,"x_max":879,"o":"m 788 658 q 767 783 788 733 q 708 856 746 832 q 617 879 669 881 l 550 879 l 550 228 q 549 156 550 190 q 544 103 547 121 q 605 106 568 106 q 656 107 642 107 l 656 0 l 250 0 l 250 92 q 303 100 282 93 q 337 132 325 107 q 349 213 349 157 l 349 878 l 285 878 q 160 824 206 876 q 114 658 114 771 l 22 658 l 29 972 l 871 972 l 879 658 l 788 658 m 400 -394 l 338 -346 q 383 -247 369 -292 q 397 -161 397 -203 q 383 -75 396 -119 l 508 -50 q 538 -150 538 -97 q 499 -274 538 -211 q 400 -394 461 -337 z "},"U":{"ha":1056,"x_min":36,"x_max":1022,"o":"m 435 881 q 382 872 404 879 q 348 841 360 865 q 336 760 336 817 l 336 378 q 355 234 336 290 q 405 145 374 178 q 476 99 436 113 q 557 83 515 85 q 688 113 633 81 q 771 211 742 144 q 800 381 800 278 l 800 744 q 801 817 800 782 q 806 869 803 851 q 749 867 783 868 q 700 865 715 867 l 700 972 l 1022 972 l 1022 881 q 969 872 992 879 q 935 841 947 865 q 924 760 924 817 l 924 413 q 894 210 924 293 q 813 75 865 126 q 689 1 760 24 q 535 -22 618 -22 q 340 11 418 -22 q 217 104 263 44 q 153 242 172 164 q 135 408 135 319 l 135 744 q 137 817 135 782 q 140 869 139 851 q 85 867 118 868 q 36 865 51 867 l 36 972 l 435 972 l 435 881 z "},"Ú":{"ha":1056,"x_min":36,"x_max":1022,"o":"m 435 881 q 382 872 404 879 q 348 841 360 865 q 336 760 336 817 l 336 378 q 355 234 336 290 q 405 145 374 178 q 476 99 436 113 q 557 83 515 85 q 688 113 633 81 q 771 211 742 144 q 800 381 800 278 l 800 744 q 801 817 800 782 q 806 869 803 851 q 749 867 783 868 q 700 865 715 867 l 700 972 l 1022 972 l 1022 881 q 969 872 992 879 q 935 841 947 865 q 924 760 924 817 l 924 413 q 894 210 924 293 q 813 75 865 126 q 689 1 760 24 q 535 -22 618 -22 q 340 11 418 -22 q 217 104 263 44 q 153 242 172 164 q 135 408 135 319 l 135 744 q 137 817 135 782 q 140 869 139 851 q 85 867 118 868 q 36 865 51 867 l 36 972 l 435 972 l 435 881 m 479 1042 l 429 1110 l 583 1274 q 628 1301 603 1293 q 677 1305 653 1310 q 718 1276 701 1300 q 732 1228 735 1253 q 714 1181 729 1203 q 676 1146 699 1160 l 479 1042 z "},"Ŭ":{"ha":1056,"x_min":36,"x_max":1022,"o":"m 435 881 q 382 872 404 879 q 348 841 360 865 q 336 760 336 817 l 336 378 q 355 234 336 290 q 405 145 374 178 q 476 99 436 113 q 557 83 515 85 q 688 113 633 81 q 771 211 742 144 q 800 381 800 278 l 800 744 q 801 817 800 782 q 806 869 803 851 q 749 867 783 868 q 700 865 715 867 l 700 972 l 1022 972 l 1022 881 q 969 872 992 879 q 935 841 947 865 q 924 760 924 817 l 924 413 q 894 210 924 293 q 813 75 865 126 q 689 1 760 24 q 535 -22 618 -22 q 340 11 418 -22 q 217 104 263 44 q 153 242 172 164 q 135 408 135 319 l 135 744 q 137 817 135 782 q 140 869 139 851 q 85 867 118 868 q 36 865 51 867 l 36 972 l 435 972 l 435 881 m 538 1086 q 447 1102 493 1086 q 361 1155 400 1118 q 300 1254 322 1192 l 358 1283 q 430 1231 388 1254 q 538 1207 472 1207 q 644 1231 603 1207 q 715 1283 686 1254 l 774 1254 q 713 1155 751 1192 q 628 1102 674 1118 q 538 1086 582 1086 z "},"Ǔ":{"ha":1056,"x_min":36,"x_max":1022,"o":"m 435 881 q 382 872 404 879 q 348 841 360 865 q 336 760 336 817 l 336 378 q 355 234 336 290 q 405 145 374 178 q 476 99 436 113 q 557 83 515 85 q 688 113 633 81 q 771 211 742 144 q 800 381 800 278 l 800 744 q 801 817 800 782 q 806 869 803 851 q 749 867 783 868 q 700 865 715 867 l 700 972 l 1022 972 l 1022 881 q 969 872 992 879 q 935 841 947 865 q 924 760 924 817 l 924 413 q 894 210 924 293 q 813 75 865 126 q 689 1 760 24 q 535 -22 618 -22 q 340 11 418 -22 q 217 104 263 44 q 153 242 172 164 q 135 408 135 319 l 135 744 q 137 817 135 782 q 140 869 139 851 q 85 867 118 868 q 36 865 51 867 l 36 972 l 435 972 l 435 881 m 515 1063 l 244 1271 l 288 1335 l 535 1214 l 789 1338 l 825 1275 l 542 1063 l 515 1063 z "},"Û":{"ha":1056,"x_min":36,"x_max":1022,"o":"m 435 881 q 382 872 404 879 q 348 841 360 865 q 336 760 336 817 l 336 378 q 355 234 336 290 q 405 145 374 178 q 476 99 436 113 q 557 83 515 85 q 688 113 633 81 q 771 211 742 144 q 800 381 800 278 l 800 744 q 801 817 800 782 q 806 869 803 851 q 749 867 783 868 q 700 865 715 867 l 700 972 l 1022 972 l 1022 881 q 969 872 992 879 q 935 841 947 865 q 924 760 924 817 l 924 413 q 894 210 924 293 q 813 75 865 126 q 689 1 760 24 q 535 -22 618 -22 q 340 11 418 -22 q 217 104 263 44 q 153 242 172 164 q 135 408 135 319 l 135 744 q 137 817 135 782 q 140 869 139 851 q 85 867 118 868 q 36 865 51 867 l 36 972 l 435 972 l 435 881 m 729 1075 l 536 1196 l 338 1078 l 300 1140 l 529 1349 l 556 1349 l 774 1140 l 729 1075 z "},"Ü":{"ha":1056,"x_min":36,"x_max":1022,"o":"m 435 881 q 382 872 404 879 q 348 841 360 865 q 336 760 336 817 l 336 378 q 355 234 336 290 q 405 145 374 178 q 476 99 436 113 q 557 83 515 85 q 688 113 633 81 q 771 211 742 144 q 800 381 800 278 l 800 744 q 801 817 800 782 q 806 869 803 851 q 749 867 783 868 q 700 865 715 867 l 700 972 l 1022 972 l 1022 881 q 969 872 992 879 q 935 841 947 865 q 924 760 924 817 l 924 413 q 894 210 924 293 q 813 75 865 126 q 689 1 760 24 q 535 -22 618 -22 q 340 11 418 -22 q 217 104 263 44 q 153 242 172 164 q 135 408 135 319 l 135 744 q 137 817 135 782 q 140 869 139 851 q 85 867 118 868 q 36 865 51 867 l 36 972 l 435 972 l 435 881 m 414 1107 q 349 1138 376 1107 q 321 1211 321 1168 q 349 1287 321 1256 q 415 1318 378 1318 q 481 1287 454 1318 q 507 1211 507 1256 q 479 1138 507 1168 q 414 1107 451 1107 m 656 1107 q 592 1138 619 1107 q 564 1211 564 1168 q 592 1287 564 1256 q 657 1318 621 1318 q 723 1287 697 1318 q 749 1211 749 1256 q 721 1138 749 1168 q 656 1107 693 1107 z "},"Ụ":{"ha":1056,"x_min":36,"x_max":1022,"o":"m 435 881 q 382 872 404 879 q 348 841 360 865 q 336 760 336 817 l 336 378 q 355 234 336 290 q 405 145 374 178 q 476 99 436 113 q 557 83 515 85 q 688 113 633 81 q 771 211 742 144 q 800 381 800 278 l 800 744 q 801 817 800 782 q 806 869 803 851 q 749 867 783 868 q 700 865 715 867 l 700 972 l 1022 972 l 1022 881 q 969 872 992 879 q 935 841 947 865 q 924 760 924 817 l 924 413 q 894 210 924 293 q 813 75 865 126 q 689 1 760 24 q 535 -22 618 -22 q 340 11 418 -22 q 217 104 263 44 q 153 242 172 164 q 135 408 135 319 l 135 744 q 137 817 135 782 q 140 869 139 851 q 85 867 118 868 q 36 865 51 867 l 36 972 l 435 972 l 435 881 m 531 -265 q 468 -239 492 -265 q 444 -176 444 -212 q 469 -112 444 -139 q 529 -86 494 -86 q 588 -112 565 -86 q 611 -176 611 -139 q 589 -239 611 -212 q 531 -265 567 -265 z "},"Ù":{"ha":1056,"x_min":36,"x_max":1022,"o":"m 435 881 q 382 872 404 879 q 348 841 360 865 q 336 760 336 817 l 336 378 q 355 234 336 290 q 405 145 374 178 q 476 99 436 113 q 557 83 515 85 q 688 113 633 81 q 771 211 742 144 q 800 381 800 278 l 800 744 q 801 817 800 782 q 806 869 803 851 q 749 867 783 868 q 700 865 715 867 l 700 972 l 1022 972 l 1022 881 q 969 872 992 879 q 935 841 947 865 q 924 760 924 817 l 924 413 q 894 210 924 293 q 813 75 865 126 q 689 1 760 24 q 535 -22 618 -22 q 340 11 418 -22 q 217 104 263 44 q 153 242 172 164 q 135 408 135 319 l 135 744 q 137 817 135 782 q 140 869 139 851 q 85 867 118 868 q 36 865 51 867 l 36 972 l 435 972 l 435 881 m 567 1042 l 369 1146 q 333 1181 349 1160 q 315 1228 318 1203 q 328 1276 313 1253 q 369 1305 346 1300 q 418 1301 393 1310 q 463 1274 443 1293 l 617 1110 l 567 1042 z "},"Ủ":{"ha":1056,"x_min":36,"x_max":1022,"o":"m 435 881 q 382 872 404 879 q 348 841 360 865 q 336 760 336 817 l 336 378 q 355 234 336 290 q 405 145 374 178 q 476 99 436 113 q 557 83 515 85 q 688 113 633 81 q 771 211 742 144 q 800 381 800 278 l 800 744 q 801 817 800 782 q 806 869 803 851 q 749 867 783 868 q 700 865 715 867 l 700 972 l 1022 972 l 1022 881 q 969 872 992 879 q 935 841 947 865 q 924 760 924 817 l 924 413 q 894 210 924 293 q 813 75 865 126 q 689 1 760 24 q 535 -22 618 -22 q 340 11 418 -22 q 217 104 263 44 q 153 242 172 164 q 135 408 135 319 l 135 744 q 137 817 135 782 q 140 869 139 851 q 85 867 118 868 q 36 865 51 867 l 36 972 l 435 972 l 435 881 m 507 1054 q 525 1099 507 1083 q 561 1133 543 1115 q 578 1157 571 1144 q 585 1188 585 1169 q 565 1231 585 1217 q 515 1246 544 1246 q 459 1232 476 1246 q 439 1208 442 1218 q 470 1197 460 1208 q 481 1171 481 1186 q 468 1142 481 1156 q 432 1128 456 1128 q 380 1149 400 1128 q 360 1199 360 1169 q 378 1260 360 1231 q 431 1310 396 1290 q 515 1329 467 1329 q 643 1294 597 1329 q 689 1200 689 1260 q 671 1142 689 1163 q 631 1108 653 1122 q 603 1081 614 1094 q 593 1054 593 1067 l 507 1054 z "},"Ư":{"ha":1056,"x_min":36,"x_max":1151,"o":"m 435 881 q 382 872 404 879 q 348 841 360 865 q 336 760 336 817 l 336 378 q 355 234 336 290 q 405 145 374 178 q 476 99 436 113 q 557 83 515 85 q 688 113 633 81 q 771 211 742 144 q 800 381 800 278 l 800 744 q 801 817 800 782 q 806 869 803 851 q 749 867 783 868 q 700 865 715 867 l 700 972 l 1022 972 l 1022 881 q 969 872 992 879 q 935 841 947 865 q 924 760 924 817 l 924 413 q 894 210 924 293 q 813 75 865 126 q 689 1 760 24 q 535 -22 618 -22 q 340 11 418 -22 q 217 104 263 44 q 153 242 172 164 q 135 408 135 319 l 135 744 q 137 817 135 782 q 140 869 139 851 q 85 867 118 868 q 36 865 51 867 l 36 972 l 435 972 l 435 881 m 888 878 l 888 968 q 970 1004 940 968 q 1000 1079 1000 1040 l 1151 1079 q 1119 970 1151 1015 q 1027 901 1086 925 q 888 878 968 878 z "},"Ứ":{"ha":1056,"x_min":36,"x_max":1151,"o":"m 435 881 q 382 872 404 879 q 348 841 360 865 q 336 760 336 817 l 336 378 q 355 234 336 290 q 405 145 374 178 q 476 99 436 113 q 557 83 515 85 q 688 113 633 81 q 771 211 742 144 q 800 381 800 278 l 800 744 q 801 817 800 782 q 806 869 803 851 q 749 867 783 868 q 700 865 715 867 l 700 972 l 1022 972 l 1022 881 q 969 872 992 879 q 935 841 947 865 q 924 760 924 817 l 924 413 q 894 210 924 293 q 813 75 865 126 q 689 1 760 24 q 535 -22 618 -22 q 340 11 418 -22 q 217 104 263 44 q 153 242 172 164 q 135 408 135 319 l 135 744 q 137 817 135 782 q 140 869 139 851 q 85 867 118 868 q 36 865 51 867 l 36 972 l 435 972 l 435 881 m 888 878 l 888 968 q 970 1004 940 968 q 1000 1079 1000 1040 l 1151 1079 q 1119 970 1151 1015 q 1027 901 1086 925 q 888 878 968 878 m 464 1063 l 400 1119 l 514 1314 q 551 1351 529 1338 q 597 1365 572 1364 q 644 1347 622 1365 q 669 1302 667 1328 q 662 1252 672 1276 q 632 1210 651 1228 l 464 1063 z "},"Ự":{"ha":1056,"x_min":36,"x_max":1151,"o":"m 435 881 q 382 872 404 879 q 348 841 360 865 q 336 760 336 817 l 336 378 q 355 234 336 290 q 405 145 374 178 q 476 99 436 113 q 557 83 515 85 q 688 113 633 81 q 771 211 742 144 q 800 381 800 278 l 800 744 q 801 817 800 782 q 806 869 803 851 q 749 867 783 868 q 700 865 715 867 l 700 972 l 1022 972 l 1022 881 q 969 872 992 879 q 935 841 947 865 q 924 760 924 817 l 924 413 q 894 210 924 293 q 813 75 865 126 q 689 1 760 24 q 535 -22 618 -22 q 340 11 418 -22 q 217 104 263 44 q 153 242 172 164 q 135 408 135 319 l 135 744 q 137 817 135 782 q 140 869 139 851 q 85 867 118 868 q 36 865 51 867 l 36 972 l 435 972 l 435 881 m 888 878 l 888 968 q 970 1004 940 968 q 1000 1079 1000 1040 l 1151 1079 q 1119 970 1151 1015 q 1027 901 1086 925 q 888 878 968 878 m 531 -265 q 468 -239 492 -265 q 444 -176 444 -212 q 469 -112 444 -139 q 529 -86 494 -86 q 588 -112 565 -86 q 611 -176 611 -139 q 589 -239 611 -212 q 531 -265 567 -265 z "},"Ừ":{"ha":1056,"x_min":36,"x_max":1151,"o":"m 435 881 q 382 872 404 879 q 348 841 360 865 q 336 760 336 817 l 336 378 q 355 234 336 290 q 405 145 374 178 q 476 99 436 113 q 557 83 515 85 q 688 113 633 81 q 771 211 742 144 q 800 381 800 278 l 800 744 q 801 817 800 782 q 806 869 803 851 q 749 867 783 868 q 700 865 715 867 l 700 972 l 1022 972 l 1022 881 q 969 872 992 879 q 935 841 947 865 q 924 760 924 817 l 924 413 q 894 210 924 293 q 813 75 865 126 q 689 1 760 24 q 535 -22 618 -22 q 340 11 418 -22 q 217 104 263 44 q 153 242 172 164 q 135 408 135 319 l 135 744 q 137 817 135 782 q 140 869 139 851 q 85 867 118 868 q 36 865 51 867 l 36 972 l 435 972 l 435 881 m 888 878 l 888 968 q 970 1004 940 968 q 1000 1079 1000 1040 l 1151 1079 q 1119 970 1151 1015 q 1027 901 1086 925 q 888 878 968 878 m 606 1063 l 438 1210 q 408 1252 419 1228 q 401 1302 397 1276 q 426 1347 404 1328 q 473 1365 449 1365 q 519 1351 497 1364 q 556 1314 542 1338 l 669 1119 l 606 1063 z "},"Ử":{"ha":1056,"x_min":36,"x_max":1151,"o":"m 435 881 q 382 872 404 879 q 348 841 360 865 q 336 760 336 817 l 336 378 q 355 234 336 290 q 405 145 374 178 q 476 99 436 113 q 557 83 515 85 q 688 113 633 81 q 771 211 742 144 q 800 381 800 278 l 800 744 q 801 817 800 782 q 806 869 803 851 q 749 867 783 868 q 700 865 715 867 l 700 972 l 1022 972 l 1022 881 q 969 872 992 879 q 935 841 947 865 q 924 760 924 817 l 924 413 q 894 210 924 293 q 813 75 865 126 q 689 1 760 24 q 535 -22 618 -22 q 340 11 418 -22 q 217 104 263 44 q 153 242 172 164 q 135 408 135 319 l 135 744 q 137 817 135 782 q 140 869 139 851 q 85 867 118 868 q 36 865 51 867 l 36 972 l 435 972 l 435 881 m 888 878 l 888 968 q 970 1004 940 968 q 1000 1079 1000 1040 l 1151 1079 q 1119 970 1151 1015 q 1027 901 1086 925 q 888 878 968 878 m 507 1054 q 525 1099 507 1083 q 561 1133 543 1115 q 578 1157 571 1144 q 585 1188 585 1169 q 565 1231 585 1217 q 515 1246 544 1246 q 459 1232 476 1246 q 439 1208 442 1218 q 470 1197 460 1208 q 481 1171 481 1186 q 468 1142 481 1156 q 432 1128 456 1128 q 380 1149 400 1128 q 360 1199 360 1169 q 378 1260 360 1231 q 431 1310 396 1290 q 515 1329 467 1329 q 643 1294 597 1329 q 689 1200 689 1260 q 671 1142 689 1163 q 631 1108 653 1122 q 603 1081 614 1094 q 593 1054 593 1067 l 507 1054 z "},"Ữ":{"ha":1056,"x_min":36,"x_max":1151,"o":"m 435 881 q 382 872 404 879 q 348 841 360 865 q 336 760 336 817 l 336 378 q 355 234 336 290 q 405 145 374 178 q 476 99 436 113 q 557 83 515 85 q 688 113 633 81 q 771 211 742 144 q 800 381 800 278 l 800 744 q 801 817 800 782 q 806 869 803 851 q 749 867 783 868 q 700 865 715 867 l 700 972 l 1022 972 l 1022 881 q 969 872 992 879 q 935 841 947 865 q 924 760 924 817 l 924 413 q 894 210 924 293 q 813 75 865 126 q 689 1 760 24 q 535 -22 618 -22 q 340 11 418 -22 q 217 104 263 44 q 153 242 172 164 q 135 408 135 319 l 135 744 q 137 817 135 782 q 140 869 139 851 q 85 867 118 868 q 36 865 51 867 l 36 972 l 435 972 l 435 881 m 888 878 l 888 968 q 970 1004 940 968 q 1000 1079 1000 1040 l 1151 1079 q 1119 970 1151 1015 q 1027 901 1086 925 q 888 878 968 878 m 783 1283 q 707 1159 754 1197 q 618 1121 660 1121 q 553 1135 581 1121 q 502 1162 526 1149 q 450 1175 478 1175 q 409 1163 433 1175 q 364 1118 385 1151 l 286 1164 q 356 1267 310 1228 q 449 1307 401 1307 q 517 1294 492 1307 q 563 1267 542 1281 q 618 1254 585 1254 q 664 1273 642 1254 q 704 1324 686 1292 l 783 1283 z "},"Ű":{"ha":1056,"x_min":36,"x_max":1022,"o":"m 435 881 q 382 872 404 879 q 348 841 360 865 q 336 760 336 817 l 336 378 q 355 234 336 290 q 405 145 374 178 q 476 99 436 113 q 557 83 515 85 q 688 113 633 81 q 771 211 742 144 q 800 381 800 278 l 800 744 q 801 817 800 782 q 806 869 803 851 q 749 867 783 868 q 700 865 715 867 l 700 972 l 1022 972 l 1022 881 q 969 872 992 879 q 935 841 947 865 q 924 760 924 817 l 924 413 q 894 210 924 293 q 813 75 865 126 q 689 1 760 24 q 535 -22 618 -22 q 340 11 418 -22 q 217 104 263 44 q 153 242 172 164 q 135 408 135 319 l 135 744 q 137 817 135 782 q 140 869 139 851 q 85 867 118 868 q 36 865 51 867 l 36 972 l 435 972 l 435 881 m 639 1036 l 594 1107 l 751 1249 q 833 1291 790 1283 q 897 1264 876 1299 q 905 1219 913 1242 q 878 1176 897 1196 q 835 1143 858 1157 l 639 1036 m 436 1038 l 374 1094 l 492 1268 q 556 1324 518 1306 q 622 1318 593 1342 q 643 1276 643 1300 q 631 1228 643 1251 q 599 1186 618 1204 l 436 1038 z "},"Ū":{"ha":1056,"x_min":36,"x_max":1022,"o":"m 435 881 q 382 872 404 879 q 348 841 360 865 q 336 760 336 817 l 336 378 q 355 234 336 290 q 405 145 374 178 q 476 99 436 113 q 557 83 515 85 q 688 113 633 81 q 771 211 742 144 q 800 381 800 278 l 800 744 q 801 817 800 782 q 806 869 803 851 q 749 867 783 868 q 700 865 715 867 l 700 972 l 1022 972 l 1022 881 q 969 872 992 879 q 935 841 947 865 q 924 760 924 817 l 924 413 q 894 210 924 293 q 813 75 865 126 q 689 1 760 24 q 535 -22 618 -22 q 340 11 418 -22 q 217 104 263 44 q 153 242 172 164 q 135 408 135 319 l 135 744 q 137 817 135 782 q 140 869 139 851 q 85 867 118 868 q 36 865 51 867 l 36 972 l 435 972 l 435 881 m 338 1149 l 338 1282 l 732 1282 l 732 1154 l 338 1149 z "},"Ų":{"ha":1056,"x_min":36,"x_max":1022,"o":"m 435 881 q 382 872 404 879 q 348 841 360 865 q 336 760 336 817 l 336 378 q 355 234 336 290 q 405 145 374 178 q 476 99 436 113 q 557 83 515 85 q 688 113 633 81 q 771 211 742 144 q 800 381 800 278 l 800 744 q 801 817 800 782 q 806 869 803 851 q 749 867 783 868 q 700 865 715 867 l 700 972 l 1022 972 l 1022 881 q 969 872 992 879 q 935 841 947 865 q 924 760 924 817 l 924 413 q 894 210 924 293 q 813 75 865 126 q 689 1 760 24 q 535 -22 618 -22 q 340 11 418 -22 q 217 104 263 44 q 153 242 172 164 q 135 408 135 319 l 135 744 q 137 817 135 782 q 140 869 139 851 q 85 867 118 868 q 36 865 51 867 l 36 972 l 435 972 l 435 881 m 542 -361 q 433 -325 475 -361 q 392 -218 392 -289 q 437 -96 392 -153 q 554 4 482 -39 q 706 71 626 47 l 706 7 q 621 -40 663 -11 q 553 -104 579 -68 q 529 -179 528 -140 q 547 -219 531 -204 q 590 -235 563 -235 q 632 -224 610 -235 q 676 -194 654 -214 l 725 -254 q 640 -331 689 -301 q 542 -361 592 -361 z "},"Ů":{"ha":1056,"x_min":36,"x_max":1022,"o":"m 435 881 q 382 872 404 879 q 348 841 360 865 q 336 760 336 817 l 336 378 q 355 234 336 290 q 405 145 374 178 q 476 99 436 113 q 557 83 515 85 q 688 113 633 81 q 771 211 742 144 q 800 381 800 278 l 800 744 q 801 817 800 782 q 806 869 803 851 q 749 867 783 868 q 700 865 715 867 l 700 972 l 1022 972 l 1022 881 q 969 872 992 879 q 935 841 947 865 q 924 760 924 817 l 924 413 q 894 210 924 293 q 813 75 865 126 q 689 1 760 24 q 535 -22 618 -22 q 340 11 418 -22 q 217 104 263 44 q 153 242 172 164 q 135 408 135 319 l 135 744 q 137 817 135 782 q 140 869 139 851 q 85 867 118 868 q 36 865 51 867 l 36 972 l 435 972 l 435 881 m 536 1060 q 461 1078 499 1060 q 399 1131 424 1096 q 371 1214 374 1165 q 392 1300 369 1263 q 453 1360 415 1338 q 535 1382 492 1382 q 611 1365 574 1382 q 673 1315 649 1349 q 699 1229 697 1282 q 676 1140 700 1178 q 615 1081 653 1101 q 536 1060 576 1060 m 543 1144 q 575 1163 561 1146 q 589 1211 589 1179 q 573 1278 589 1258 q 533 1299 557 1299 q 501 1282 515 1297 q 486 1232 486 1267 q 502 1167 486 1189 q 543 1144 518 1144 z "},"Ũ":{"ha":1056,"x_min":36,"x_max":1022,"o":"m 435 881 q 382 872 404 879 q 348 841 360 865 q 336 760 336 817 l 336 378 q 355 234 336 290 q 405 145 374 178 q 476 99 436 113 q 557 83 515 85 q 688 113 633 81 q 771 211 742 144 q 800 381 800 278 l 800 744 q 801 817 800 782 q 806 869 803 851 q 749 867 783 868 q 700 865 715 867 l 700 972 l 1022 972 l 1022 881 q 969 872 992 879 q 935 841 947 865 q 924 760 924 817 l 924 413 q 894 210 924 293 q 813 75 865 126 q 689 1 760 24 q 535 -22 618 -22 q 340 11 418 -22 q 217 104 263 44 q 153 242 172 164 q 135 408 135 319 l 135 744 q 137 817 135 782 q 140 869 139 851 q 85 867 118 868 q 36 865 51 867 l 36 972 l 435 972 l 435 881 m 783 1283 q 707 1159 754 1197 q 618 1121 660 1121 q 553 1135 581 1121 q 502 1162 526 1149 q 450 1175 478 1175 q 409 1163 433 1175 q 364 1118 385 1151 l 286 1164 q 356 1267 310 1228 q 449 1307 401 1307 q 517 1294 492 1307 q 563 1267 542 1281 q 618 1254 585 1254 q 664 1273 642 1254 q 704 1324 686 1292 l 783 1283 z "},"V":{"ha":983,"x_min":11,"x_max":983,"o":"m 444 -8 l 125 738 q 99 810 111 772 q 86 869 86 847 q 45 867 64 868 q 11 865 26 867 l 11 972 l 421 972 l 421 881 q 342 858 369 882 q 340 774 315 835 q 404 617 372 696 q 468 460 436 538 q 508 358 492 401 q 547 261 525 314 l 549 261 q 581 354 564 303 q 615 453 599 406 q 651 550 633 501 q 686 647 668 599 q 721 743 704 694 q 744 807 728 767 q 778 869 760 847 q 721 867 756 868 q 671 865 686 867 l 671 972 l 983 972 l 983 881 q 901 846 936 879 q 836 732 867 813 q 790 609 813 671 q 744 485 767 547 q 697 362 721 424 q 651 238 674 300 q 605 115 628 176 q 558 -8 582 54 l 444 -8 z "},"W":{"ha":1411,"x_min":18,"x_max":1413,"o":"m 379 -8 l 132 740 q 110 814 118 781 q 103 869 103 847 q 56 867 76 868 q 18 865 36 867 l 18 972 l 428 972 l 428 881 q 352 861 376 882 q 346 776 328 840 q 388 618 367 697 q 429 460 408 539 q 452 371 442 413 q 475 263 463 329 l 476 263 q 493 322 482 282 q 517 409 504 363 q 541 494 531 456 q 556 547 551 532 q 599 689 578 618 q 642 831 621 760 q 685 972 664 901 l 810 972 q 849 844 829 908 q 889 717 869 781 q 928 589 908 653 q 968 461 949 525 q 995 363 983 414 q 1018 261 1007 313 l 1019 261 q 1045 353 1032 306 q 1072 453 1058 401 q 1092 525 1082 489 q 1111 598 1101 561 q 1131 671 1121 635 q 1150 743 1140 707 q 1172 812 1158 776 q 1207 869 1186 847 q 1150 867 1185 868 q 1100 865 1115 867 l 1100 972 l 1413 972 l 1413 881 q 1355 865 1382 879 q 1306 818 1328 850 q 1265 732 1283 786 q 1153 363 1210 547 q 1039 -8 1096 178 l 915 -8 l 751 489 q 722 595 733 543 q 699 694 710 647 q 682 603 692 647 q 658 513 672 560 l 500 -8 l 379 -8 z "},"Ẃ":{"ha":1411,"x_min":18,"x_max":1413,"o":"m 379 -8 l 132 740 q 110 814 118 781 q 103 869 103 847 q 56 867 76 868 q 18 865 36 867 l 18 972 l 428 972 l 428 881 q 352 861 376 882 q 346 776 328 840 q 388 618 367 697 q 429 460 408 539 q 452 371 442 413 q 475 263 463 329 l 476 263 q 493 322 482 282 q 517 409 504 363 q 541 494 531 456 q 556 547 551 532 q 599 689 578 618 q 642 831 621 760 q 685 972 664 901 l 810 972 q 849 844 829 908 q 889 717 869 781 q 928 589 908 653 q 968 461 949 525 q 995 363 983 414 q 1018 261 1007 313 l 1019 261 q 1045 353 1032 306 q 1072 453 1058 401 q 1092 525 1082 489 q 1111 598 1101 561 q 1131 671 1121 635 q 1150 743 1140 707 q 1172 812 1158 776 q 1207 869 1186 847 q 1150 867 1185 868 q 1100 865 1115 867 l 1100 972 l 1413 972 l 1413 881 q 1355 865 1382 879 q 1306 818 1328 850 q 1265 732 1283 786 q 1153 363 1210 547 q 1039 -8 1096 178 l 915 -8 l 751 489 q 722 595 733 543 q 699 694 710 647 q 682 603 692 647 q 658 513 672 560 l 500 -8 l 379 -8 m 679 1042 l 629 1110 l 783 1274 q 828 1301 803 1293 q 877 1305 853 1310 q 918 1276 901 1300 q 932 1228 935 1253 q 914 1181 929 1203 q 876 1146 899 1160 l 679 1042 z "},"Ŵ":{"ha":1411,"x_min":18,"x_max":1413,"o":"m 379 -8 l 132 740 q 110 814 118 781 q 103 869 103 847 q 56 867 76 868 q 18 865 36 867 l 18 972 l 428 972 l 428 881 q 352 861 376 882 q 346 776 328 840 q 388 618 367 697 q 429 460 408 539 q 452 371 442 413 q 475 263 463 329 l 476 263 q 493 322 482 282 q 517 409 504 363 q 541 494 531 456 q 556 547 551 532 q 599 689 578 618 q 642 831 621 760 q 685 972 664 901 l 810 972 q 849 844 829 908 q 889 717 869 781 q 928 589 908 653 q 968 461 949 525 q 995 363 983 414 q 1018 261 1007 313 l 1019 261 q 1045 353 1032 306 q 1072 453 1058 401 q 1092 525 1082 489 q 1111 598 1101 561 q 1131 671 1121 635 q 1150 743 1140 707 q 1172 812 1158 776 q 1207 869 1186 847 q 1150 867 1185 868 q 1100 865 1115 867 l 1100 972 l 1413 972 l 1413 881 q 1355 865 1382 879 q 1306 818 1328 850 q 1265 732 1283 786 q 1153 363 1210 547 q 1039 -8 1096 178 l 915 -8 l 751 489 q 722 595 733 543 q 699 694 710 647 q 682 603 692 647 q 658 513 672 560 l 500 -8 l 379 -8 m 929 1075 l 736 1196 l 538 1078 l 500 1140 l 729 1349 l 756 1349 l 974 1140 l 929 1075 z "},"Ẅ":{"ha":1411,"x_min":18,"x_max":1413,"o":"m 379 -8 l 132 740 q 110 814 118 781 q 103 869 103 847 q 56 867 76 868 q 18 865 36 867 l 18 972 l 428 972 l 428 881 q 352 861 376 882 q 346 776 328 840 q 388 618 367 697 q 429 460 408 539 q 452 371 442 413 q 475 263 463 329 l 476 263 q 493 322 482 282 q 517 409 504 363 q 541 494 531 456 q 556 547 551 532 q 599 689 578 618 q 642 831 621 760 q 685 972 664 901 l 810 972 q 849 844 829 908 q 889 717 869 781 q 928 589 908 653 q 968 461 949 525 q 995 363 983 414 q 1018 261 1007 313 l 1019 261 q 1045 353 1032 306 q 1072 453 1058 401 q 1092 525 1082 489 q 1111 598 1101 561 q 1131 671 1121 635 q 1150 743 1140 707 q 1172 812 1158 776 q 1207 869 1186 847 q 1150 867 1185 868 q 1100 865 1115 867 l 1100 972 l 1413 972 l 1413 881 q 1355 865 1382 879 q 1306 818 1328 850 q 1265 732 1283 786 q 1153 363 1210 547 q 1039 -8 1096 178 l 915 -8 l 751 489 q 722 595 733 543 q 699 694 710 647 q 682 603 692 647 q 658 513 672 560 l 500 -8 l 379 -8 m 614 1107 q 549 1138 576 1107 q 521 1211 521 1168 q 549 1287 521 1256 q 615 1318 578 1318 q 681 1287 654 1318 q 707 1211 707 1256 q 679 1138 707 1168 q 614 1107 651 1107 m 856 1107 q 792 1138 819 1107 q 764 1211 764 1168 q 792 1287 764 1256 q 857 1318 821 1318 q 923 1287 897 1318 q 949 1211 949 1256 q 921 1138 949 1168 q 856 1107 893 1107 z "},"Ẁ":{"ha":1411,"x_min":18,"x_max":1413,"o":"m 379 -8 l 132 740 q 110 814 118 781 q 103 869 103 847 q 56 867 76 868 q 18 865 36 867 l 18 972 l 428 972 l 428 881 q 352 861 376 882 q 346 776 328 840 q 388 618 367 697 q 429 460 408 539 q 452 371 442 413 q 475 263 463 329 l 476 263 q 493 322 482 282 q 517 409 504 363 q 541 494 531 456 q 556 547 551 532 q 599 689 578 618 q 642 831 621 760 q 685 972 664 901 l 810 972 q 849 844 829 908 q 889 717 869 781 q 928 589 908 653 q 968 461 949 525 q 995 363 983 414 q 1018 261 1007 313 l 1019 261 q 1045 353 1032 306 q 1072 453 1058 401 q 1092 525 1082 489 q 1111 598 1101 561 q 1131 671 1121 635 q 1150 743 1140 707 q 1172 812 1158 776 q 1207 869 1186 847 q 1150 867 1185 868 q 1100 865 1115 867 l 1100 972 l 1413 972 l 1413 881 q 1355 865 1382 879 q 1306 818 1328 850 q 1265 732 1283 786 q 1153 363 1210 547 q 1039 -8 1096 178 l 915 -8 l 751 489 q 722 595 733 543 q 699 694 710 647 q 682 603 692 647 q 658 513 672 560 l 500 -8 l 379 -8 m 767 1042 l 569 1146 q 533 1181 549 1160 q 515 1228 518 1203 q 528 1276 513 1253 q 569 1305 546 1300 q 618 1301 593 1310 q 663 1274 643 1293 l 817 1110 l 767 1042 z "},"X":{"ha":971,"x_min":19,"x_max":965,"o":"m 49 0 l 49 92 q 129 137 89 101 q 221 240 169 172 l 382 456 q 271 597 326 526 q 158 739 215 668 q 118 803 136 768 q 89 869 100 839 q 51 867 67 868 q 19 865 35 867 l 19 972 l 442 972 l 442 881 l 428 881 q 368 868 385 881 q 356 834 351 856 q 382 786 361 813 q 444 708 414 747 q 506 629 475 669 l 611 775 q 658 834 640 815 q 693 869 675 853 q 638 867 671 868 q 589 865 604 867 l 589 972 l 904 972 l 904 881 q 841 858 872 876 q 778 808 810 840 q 708 724 746 775 l 575 542 q 663 431 619 486 q 749 319 706 375 q 836 208 793 264 q 879 153 860 179 q 908 103 899 126 q 942 106 932 106 q 965 107 951 107 l 965 0 l 550 0 l 550 92 q 617 104 601 92 q 624 138 632 117 q 596 186 617 160 q 526 276 561 231 q 454 365 490 321 q 393 281 424 324 q 332 197 363 239 q 288 139 303 158 q 256 103 272 119 q 310 106 279 104 q 354 107 340 107 l 354 0 l 49 0 z "},"Y":{"ha":926,"x_min":4,"x_max":921,"o":"m 282 0 l 282 92 q 335 100 314 93 q 369 132 357 107 q 381 213 381 157 l 381 333 l 125 738 q 89 808 106 769 q 72 869 72 847 q 35 867 50 868 q 4 865 19 867 l 4 972 l 414 972 l 414 881 q 347 872 374 883 q 315 837 321 861 q 332 774 310 813 l 438 600 q 458 565 444 589 q 487 513 472 540 q 508 465 501 486 l 510 465 q 533 515 517 482 q 575 601 550 549 l 647 743 q 667 783 654 758 q 694 831 679 807 q 721 871 708 856 q 664 868 699 869 q 614 865 629 867 l 614 972 l 921 972 l 921 881 q 838 841 872 874 q 763 732 803 808 q 672 558 718 646 q 582 385 626 471 q 582 346 582 365 q 582 306 582 326 q 582 267 582 286 q 582 228 582 247 q 581 156 582 190 q 576 103 579 121 q 637 106 600 106 q 688 107 674 107 l 688 0 l 282 0 z "},"Ý":{"ha":926,"x_min":4,"x_max":921,"o":"m 282 0 l 282 92 q 335 100 314 93 q 369 132 357 107 q 381 213 381 157 l 381 333 l 125 738 q 89 808 106 769 q 72 869 72 847 q 35 867 50 868 q 4 865 19 867 l 4 972 l 414 972 l 414 881 q 347 872 374 883 q 315 837 321 861 q 332 774 310 813 l 438 600 q 458 565 444 589 q 487 513 472 540 q 508 465 501 486 l 510 465 q 533 515 517 482 q 575 601 550 549 l 647 743 q 667 783 654 758 q 694 831 679 807 q 721 871 708 856 q 664 868 699 869 q 614 865 629 867 l 614 972 l 921 972 l 921 881 q 838 841 872 874 q 763 732 803 808 q 672 558 718 646 q 582 385 626 471 q 582 346 582 365 q 582 306 582 326 q 582 267 582 286 q 582 228 582 247 q 581 156 582 190 q 576 103 579 121 q 637 106 600 106 q 688 107 674 107 l 688 0 l 282 0 m 424 1042 l 374 1110 l 528 1274 q 572 1301 547 1293 q 622 1305 597 1310 q 663 1276 646 1300 q 676 1228 679 1253 q 658 1181 674 1203 q 621 1146 643 1160 l 424 1042 z "},"Ŷ":{"ha":926,"x_min":4,"x_max":921,"o":"m 282 0 l 282 92 q 335 100 314 93 q 369 132 357 107 q 381 213 381 157 l 381 333 l 125 738 q 89 808 106 769 q 72 869 72 847 q 35 867 50 868 q 4 865 19 867 l 4 972 l 414 972 l 414 881 q 347 872 374 883 q 315 837 321 861 q 332 774 310 813 l 438 600 q 458 565 444 589 q 487 513 472 540 q 508 465 501 486 l 510 465 q 533 515 517 482 q 575 601 550 549 l 647 743 q 667 783 654 758 q 694 831 679 807 q 721 871 708 856 q 664 868 699 869 q 614 865 629 867 l 614 972 l 921 972 l 921 881 q 838 841 872 874 q 763 732 803 808 q 672 558 718 646 q 582 385 626 471 q 582 346 582 365 q 582 306 582 326 q 582 267 582 286 q 582 228 582 247 q 581 156 582 190 q 576 103 579 121 q 637 106 600 106 q 688 107 674 107 l 688 0 l 282 0 m 674 1075 l 481 1196 l 282 1078 l 244 1140 l 474 1349 l 500 1349 l 718 1140 l 674 1075 z "},"Ÿ":{"ha":926,"x_min":4,"x_max":921,"o":"m 282 0 l 282 92 q 335 100 314 93 q 369 132 357 107 q 381 213 381 157 l 381 333 l 125 738 q 89 808 106 769 q 72 869 72 847 q 35 867 50 868 q 4 865 19 867 l 4 972 l 414 972 l 414 881 q 347 872 374 883 q 315 837 321 861 q 332 774 310 813 l 438 600 q 458 565 444 589 q 487 513 472 540 q 508 465 501 486 l 510 465 q 533 515 517 482 q 575 601 550 549 l 647 743 q 667 783 654 758 q 694 831 679 807 q 721 871 708 856 q 664 868 699 869 q 614 865 629 867 l 614 972 l 921 972 l 921 881 q 838 841 872 874 q 763 732 803 808 q 672 558 718 646 q 582 385 626 471 q 582 346 582 365 q 582 306 582 326 q 582 267 582 286 q 582 228 582 247 q 581 156 582 190 q 576 103 579 121 q 637 106 600 106 q 688 107 674 107 l 688 0 l 282 0 m 358 1107 q 293 1138 321 1107 q 265 1211 265 1168 q 294 1287 265 1256 q 360 1318 322 1318 q 425 1287 399 1318 q 451 1211 451 1256 q 424 1138 451 1168 q 358 1107 396 1107 m 600 1107 q 536 1138 564 1107 q 508 1211 508 1168 q 537 1287 508 1256 q 601 1318 565 1318 q 667 1287 642 1318 q 693 1211 693 1256 q 665 1138 693 1168 q 600 1107 638 1107 z "},"Ỵ":{"ha":926,"x_min":4,"x_max":921,"o":"m 282 0 l 282 92 q 335 100 314 93 q 369 132 357 107 q 381 213 381 157 l 381 333 l 125 738 q 89 808 106 769 q 72 869 72 847 q 35 867 50 868 q 4 865 19 867 l 4 972 l 414 972 l 414 881 q 347 872 374 883 q 315 837 321 861 q 332 774 310 813 l 438 600 q 458 565 444 589 q 487 513 472 540 q 508 465 501 486 l 510 465 q 533 515 517 482 q 575 601 550 549 l 647 743 q 667 783 654 758 q 694 831 679 807 q 721 871 708 856 q 664 868 699 869 q 614 865 629 867 l 614 972 l 921 972 l 921 881 q 838 841 872 874 q 763 732 803 808 q 672 558 718 646 q 582 385 626 471 q 582 346 582 365 q 582 306 582 326 q 582 267 582 286 q 582 228 582 247 q 581 156 582 190 q 576 103 579 121 q 637 106 600 106 q 688 107 674 107 l 688 0 l 282 0 m 467 -265 q 404 -239 428 -265 q 381 -176 381 -212 q 406 -112 381 -139 q 465 -86 431 -86 q 524 -112 501 -86 q 547 -176 547 -139 q 525 -239 547 -212 q 467 -265 503 -265 z "},"Ỳ":{"ha":926,"x_min":4,"x_max":921,"o":"m 282 0 l 282 92 q 335 100 314 93 q 369 132 357 107 q 381 213 381 157 l 381 333 l 125 738 q 89 808 106 769 q 72 869 72 847 q 35 867 50 868 q 4 865 19 867 l 4 972 l 414 972 l 414 881 q 347 872 374 883 q 315 837 321 861 q 332 774 310 813 l 438 600 q 458 565 444 589 q 487 513 472 540 q 508 465 501 486 l 510 465 q 533 515 517 482 q 575 601 550 549 l 647 743 q 667 783 654 758 q 694 831 679 807 q 721 871 708 856 q 664 868 699 869 q 614 865 629 867 l 614 972 l 921 972 l 921 881 q 838 841 872 874 q 763 732 803 808 q 672 558 718 646 q 582 385 626 471 q 582 346 582 365 q 582 306 582 326 q 582 267 582 286 q 582 228 582 247 q 581 156 582 190 q 576 103 579 121 q 637 106 600 106 q 688 107 674 107 l 688 0 l 282 0 m 511 1042 l 314 1146 q 278 1181 293 1160 q 260 1228 263 1203 q 272 1276 257 1253 q 314 1305 290 1300 q 363 1301 338 1310 q 407 1274 388 1293 l 561 1110 l 511 1042 z "},"Ỷ":{"ha":926,"x_min":4,"x_max":921,"o":"m 282 0 l 282 92 q 335 100 314 93 q 369 132 357 107 q 381 213 381 157 l 381 333 l 125 738 q 89 808 106 769 q 72 869 72 847 q 35 867 50 868 q 4 865 19 867 l 4 972 l 414 972 l 414 881 q 347 872 374 883 q 315 837 321 861 q 332 774 310 813 l 438 600 q 458 565 444 589 q 487 513 472 540 q 508 465 501 486 l 510 465 q 533 515 517 482 q 575 601 550 549 l 647 743 q 667 783 654 758 q 694 831 679 807 q 721 871 708 856 q 664 868 699 869 q 614 865 629 867 l 614 972 l 921 972 l 921 881 q 838 841 872 874 q 763 732 803 808 q 672 558 718 646 q 582 385 626 471 q 582 346 582 365 q 582 306 582 326 q 582 267 582 286 q 582 228 582 247 q 581 156 582 190 q 576 103 579 121 q 637 106 600 106 q 688 107 674 107 l 688 0 l 282 0 m 451 1054 q 469 1099 451 1083 q 506 1133 488 1115 q 522 1157 515 1144 q 529 1188 529 1169 q 509 1231 529 1217 q 460 1246 489 1246 q 403 1232 421 1246 q 383 1208 386 1218 q 415 1197 404 1208 q 425 1171 425 1186 q 413 1142 425 1156 q 376 1128 400 1128 q 324 1149 344 1128 q 304 1199 304 1169 q 322 1260 304 1231 q 376 1310 340 1290 q 460 1329 411 1329 q 588 1294 542 1329 q 633 1200 633 1260 q 615 1142 633 1163 q 575 1108 597 1122 q 548 1081 558 1094 q 538 1054 538 1067 l 451 1054 z "},"Ỹ":{"ha":926,"x_min":4,"x_max":921,"o":"m 282 0 l 282 92 q 335 100 314 93 q 369 132 357 107 q 381 213 381 157 l 381 333 l 125 738 q 89 808 106 769 q 72 869 72 847 q 35 867 50 868 q 4 865 19 867 l 4 972 l 414 972 l 414 881 q 347 872 374 883 q 315 837 321 861 q 332 774 310 813 l 438 600 q 458 565 444 589 q 487 513 472 540 q 508 465 501 486 l 510 465 q 533 515 517 482 q 575 601 550 549 l 647 743 q 667 783 654 758 q 694 831 679 807 q 721 871 708 856 q 664 868 699 869 q 614 865 629 867 l 614 972 l 921 972 l 921 881 q 838 841 872 874 q 763 732 803 808 q 672 558 718 646 q 582 385 626 471 q 582 346 582 365 q 582 306 582 326 q 582 267 582 286 q 582 228 582 247 q 581 156 582 190 q 576 103 579 121 q 637 106 600 106 q 688 107 674 107 l 688 0 l 282 0 m 728 1283 q 651 1159 699 1197 q 563 1121 604 1121 q 498 1135 525 1121 q 447 1162 471 1149 q 394 1175 422 1175 q 353 1163 378 1175 q 308 1118 329 1151 l 231 1164 q 300 1267 254 1228 q 393 1307 346 1307 q 461 1294 436 1307 q 508 1267 486 1281 q 563 1254 529 1254 q 608 1273 586 1254 q 649 1324 631 1292 l 728 1283 z "},"Z":{"ha":839,"x_min":56,"x_max":779,"o":"m 56 0 l 56 104 q 263 421 160 263 q 471 738 367 579 q 519 810 497 778 q 568 874 542 843 l 331 882 q 204 837 254 885 q 154 676 154 789 l 63 676 l 71 972 l 778 972 l 778 868 l 378 263 q 319 177 349 219 q 258 97 290 135 l 513 92 q 639 137 590 90 q 688 297 688 183 l 779 297 l 771 0 l 56 0 z "},"Ź":{"ha":839,"x_min":56,"x_max":779,"o":"m 56 0 l 56 104 q 263 421 160 263 q 471 738 367 579 q 519 810 497 778 q 568 874 542 843 l 331 882 q 204 837 254 885 q 154 676 154 789 l 63 676 l 71 972 l 778 972 l 778 868 l 378 263 q 319 177 349 219 q 258 97 290 135 l 513 92 q 639 137 590 90 q 688 297 688 183 l 779 297 l 771 0 l 56 0 m 381 1042 l 331 1110 l 485 1274 q 529 1301 504 1293 q 578 1305 554 1310 q 619 1276 603 1300 q 633 1228 636 1253 q 615 1181 631 1203 q 578 1146 600 1160 l 381 1042 z "},"Ž":{"ha":839,"x_min":56,"x_max":779,"o":"m 56 0 l 56 104 q 263 421 160 263 q 471 738 367 579 q 519 810 497 778 q 568 874 542 843 l 331 882 q 204 837 254 885 q 154 676 154 789 l 63 676 l 71 972 l 778 972 l 778 868 l 378 263 q 319 177 349 219 q 258 97 290 135 l 513 92 q 639 137 590 90 q 688 297 688 183 l 779 297 l 771 0 l 56 0 m 417 1063 l 146 1271 l 189 1335 l 436 1214 l 690 1338 l 726 1275 l 443 1063 l 417 1063 z "},"Ż":{"ha":839,"x_min":56,"x_max":779,"o":"m 56 0 l 56 104 q 263 421 160 263 q 471 738 367 579 q 519 810 497 778 q 568 874 542 843 l 331 882 q 204 837 254 885 q 154 676 154 789 l 63 676 l 71 972 l 778 972 l 778 868 l 378 263 q 319 177 349 219 q 258 97 290 135 l 513 92 q 639 137 590 90 q 688 297 688 183 l 779 297 l 771 0 l 56 0 m 439 1096 q 361 1129 392 1096 q 331 1210 331 1163 q 363 1290 331 1257 q 438 1324 394 1324 q 512 1290 482 1324 q 542 1210 542 1257 q 514 1129 542 1163 q 439 1096 486 1096 z "},"a":{"ha":728,"x_min":42,"x_max":706,"o":"m 443 0 q 440 33 440 19 q 438 64 439 46 q 338 -3 390 17 q 231 -22 285 -22 q 92 31 142 -22 q 42 163 42 83 q 76 276 42 229 q 166 353 110 324 q 291 399 222 383 q 429 418 360 415 l 429 490 q 420 556 429 526 q 390 601 411 585 q 329 617 368 618 q 278 606 303 615 q 235 578 253 596 q 249 551 246 565 q 251 525 251 536 q 229 467 251 497 q 158 439 207 438 q 94 468 117 440 q 72 533 72 496 q 112 630 72 589 q 218 694 151 671 q 365 717 285 717 q 555 653 488 717 q 622 451 622 590 q 622 371 622 404 q 622 304 622 338 q 621 224 621 271 q 619 169 621 204 q 615 101 618 133 q 665 105 639 104 q 706 106 692 106 l 706 0 l 443 0 m 428 319 q 354 306 389 315 q 294 279 319 296 q 253 239 268 263 q 239 186 239 215 q 264 131 240 147 q 318 114 288 114 q 378 128 350 114 q 428 164 406 142 q 428 191 428 178 q 428 218 428 204 q 428 269 428 243 q 428 319 428 294 z "},"á":{"ha":728,"x_min":42,"x_max":706,"o":"m 443 0 q 440 33 440 19 q 438 64 439 46 q 338 -3 390 17 q 231 -22 285 -22 q 92 31 142 -22 q 42 163 42 83 q 76 276 42 229 q 166 353 110 324 q 291 399 222 383 q 429 418 360 415 l 429 490 q 420 556 429 526 q 390 601 411 585 q 329 617 368 618 q 278 606 303 615 q 235 578 253 596 q 249 551 246 565 q 251 525 251 536 q 229 467 251 497 q 158 439 207 438 q 94 468 117 440 q 72 533 72 496 q 112 630 72 589 q 218 694 151 671 q 365 717 285 717 q 555 653 488 717 q 622 451 622 590 q 622 371 622 404 q 622 304 622 338 q 621 224 621 271 q 619 169 621 204 q 615 101 618 133 q 665 105 639 104 q 706 106 692 106 l 706 0 l 443 0 m 428 319 q 354 306 389 315 q 294 279 319 296 q 253 239 268 263 q 239 186 239 215 q 264 131 240 147 q 318 114 288 114 q 378 128 350 114 q 428 164 406 142 q 428 191 428 178 q 428 218 428 204 q 428 269 428 243 q 428 319 428 294 m 279 785 l 215 842 l 329 1036 q 366 1073 344 1060 q 413 1087 388 1086 q 460 1069 438 1088 q 485 1024 482 1050 q 477 974 488 999 q 447 932 467 950 l 279 785 z "},"ă":{"ha":728,"x_min":42,"x_max":706,"o":"m 443 0 q 440 33 440 19 q 438 64 439 46 q 338 -3 390 17 q 231 -22 285 -22 q 92 31 142 -22 q 42 163 42 83 q 76 276 42 229 q 166 353 110 324 q 291 399 222 383 q 429 418 360 415 l 429 490 q 420 556 429 526 q 390 601 411 585 q 329 617 368 618 q 278 606 303 615 q 235 578 253 596 q 249 551 246 565 q 251 525 251 536 q 229 467 251 497 q 158 439 207 438 q 94 468 117 440 q 72 533 72 496 q 112 630 72 589 q 218 694 151 671 q 365 717 285 717 q 555 653 488 717 q 622 451 622 590 q 622 371 622 404 q 622 304 622 338 q 621 224 621 271 q 619 169 621 204 q 615 101 618 133 q 665 105 639 104 q 706 106 692 106 l 706 0 l 443 0 m 428 319 q 354 306 389 315 q 294 279 319 296 q 253 239 268 263 q 239 186 239 215 q 264 131 240 147 q 318 114 288 114 q 378 128 350 114 q 428 164 406 142 q 428 191 428 178 q 428 218 428 204 q 428 269 428 243 q 428 319 428 294 m 347 833 q 267 851 308 833 q 189 908 225 868 q 131 1014 153 947 l 221 1060 q 274 991 243 1021 q 353 961 304 961 q 431 992 401 961 q 479 1061 460 1022 l 569 1021 q 476 876 533 919 q 347 833 418 833 z "},"ắ":{"ha":728,"x_min":42,"x_max":706,"o":"m 443 0 q 440 33 440 19 q 438 64 439 46 q 338 -3 390 17 q 231 -22 285 -22 q 92 31 142 -22 q 42 163 42 83 q 76 276 42 229 q 166 353 110 324 q 291 399 222 383 q 429 418 360 415 l 429 490 q 420 556 429 526 q 390 601 411 585 q 329 617 368 618 q 278 606 303 615 q 235 578 253 596 q 249 551 246 565 q 251 525 251 536 q 229 467 251 497 q 158 439 207 438 q 94 468 117 440 q 72 533 72 496 q 112 630 72 589 q 218 694 151 671 q 365 717 285 717 q 555 653 488 717 q 622 451 622 590 q 622 371 622 404 q 622 304 622 338 q 621 224 621 271 q 619 169 621 204 q 615 101 618 133 q 665 105 639 104 q 706 106 692 106 l 706 0 l 443 0 m 428 319 q 354 306 389 315 q 294 279 319 296 q 253 239 268 263 q 239 186 239 215 q 264 131 240 147 q 318 114 288 114 q 378 128 350 114 q 428 164 406 142 q 428 191 428 178 q 428 218 428 204 q 428 269 428 243 q 428 319 428 294 m 347 768 q 267 785 308 768 q 189 842 225 803 q 131 949 153 882 l 221 994 q 274 926 243 956 q 353 896 304 896 q 431 926 401 896 q 479 996 460 957 l 569 956 q 476 811 533 854 q 347 768 418 768 m 354 982 l 290 1039 l 404 1233 q 440 1271 418 1257 q 488 1285 463 1285 q 535 1267 513 1285 q 560 1221 557 1247 q 552 1170 563 1194 q 522 1129 542 1146 l 354 982 z "},"ặ":{"ha":728,"x_min":42,"x_max":706,"o":"m 443 0 q 440 33 440 19 q 438 64 439 46 q 338 -3 390 17 q 231 -22 285 -22 q 92 31 142 -22 q 42 163 42 83 q 76 276 42 229 q 166 353 110 324 q 291 399 222 383 q 429 418 360 415 l 429 490 q 420 556 429 526 q 390 601 411 585 q 329 617 368 618 q 278 606 303 615 q 235 578 253 596 q 249 551 246 565 q 251 525 251 536 q 229 467 251 497 q 158 439 207 438 q 94 468 117 440 q 72 533 72 496 q 112 630 72 589 q 218 694 151 671 q 365 717 285 717 q 555 653 488 717 q 622 451 622 590 q 622 371 622 404 q 622 304 622 338 q 621 224 621 271 q 619 169 621 204 q 615 101 618 133 q 665 105 639 104 q 706 106 692 106 l 706 0 l 443 0 m 428 319 q 354 306 389 315 q 294 279 319 296 q 253 239 268 263 q 239 186 239 215 q 264 131 240 147 q 318 114 288 114 q 378 128 350 114 q 428 164 406 142 q 428 191 428 178 q 428 218 428 204 q 428 269 428 243 q 428 319 428 294 m 367 -265 q 304 -239 328 -265 q 281 -176 281 -212 q 306 -112 281 -139 q 365 -86 331 -86 q 424 -112 401 -86 q 447 -176 447 -139 q 425 -239 447 -212 q 367 -265 403 -265 m 347 833 q 267 851 308 833 q 189 908 225 868 q 131 1014 153 947 l 221 1060 q 274 991 243 1021 q 353 961 304 961 q 431 992 401 961 q 479 1061 460 1022 l 569 1021 q 476 876 533 919 q 347 833 418 833 z "},"ằ":{"ha":728,"x_min":42,"x_max":706,"o":"m 443 0 q 440 33 440 19 q 438 64 439 46 q 338 -3 390 17 q 231 -22 285 -22 q 92 31 142 -22 q 42 163 42 83 q 76 276 42 229 q 166 353 110 324 q 291 399 222 383 q 429 418 360 415 l 429 490 q 420 556 429 526 q 390 601 411 585 q 329 617 368 618 q 278 606 303 615 q 235 578 253 596 q 249 551 246 565 q 251 525 251 536 q 229 467 251 497 q 158 439 207 438 q 94 468 117 440 q 72 533 72 496 q 112 630 72 589 q 218 694 151 671 q 365 717 285 717 q 555 653 488 717 q 622 451 622 590 q 622 371 622 404 q 622 304 622 338 q 621 224 621 271 q 619 169 621 204 q 615 101 618 133 q 665 105 639 104 q 706 106 692 106 l 706 0 l 443 0 m 428 319 q 354 306 389 315 q 294 279 319 296 q 253 239 268 263 q 239 186 239 215 q 264 131 240 147 q 318 114 288 114 q 378 128 350 114 q 428 164 406 142 q 428 191 428 178 q 428 218 428 204 q 428 269 428 243 q 428 319 428 294 m 351 982 l 183 1129 q 153 1170 164 1146 q 147 1221 143 1194 q 172 1267 150 1247 q 219 1285 194 1285 q 265 1271 243 1285 q 301 1233 288 1257 l 415 1039 l 351 982 m 347 764 q 267 781 308 764 q 189 838 225 799 q 131 944 153 878 l 221 990 q 274 922 243 951 q 353 892 304 892 q 431 922 401 892 q 479 992 460 953 l 569 951 q 476 807 533 850 q 347 764 418 764 z "},"ẳ":{"ha":728,"x_min":42,"x_max":706,"o":"m 443 0 q 440 33 440 19 q 438 64 439 46 q 338 -3 390 17 q 231 -22 285 -22 q 92 31 142 -22 q 42 163 42 83 q 76 276 42 229 q 166 353 110 324 q 291 399 222 383 q 429 418 360 415 l 429 490 q 420 556 429 526 q 390 601 411 585 q 329 617 368 618 q 278 606 303 615 q 235 578 253 596 q 249 551 246 565 q 251 525 251 536 q 229 467 251 497 q 158 439 207 438 q 94 468 117 440 q 72 533 72 496 q 112 630 72 589 q 218 694 151 671 q 365 717 285 717 q 555 653 488 717 q 622 451 622 590 q 622 371 622 404 q 622 304 622 338 q 621 224 621 271 q 619 169 621 204 q 615 101 618 133 q 665 105 639 104 q 706 106 692 106 l 706 0 l 443 0 m 428 319 q 354 306 389 315 q 294 279 319 296 q 253 239 268 263 q 239 186 239 215 q 264 131 240 147 q 318 114 288 114 q 378 128 350 114 q 428 164 406 142 q 428 191 428 178 q 428 218 428 204 q 428 269 428 243 q 428 319 428 294 m 347 765 q 267 783 308 765 q 189 840 225 800 q 131 946 153 879 l 221 992 q 274 923 243 953 q 353 893 304 893 q 431 924 401 893 q 479 993 460 954 l 569 953 q 476 808 533 851 q 347 765 418 765 m 313 988 q 331 1033 313 1017 q 367 1067 350 1049 q 383 1090 376 1078 q 390 1121 390 1103 q 370 1165 390 1150 q 321 1179 350 1179 q 265 1165 282 1179 q 244 1142 247 1151 q 276 1131 265 1142 q 286 1104 286 1119 q 274 1075 286 1089 q 238 1061 261 1061 q 185 1082 206 1061 q 165 1132 165 1103 q 183 1194 165 1164 q 237 1243 201 1224 q 321 1263 272 1263 q 449 1228 403 1263 q 494 1133 494 1193 q 475 1077 494 1096 q 436 1042 456 1058 q 409 1014 419 1028 q 399 988 399 1000 l 313 988 z "},"ẵ":{"ha":728,"x_min":42,"x_max":706,"o":"m 443 0 q 440 33 440 19 q 438 64 439 46 q 338 -3 390 17 q 231 -22 285 -22 q 92 31 142 -22 q 42 163 42 83 q 76 276 42 229 q 166 353 110 324 q 291 399 222 383 q 429 418 360 415 l 429 490 q 420 556 429 526 q 390 601 411 585 q 329 617 368 618 q 278 606 303 615 q 235 578 253 596 q 249 551 246 565 q 251 525 251 536 q 229 467 251 497 q 158 439 207 438 q 94 468 117 440 q 72 533 72 496 q 112 630 72 589 q 218 694 151 671 q 365 717 285 717 q 555 653 488 717 q 622 451 622 590 q 622 371 622 404 q 622 304 622 338 q 621 224 621 271 q 619 169 621 204 q 615 101 618 133 q 665 105 639 104 q 706 106 692 106 l 706 0 l 443 0 m 428 319 q 354 306 389 315 q 294 279 319 296 q 253 239 268 263 q 239 186 239 215 q 264 131 240 147 q 318 114 288 114 q 378 128 350 114 q 428 164 406 142 q 428 191 428 178 q 428 218 428 204 q 428 269 428 243 q 428 319 428 294 m 328 765 q 247 783 289 765 q 169 840 206 800 q 111 946 133 879 l 201 992 q 254 923 224 953 q 333 893 285 893 q 411 924 382 893 q 460 993 440 954 l 550 953 q 456 808 514 851 q 328 765 399 765 m 599 1200 q 522 1076 569 1114 q 433 1038 475 1038 q 369 1051 396 1038 q 317 1078 342 1065 q 265 1092 293 1092 q 224 1080 249 1092 q 179 1035 200 1068 l 101 1081 q 171 1184 125 1144 q 264 1224 217 1224 q 332 1210 307 1224 q 378 1184 357 1197 q 433 1171 400 1171 q 479 1190 457 1171 q 519 1240 501 1208 l 599 1200 z "},"ǎ":{"ha":728,"x_min":42,"x_max":706,"o":"m 443 0 q 440 33 440 19 q 438 64 439 46 q 338 -3 390 17 q 231 -22 285 -22 q 92 31 142 -22 q 42 163 42 83 q 76 276 42 229 q 166 353 110 324 q 291 399 222 383 q 429 418 360 415 l 429 490 q 420 556 429 526 q 390 601 411 585 q 329 617 368 618 q 278 606 303 615 q 235 578 253 596 q 249 551 246 565 q 251 525 251 536 q 229 467 251 497 q 158 439 207 438 q 94 468 117 440 q 72 533 72 496 q 112 630 72 589 q 218 694 151 671 q 365 717 285 717 q 555 653 488 717 q 622 451 622 590 q 622 371 622 404 q 622 304 622 338 q 621 224 621 271 q 619 169 621 204 q 615 101 618 133 q 665 105 639 104 q 706 106 692 106 l 706 0 l 443 0 m 428 319 q 354 306 389 315 q 294 279 319 296 q 253 239 268 263 q 239 186 239 215 q 264 131 240 147 q 318 114 288 114 q 378 128 350 114 q 428 164 406 142 q 428 191 428 178 q 428 218 428 204 q 428 269 428 243 q 428 319 428 294 m 342 774 l 117 1008 l 176 1079 l 356 933 l 357 933 l 525 1079 l 583 1013 l 357 774 l 342 774 z "},"â":{"ha":728,"x_min":42,"x_max":706,"o":"m 443 0 q 440 33 440 19 q 438 64 439 46 q 338 -3 390 17 q 231 -22 285 -22 q 92 31 142 -22 q 42 163 42 83 q 76 276 42 229 q 166 353 110 324 q 291 399 222 383 q 429 418 360 415 l 429 490 q 420 556 429 526 q 390 601 411 585 q 329 617 368 618 q 278 606 303 615 q 235 578 253 596 q 249 551 246 565 q 251 525 251 536 q 229 467 251 497 q 158 439 207 438 q 94 468 117 440 q 72 533 72 496 q 112 630 72 589 q 218 694 151 671 q 365 717 285 717 q 555 653 488 717 q 622 451 622 590 q 622 371 622 404 q 622 304 622 338 q 621 224 621 271 q 619 169 621 204 q 615 101 618 133 q 665 105 639 104 q 706 106 692 106 l 706 0 l 443 0 m 428 319 q 354 306 389 315 q 294 279 319 296 q 253 239 268 263 q 239 186 239 215 q 264 131 240 147 q 318 114 288 114 q 378 128 350 114 q 428 164 406 142 q 428 191 428 178 q 428 218 428 204 q 428 269 428 243 q 428 319 428 294 m 526 781 l 350 926 l 349 926 l 171 790 l 113 857 l 350 1088 l 364 1088 l 586 851 l 526 781 z "},"ấ":{"ha":728,"x_min":42,"x_max":801,"o":"m 443 0 q 440 33 440 19 q 438 64 439 46 q 338 -3 390 17 q 231 -22 285 -22 q 92 31 142 -22 q 42 163 42 83 q 76 276 42 229 q 166 353 110 324 q 291 399 222 383 q 429 418 360 415 l 429 490 q 420 556 429 526 q 390 601 411 585 q 329 617 368 618 q 278 606 303 615 q 235 578 253 596 q 249 551 246 565 q 251 525 251 536 q 229 467 251 497 q 158 439 207 438 q 94 468 117 440 q 72 533 72 496 q 112 630 72 589 q 218 694 151 671 q 365 717 285 717 q 555 653 488 717 q 622 451 622 590 q 622 371 622 404 q 622 304 622 338 q 621 224 621 271 q 619 169 621 204 q 615 101 618 133 q 665 105 639 104 q 706 106 692 106 l 706 0 l 443 0 m 428 319 q 354 306 389 315 q 294 279 319 296 q 253 239 268 263 q 239 186 239 215 q 264 131 240 147 q 318 114 288 114 q 378 128 350 114 q 428 164 406 142 q 428 191 428 178 q 428 218 428 204 q 428 269 428 243 q 428 319 428 294 m 511 781 l 351 881 l 188 782 l 156 833 l 346 1006 l 367 1006 l 547 833 l 511 781 m 593 903 l 529 960 l 643 1154 q 679 1192 657 1178 q 726 1206 701 1206 q 774 1188 751 1206 q 799 1142 796 1168 q 791 1091 801 1115 q 761 1050 781 1067 l 593 903 z "},"ậ":{"ha":728,"x_min":42,"x_max":706,"o":"m 443 0 q 440 33 440 19 q 438 64 439 46 q 338 -3 390 17 q 231 -22 285 -22 q 92 31 142 -22 q 42 163 42 83 q 76 276 42 229 q 166 353 110 324 q 291 399 222 383 q 429 418 360 415 l 429 490 q 420 556 429 526 q 390 601 411 585 q 329 617 368 618 q 278 606 303 615 q 235 578 253 596 q 249 551 246 565 q 251 525 251 536 q 229 467 251 497 q 158 439 207 438 q 94 468 117 440 q 72 533 72 496 q 112 630 72 589 q 218 694 151 671 q 365 717 285 717 q 555 653 488 717 q 622 451 622 590 q 622 371 622 404 q 622 304 622 338 q 621 224 621 271 q 619 169 621 204 q 615 101 618 133 q 665 105 639 104 q 706 106 692 106 l 706 0 l 443 0 m 428 319 q 354 306 389 315 q 294 279 319 296 q 253 239 268 263 q 239 186 239 215 q 264 131 240 147 q 318 114 288 114 q 378 128 350 114 q 428 164 406 142 q 428 191 428 178 q 428 218 428 204 q 428 269 428 243 q 428 319 428 294 m 367 -265 q 304 -239 328 -265 q 281 -176 281 -212 q 306 -112 281 -139 q 365 -86 331 -86 q 424 -112 401 -86 q 447 -176 447 -139 q 425 -239 447 -212 q 367 -265 403 -265 m 526 781 l 350 926 l 349 926 l 171 790 l 113 857 l 350 1088 l 364 1088 l 586 851 l 526 781 z "},"ầ":{"ha":728,"x_min":42,"x_max":706,"o":"m 443 0 q 440 33 440 19 q 438 64 439 46 q 338 -3 390 17 q 231 -22 285 -22 q 92 31 142 -22 q 42 163 42 83 q 76 276 42 229 q 166 353 110 324 q 291 399 222 383 q 429 418 360 415 l 429 490 q 420 556 429 526 q 390 601 411 585 q 329 617 368 618 q 278 606 303 615 q 235 578 253 596 q 249 551 246 565 q 251 525 251 536 q 229 467 251 497 q 158 439 207 438 q 94 468 117 440 q 72 533 72 496 q 112 630 72 589 q 218 694 151 671 q 365 717 285 717 q 555 653 488 717 q 622 451 622 590 q 622 371 622 404 q 622 304 622 338 q 621 224 621 271 q 619 169 621 204 q 615 101 618 133 q 665 105 639 104 q 706 106 692 106 l 706 0 l 443 0 m 428 319 q 354 306 389 315 q 294 279 319 296 q 253 239 268 263 q 239 186 239 215 q 264 131 240 147 q 318 114 288 114 q 378 128 350 114 q 428 164 406 142 q 428 191 428 178 q 428 218 428 204 q 428 269 428 243 q 428 319 428 294 m 511 781 l 351 881 l 188 782 l 156 833 l 346 1006 l 367 1006 l 547 833 l 511 781 m 563 963 l 394 1110 q 365 1151 375 1126 q 358 1201 354 1175 q 383 1247 361 1228 q 430 1265 406 1265 q 476 1251 454 1265 q 513 1214 499 1238 l 626 1019 l 563 963 z "},"ẩ":{"ha":728,"x_min":42,"x_max":706,"o":"m 443 0 q 440 33 440 19 q 438 64 439 46 q 338 -3 390 17 q 231 -22 285 -22 q 92 31 142 -22 q 42 163 42 83 q 76 276 42 229 q 166 353 110 324 q 291 399 222 383 q 429 418 360 415 l 429 490 q 420 556 429 526 q 390 601 411 585 q 329 617 368 618 q 278 606 303 615 q 235 578 253 596 q 249 551 246 565 q 251 525 251 536 q 229 467 251 497 q 158 439 207 438 q 94 468 117 440 q 72 533 72 496 q 112 630 72 589 q 218 694 151 671 q 365 717 285 717 q 555 653 488 717 q 622 451 622 590 q 622 371 622 404 q 622 304 622 338 q 621 224 621 271 q 619 169 621 204 q 615 101 618 133 q 665 105 639 104 q 706 106 692 106 l 706 0 l 443 0 m 428 319 q 354 306 389 315 q 294 279 319 296 q 253 239 268 263 q 239 186 239 215 q 264 131 240 147 q 318 114 288 114 q 378 128 350 114 q 428 164 406 142 q 428 191 428 178 q 428 218 428 204 q 428 269 428 243 q 428 319 428 294 m 511 781 l 351 881 l 188 782 l 156 833 l 346 1006 l 367 1006 l 547 833 l 511 781 m 507 975 q 526 1020 507 1004 q 561 1054 544 1036 q 578 1078 571 1065 q 585 1108 585 1090 q 565 1152 585 1138 q 515 1167 544 1167 q 459 1153 476 1167 q 439 1129 442 1139 q 470 1118 460 1129 q 481 1092 481 1107 q 468 1063 481 1076 q 432 1049 456 1049 q 380 1069 400 1049 q 360 1119 360 1090 q 378 1181 360 1151 q 431 1231 396 1211 q 515 1250 467 1250 q 643 1215 597 1250 q 689 1121 689 1181 q 669 1065 689 1083 q 631 1029 650 1046 q 603 1001 614 1015 q 593 975 593 988 l 507 975 z "},"ẫ":{"ha":728,"x_min":42,"x_max":706,"o":"m 443 0 q 440 33 440 19 q 438 64 439 46 q 338 -3 390 17 q 231 -22 285 -22 q 92 31 142 -22 q 42 163 42 83 q 76 276 42 229 q 166 353 110 324 q 291 399 222 383 q 429 418 360 415 l 429 490 q 420 556 429 526 q 390 601 411 585 q 329 617 368 618 q 278 606 303 615 q 235 578 253 596 q 249 551 246 565 q 251 525 251 536 q 229 467 251 497 q 158 439 207 438 q 94 468 117 440 q 72 533 72 496 q 112 630 72 589 q 218 694 151 671 q 365 717 285 717 q 555 653 488 717 q 622 451 622 590 q 622 371 622 404 q 622 304 622 338 q 621 224 621 271 q 619 169 621 204 q 615 101 618 133 q 665 105 639 104 q 706 106 692 106 l 706 0 l 443 0 m 428 319 q 354 306 389 315 q 294 279 319 296 q 253 239 268 263 q 239 186 239 215 q 264 131 240 147 q 318 114 288 114 q 378 128 350 114 q 428 164 406 142 q 428 191 428 178 q 428 218 428 204 q 428 269 428 243 q 428 319 428 294 m 511 781 l 351 881 l 188 782 l 156 833 l 346 1006 l 367 1006 l 547 833 l 511 781 m 633 1189 q 557 1065 604 1103 q 468 1026 510 1026 q 403 1040 431 1026 q 352 1067 376 1054 q 300 1081 328 1081 q 259 1069 283 1081 q 214 1024 235 1057 l 136 1069 q 206 1173 160 1133 q 299 1213 251 1213 q 367 1199 342 1213 q 413 1173 392 1186 q 468 1160 435 1160 q 514 1178 492 1160 q 554 1229 536 1197 l 633 1189 z "},"ä":{"ha":728,"x_min":42,"x_max":706,"o":"m 443 0 q 440 33 440 19 q 438 64 439 46 q 338 -3 390 17 q 231 -22 285 -22 q 92 31 142 -22 q 42 163 42 83 q 76 276 42 229 q 166 353 110 324 q 291 399 222 383 q 429 418 360 415 l 429 490 q 420 556 429 526 q 390 601 411 585 q 329 617 368 618 q 278 606 303 615 q 235 578 253 596 q 249 551 246 565 q 251 525 251 536 q 229 467 251 497 q 158 439 207 438 q 94 468 117 440 q 72 533 72 496 q 112 630 72 589 q 218 694 151 671 q 365 717 285 717 q 555 653 488 717 q 622 451 622 590 q 622 371 622 404 q 622 304 622 338 q 621 224 621 271 q 619 169 621 204 q 615 101 618 133 q 665 105 639 104 q 706 106 692 106 l 706 0 l 443 0 m 428 319 q 354 306 389 315 q 294 279 319 296 q 253 239 268 263 q 239 186 239 215 q 264 131 240 147 q 318 114 288 114 q 378 128 350 114 q 428 164 406 142 q 428 191 428 178 q 428 218 428 204 q 428 269 428 243 q 428 319 428 294 m 469 833 q 405 864 432 833 q 378 938 378 894 q 406 1012 378 981 q 471 1043 433 1043 q 537 1012 511 1043 q 563 938 563 981 q 535 864 563 894 q 469 833 507 833 m 228 833 q 163 864 190 833 q 136 938 136 894 q 164 1012 136 981 q 229 1043 192 1043 q 295 1012 269 1043 q 321 938 321 981 q 293 864 321 894 q 228 833 265 833 z "},"ạ":{"ha":728,"x_min":42,"x_max":706,"o":"m 443 0 q 440 33 440 19 q 438 64 439 46 q 338 -3 390 17 q 231 -22 285 -22 q 92 31 142 -22 q 42 163 42 83 q 76 276 42 229 q 166 353 110 324 q 291 399 222 383 q 429 418 360 415 l 429 490 q 420 556 429 526 q 390 601 411 585 q 329 617 368 618 q 278 606 303 615 q 235 578 253 596 q 249 551 246 565 q 251 525 251 536 q 229 467 251 497 q 158 439 207 438 q 94 468 117 440 q 72 533 72 496 q 112 630 72 589 q 218 694 151 671 q 365 717 285 717 q 555 653 488 717 q 622 451 622 590 q 622 371 622 404 q 622 304 622 338 q 621 224 621 271 q 619 169 621 204 q 615 101 618 133 q 665 105 639 104 q 706 106 692 106 l 706 0 l 443 0 m 428 319 q 354 306 389 315 q 294 279 319 296 q 253 239 268 263 q 239 186 239 215 q 264 131 240 147 q 318 114 288 114 q 378 128 350 114 q 428 164 406 142 q 428 191 428 178 q 428 218 428 204 q 428 269 428 243 q 428 319 428 294 m 367 -265 q 304 -239 328 -265 q 281 -176 281 -212 q 306 -112 281 -139 q 365 -86 331 -86 q 424 -112 401 -86 q 447 -176 447 -139 q 425 -239 447 -212 q 367 -265 403 -265 z "},"à":{"ha":728,"x_min":42,"x_max":706,"o":"m 443 0 q 440 33 440 19 q 438 64 439 46 q 338 -3 390 17 q 231 -22 285 -22 q 92 31 142 -22 q 42 163 42 83 q 76 276 42 229 q 166 353 110 324 q 291 399 222 383 q 429 418 360 415 l 429 490 q 420 556 429 526 q 390 601 411 585 q 329 617 368 618 q 278 606 303 615 q 235 578 253 596 q 249 551 246 565 q 251 525 251 536 q 229 467 251 497 q 158 439 207 438 q 94 468 117 440 q 72 533 72 496 q 112 630 72 589 q 218 694 151 671 q 365 717 285 717 q 555 653 488 717 q 622 451 622 590 q 622 371 622 404 q 622 304 622 338 q 621 224 621 271 q 619 169 621 204 q 615 101 618 133 q 665 105 639 104 q 706 106 692 106 l 706 0 l 443 0 m 428 319 q 354 306 389 315 q 294 279 319 296 q 253 239 268 263 q 239 186 239 215 q 264 131 240 147 q 318 114 288 114 q 378 128 350 114 q 428 164 406 142 q 428 191 428 178 q 428 218 428 204 q 428 269 428 243 q 428 319 428 294 m 421 785 l 253 932 q 224 974 235 950 q 216 1024 213 999 q 242 1069 219 1050 q 288 1087 264 1088 q 335 1073 313 1086 q 371 1036 357 1060 l 485 842 l 421 785 z "},"ả":{"ha":728,"x_min":42,"x_max":706,"o":"m 443 0 q 440 33 440 19 q 438 64 439 46 q 338 -3 390 17 q 231 -22 285 -22 q 92 31 142 -22 q 42 163 42 83 q 76 276 42 229 q 166 353 110 324 q 291 399 222 383 q 429 418 360 415 l 429 490 q 420 556 429 526 q 390 601 411 585 q 329 617 368 618 q 278 606 303 615 q 235 578 253 596 q 249 551 246 565 q 251 525 251 536 q 229 467 251 497 q 158 439 207 438 q 94 468 117 440 q 72 533 72 496 q 112 630 72 589 q 218 694 151 671 q 365 717 285 717 q 555 653 488 717 q 622 451 622 590 q 622 371 622 404 q 622 304 622 338 q 621 224 621 271 q 619 169 621 204 q 615 101 618 133 q 665 105 639 104 q 706 106 692 106 l 706 0 l 443 0 m 428 319 q 354 306 389 315 q 294 279 319 296 q 253 239 268 263 q 239 186 239 215 q 264 131 240 147 q 318 114 288 114 q 378 128 350 114 q 428 164 406 142 q 428 191 428 178 q 428 218 428 204 q 428 269 428 243 q 428 319 428 294 m 322 776 q 340 822 322 806 q 376 856 358 838 q 393 879 386 867 q 400 910 400 892 q 380 953 400 939 q 331 968 360 968 q 274 954 292 968 q 254 931 257 940 q 285 919 275 931 q 296 893 296 908 q 283 864 296 878 q 247 850 271 850 q 195 871 215 850 q 175 921 175 892 q 193 983 175 953 q 247 1032 211 1013 q 331 1051 282 1051 q 458 1017 413 1051 q 504 922 504 982 q 486 865 504 885 q 446 831 468 844 q 419 803 429 817 q 408 776 408 789 l 322 776 z "},"ā":{"ha":728,"x_min":42,"x_max":706,"o":"m 443 0 q 440 33 440 19 q 438 64 439 46 q 338 -3 390 17 q 231 -22 285 -22 q 92 31 142 -22 q 42 163 42 83 q 76 276 42 229 q 166 353 110 324 q 291 399 222 383 q 429 418 360 415 l 429 490 q 420 556 429 526 q 390 601 411 585 q 329 617 368 618 q 278 606 303 615 q 235 578 253 596 q 249 551 246 565 q 251 525 251 536 q 229 467 251 497 q 158 439 207 438 q 94 468 117 440 q 72 533 72 496 q 112 630 72 589 q 218 694 151 671 q 365 717 285 717 q 555 653 488 717 q 622 451 622 590 q 622 371 622 404 q 622 304 622 338 q 621 224 621 271 q 619 169 621 204 q 615 101 618 133 q 665 105 639 104 q 706 106 692 106 l 706 0 l 443 0 m 428 319 q 354 306 389 315 q 294 279 319 296 q 253 239 268 263 q 239 186 239 215 q 264 131 240 147 q 318 114 288 114 q 378 128 350 114 q 428 164 406 142 q 428 191 428 178 q 428 218 428 204 q 428 269 428 243 q 428 319 428 294 m 153 871 l 153 1004 l 547 1004 l 547 876 l 153 871 z "},"ą":{"ha":728,"x_min":42,"x_max":706,"o":"m 443 0 q 440 33 440 19 q 438 64 439 46 q 338 -3 390 17 q 231 -22 285 -22 q 92 31 142 -22 q 42 163 42 83 q 76 276 42 229 q 166 353 110 324 q 291 399 222 383 q 429 418 360 415 l 429 490 q 420 556 429 526 q 390 601 411 585 q 329 617 368 618 q 278 606 303 615 q 235 578 253 596 q 249 551 246 565 q 251 525 251 536 q 229 467 251 497 q 158 439 207 438 q 94 468 117 440 q 72 533 72 496 q 112 630 72 589 q 218 694 151 671 q 365 717 285 717 q 555 653 488 717 q 622 451 622 590 q 622 371 622 404 q 622 304 622 338 q 621 224 621 271 q 619 169 621 204 q 615 101 618 133 q 665 105 639 104 q 706 106 692 106 l 706 0 l 443 0 m 428 319 q 354 306 389 315 q 294 279 319 296 q 253 239 268 263 q 239 186 239 215 q 264 131 240 147 q 318 114 288 114 q 378 128 350 114 q 428 164 406 142 q 428 191 428 178 q 428 218 428 204 q 428 269 428 243 q 428 319 428 294 m 490 -361 q 382 -325 424 -361 q 340 -218 340 -289 q 385 -96 340 -153 q 503 4 431 -39 q 654 71 575 47 l 654 7 q 569 -40 611 -11 q 502 -104 528 -68 q 478 -179 476 -140 q 495 -219 479 -204 q 539 -235 511 -235 q 581 -224 558 -235 q 625 -194 603 -214 l 674 -254 q 589 -331 638 -301 q 490 -361 540 -361 z "},"å":{"ha":728,"x_min":42,"x_max":706,"o":"m 443 0 q 440 33 440 19 q 438 64 439 46 q 338 -3 390 17 q 231 -22 285 -22 q 92 31 142 -22 q 42 163 42 83 q 76 276 42 229 q 166 353 110 324 q 291 399 222 383 q 429 418 360 415 l 429 490 q 420 556 429 526 q 390 601 411 585 q 329 617 368 618 q 278 606 303 615 q 235 578 253 596 q 249 551 246 565 q 251 525 251 536 q 229 467 251 497 q 158 439 207 438 q 94 468 117 440 q 72 533 72 496 q 112 630 72 589 q 218 694 151 671 q 365 717 285 717 q 555 653 488 717 q 622 451 622 590 q 622 371 622 404 q 622 304 622 338 q 621 224 621 271 q 619 169 621 204 q 615 101 618 133 q 665 105 639 104 q 706 106 692 106 l 706 0 l 443 0 m 428 319 q 354 306 389 315 q 294 279 319 296 q 253 239 268 263 q 239 186 239 215 q 264 131 240 147 q 318 114 288 114 q 378 128 350 114 q 428 164 406 142 q 428 191 428 178 q 428 218 428 204 q 428 269 428 243 q 428 319 428 294 m 351 782 q 276 800 314 782 q 214 853 239 818 q 186 936 189 888 q 208 1022 185 985 q 269 1082 231 1060 q 350 1104 307 1104 q 426 1088 389 1104 q 488 1038 464 1071 q 514 951 513 1004 q 492 862 515 900 q 430 803 468 824 q 351 782 392 782 m 358 867 q 390 885 376 868 q 404 933 404 901 q 388 1001 404 981 q 349 1021 372 1021 q 316 1004 331 1019 q 301 954 301 989 q 317 889 301 911 q 358 867 333 867 z "},"ã":{"ha":728,"x_min":42,"x_max":706,"o":"m 443 0 q 440 33 440 19 q 438 64 439 46 q 338 -3 390 17 q 231 -22 285 -22 q 92 31 142 -22 q 42 163 42 83 q 76 276 42 229 q 166 353 110 324 q 291 399 222 383 q 429 418 360 415 l 429 490 q 420 556 429 526 q 390 601 411 585 q 329 617 368 618 q 278 606 303 615 q 235 578 253 596 q 249 551 246 565 q 251 525 251 536 q 229 467 251 497 q 158 439 207 438 q 94 468 117 440 q 72 533 72 496 q 112 630 72 589 q 218 694 151 671 q 365 717 285 717 q 555 653 488 717 q 622 451 622 590 q 622 371 622 404 q 622 304 622 338 q 621 224 621 271 q 619 169 621 204 q 615 101 618 133 q 665 105 639 104 q 706 106 692 106 l 706 0 l 443 0 m 428 319 q 354 306 389 315 q 294 279 319 296 q 253 239 268 263 q 239 186 239 215 q 264 131 240 147 q 318 114 288 114 q 378 128 350 114 q 428 164 406 142 q 428 191 428 178 q 428 218 428 204 q 428 269 428 243 q 428 319 428 294 m 599 1006 q 522 881 569 919 q 433 843 475 843 q 369 857 396 843 q 317 884 342 871 q 265 897 293 897 q 224 885 249 897 q 179 840 200 874 l 101 886 q 171 990 125 950 q 264 1029 217 1029 q 332 1016 307 1029 q 378 990 357 1003 q 433 976 400 976 q 479 995 457 976 q 519 1046 501 1014 l 599 1006 z "},"æ":{"ha":1069,"x_min":40,"x_max":1042,"o":"m 232 -22 q 92 31 143 -22 q 40 163 40 83 q 74 276 40 229 q 165 353 108 324 q 291 399 222 383 q 429 418 360 415 l 429 493 q 419 558 429 529 q 389 603 410 588 q 333 618 368 619 q 278 608 306 617 q 233 581 251 600 q 248 553 244 569 q 251 525 251 536 q 228 467 251 497 q 157 439 206 438 q 94 468 117 440 q 71 533 71 496 q 108 626 71 585 q 209 692 144 668 q 354 717 274 717 q 475 691 425 717 q 543 600 525 665 q 632 690 582 664 q 763 717 682 717 q 882 683 824 717 q 978 576 940 650 q 1014 374 1015 501 l 621 365 q 635 231 621 290 q 685 136 649 171 q 789 101 722 101 q 883 124 832 101 q 981 206 933 147 l 1042 147 q 940 40 993 76 q 836 -10 888 3 q 738 -22 785 -22 q 605 13 660 -22 q 514 94 550 47 q 376 0 450 22 q 232 -22 301 -22 m 321 114 q 383 128 353 114 q 435 167 413 143 q 432 219 433 193 q 430 269 431 244 q 429 319 429 294 q 355 306 390 315 q 293 279 319 296 q 251 239 267 263 q 238 186 236 215 q 265 131 239 147 q 321 114 292 114 m 629 463 l 831 463 q 816 555 829 521 q 782 603 803 589 q 739 618 761 618 q 678 597 701 618 q 644 540 656 575 q 629 463 633 504 z "},"b":{"ha":796,"x_min":-6,"x_max":751,"o":"m 88 785 q 88 842 88 810 q 92 906 89 875 q 40 903 69 904 q -6 901 10 903 l -6 1007 q 103 1014 60 1007 q 173 1031 147 1021 q 208 1049 199 1040 l 283 1049 l 283 642 q 379 700 331 683 q 471 717 428 717 q 617 674 554 717 q 716 551 681 631 q 751 365 751 472 q 710 166 751 254 q 594 28 669 78 q 414 -22 519 -22 q 319 -6 376 -22 q 213 61 261 10 l 171 0 l 88 0 l 88 785 m 283 208 q 299 133 283 161 q 338 93 314 106 q 385 79 361 81 q 483 115 447 78 q 533 215 518 153 q 547 344 547 276 q 532 465 547 408 q 483 558 517 522 q 396 592 450 593 q 332 574 361 590 q 283 532 303 558 l 283 208 z "},"c":{"ha":719,"x_min":43,"x_max":701,"o":"m 385 -22 q 214 19 292 -22 q 90 140 136 61 q 43 332 43 219 q 69 481 43 411 q 144 603 96 550 q 258 686 192 656 q 404 717 324 717 q 552 690 493 717 q 641 619 611 663 q 671 526 671 575 q 647 455 671 486 q 578 422 622 424 q 504 452 525 421 q 483 513 483 483 q 488 542 483 525 q 500 574 492 560 q 471 604 490 594 q 431 617 451 614 q 399 619 411 621 q 289 553 332 615 q 246 372 246 490 q 263 242 246 303 q 321 143 281 182 q 429 101 361 104 q 543 129 488 100 q 638 208 599 158 l 701 146 q 597 40 651 76 q 490 -9 543 4 q 385 -22 436 -22 z "},"ć":{"ha":719,"x_min":43,"x_max":701,"o":"m 385 -22 q 214 19 292 -22 q 90 140 136 61 q 43 332 43 219 q 69 481 43 411 q 144 603 96 550 q 258 686 192 656 q 404 717 324 717 q 552 690 493 717 q 641 619 611 663 q 671 526 671 575 q 647 455 671 486 q 578 422 622 424 q 504 452 525 421 q 483 513 483 483 q 488 542 483 525 q 500 574 492 560 q 471 604 490 594 q 431 617 451 614 q 399 619 411 621 q 289 553 332 615 q 246 372 246 490 q 263 242 246 303 q 321 143 281 182 q 429 101 361 104 q 543 129 488 100 q 638 208 599 158 l 701 146 q 597 40 651 76 q 490 -9 543 4 q 385 -22 436 -22 m 346 785 l 282 842 l 396 1036 q 433 1073 411 1060 q 479 1087 454 1086 q 526 1069 504 1088 q 551 1024 549 1050 q 544 974 554 999 q 514 932 533 950 l 346 785 z "},"č":{"ha":719,"x_min":43,"x_max":701,"o":"m 385 -22 q 214 19 292 -22 q 90 140 136 61 q 43 332 43 219 q 69 481 43 411 q 144 603 96 550 q 258 686 192 656 q 404 717 324 717 q 552 690 493 717 q 641 619 611 663 q 671 526 671 575 q 647 455 671 486 q 578 422 622 424 q 504 452 525 421 q 483 513 483 483 q 488 542 483 525 q 500 574 492 560 q 471 604 490 594 q 431 617 451 614 q 399 619 411 621 q 289 553 332 615 q 246 372 246 490 q 263 242 246 303 q 321 143 281 182 q 429 101 361 104 q 543 129 488 100 q 638 208 599 158 l 701 146 q 597 40 651 76 q 490 -9 543 4 q 385 -22 436 -22 m 408 774 l 183 1008 l 243 1079 l 422 933 l 424 933 l 592 1079 l 650 1013 l 424 774 l 408 774 z "},"ç":{"ha":719,"x_min":43,"x_max":701,"o":"m 385 -22 q 214 19 292 -22 q 90 140 136 61 q 43 332 43 219 q 69 481 43 411 q 144 603 96 550 q 258 686 192 656 q 404 717 324 717 q 552 690 493 717 q 641 619 611 663 q 671 526 671 575 q 647 455 671 486 q 578 422 622 424 q 504 452 525 421 q 483 513 483 483 q 488 542 483 525 q 500 574 492 560 q 471 604 490 594 q 431 617 451 614 q 399 619 411 621 q 289 553 332 615 q 246 372 246 490 q 263 242 246 303 q 321 143 281 182 q 429 101 361 104 q 543 129 488 100 q 638 208 599 158 l 701 146 q 597 40 651 76 q 490 -9 543 4 q 385 -22 436 -22 m 343 -360 l 332 -287 q 376 -278 349 -285 q 432 -262 404 -272 q 479 -236 460 -251 q 499 -200 499 -221 q 481 -169 499 -176 q 440 -168 463 -162 q 404 -185 418 -174 l 353 -162 l 396 14 l 501 14 l 463 -96 q 509 -80 479 -86 q 557 -74 539 -74 q 630 -98 601 -75 q 658 -171 658 -121 q 625 -253 658 -219 q 541 -308 592 -286 q 437 -342 490 -329 q 343 -360 383 -354 z "},"ĉ":{"ha":719,"x_min":43,"x_max":701,"o":"m 385 -22 q 214 19 292 -22 q 90 140 136 61 q 43 332 43 219 q 69 481 43 411 q 144 603 96 550 q 258 686 192 656 q 404 717 324 717 q 552 690 493 717 q 641 619 611 663 q 671 526 671 575 q 647 455 671 486 q 578 422 622 424 q 504 452 525 421 q 483 513 483 483 q 488 542 483 525 q 500 574 492 560 q 471 604 490 594 q 431 617 451 614 q 399 619 411 621 q 289 553 332 615 q 246 372 246 490 q 263 242 246 303 q 321 143 281 182 q 429 101 361 104 q 543 129 488 100 q 638 208 599 158 l 701 146 q 597 40 651 76 q 490 -9 543 4 q 385 -22 436 -22 m 593 781 l 417 926 l 415 926 l 238 790 l 179 857 l 417 1088 l 431 1088 l 653 851 l 593 781 z "},"ċ":{"ha":719,"x_min":43,"x_max":701,"o":"m 385 -22 q 214 19 292 -22 q 90 140 136 61 q 43 332 43 219 q 69 481 43 411 q 144 603 96 550 q 258 686 192 656 q 404 717 324 717 q 552 690 493 717 q 641 619 611 663 q 671 526 671 575 q 647 455 671 486 q 578 422 622 424 q 504 452 525 421 q 483 513 483 483 q 488 542 483 525 q 500 574 492 560 q 471 604 490 594 q 431 617 451 614 q 399 619 411 621 q 289 553 332 615 q 246 372 246 490 q 263 242 246 303 q 321 143 281 182 q 429 101 361 104 q 543 129 488 100 q 638 208 599 158 l 701 146 q 597 40 651 76 q 490 -9 543 4 q 385 -22 436 -22 m 419 818 q 342 851 372 818 q 311 932 311 885 q 343 1013 311 979 q 418 1046 375 1046 q 492 1013 463 1046 q 522 932 522 979 q 494 851 522 885 q 419 818 467 818 z "},"d":{"ha":828,"x_min":44,"x_max":793,"o":"m 325 -22 q 178 21 242 -22 q 80 143 115 64 q 44 329 44 222 q 88 529 44 442 q 208 667 131 617 q 389 717 286 717 q 456 709 426 717 q 513 692 486 701 l 513 783 q 514 839 513 803 q 518 906 515 875 q 465 903 496 904 q 419 901 435 901 l 419 1007 q 528 1014 485 1007 q 598 1031 572 1021 q 633 1049 624 1040 l 708 1049 l 708 224 q 707 169 708 204 q 703 101 706 133 q 753 105 726 104 q 793 106 779 106 l 793 0 l 529 0 q 526 32 528 15 q 521 64 524 49 q 426 -3 475 17 q 325 -22 378 -22 m 397 104 q 464 123 433 104 q 513 171 494 142 q 513 213 513 192 q 513 254 513 233 l 513 588 q 471 606 499 599 q 414 614 443 614 q 314 574 350 613 q 263 475 278 535 q 249 350 249 415 q 263 235 249 292 q 310 141 278 178 q 397 104 343 104 z "},"ð":{"ha":753,"x_min":44,"x_max":689,"o":"m 364 -22 q 203 17 274 -22 q 90 131 132 56 q 46 313 49 206 q 63 447 44 381 q 122 569 82 514 q 222 656 161 624 q 363 689 282 689 q 421 681 386 689 q 485 649 456 674 l 486 649 q 450 726 476 686 q 390 800 424 765 q 328 854 357 835 l 247 756 l 164 831 l 232 910 q 173 936 206 925 q 104 954 140 947 l 124 1056 q 232 1035 185 1050 q 311 1004 279 1019 l 382 1097 l 463 1025 l 404 956 q 553 811 489 899 q 653 613 617 724 q 689 375 689 503 q 653 176 689 267 q 545 32 617 86 q 364 -22 474 -22 m 374 96 q 442 122 411 96 q 492 201 474 149 q 510 332 510 254 q 503 416 510 372 q 480 497 496 460 q 438 556 464 533 q 374 579 411 579 q 300 546 331 579 q 253 459 269 513 q 238 343 238 406 q 278 160 238 225 q 374 96 318 96 z "},"ď":{"ha":960,"x_min":44,"x_max":975,"o":"m 847 754 l 793 794 q 839 907 828 857 q 847 1001 850 957 q 831 1090 843 1046 l 954 1067 q 972 1021 968 1040 q 972 974 975 1001 q 931 858 967 915 q 847 754 894 800 m 325 -22 q 178 21 242 -22 q 80 143 115 64 q 44 329 44 222 q 88 529 44 442 q 208 667 131 617 q 389 717 286 717 q 456 709 426 717 q 513 692 486 701 l 513 783 q 514 839 513 803 q 518 906 515 875 q 465 903 496 904 q 419 901 435 901 l 419 1007 q 528 1014 485 1007 q 598 1031 572 1021 q 633 1049 624 1040 l 708 1049 l 708 224 q 707 169 708 204 q 703 101 706 133 q 753 105 726 104 q 793 106 779 106 l 793 0 l 529 0 q 526 32 528 15 q 521 64 524 49 q 426 -3 475 17 q 325 -22 378 -22 m 397 104 q 464 123 433 104 q 513 171 494 142 q 513 213 513 192 q 513 254 513 233 l 513 588 q 471 606 499 599 q 414 614 443 614 q 314 574 350 613 q 263 475 278 535 q 249 350 249 415 q 263 235 249 292 q 310 141 278 178 q 397 104 343 104 z "},"đ":{"ha":828,"x_min":44,"x_max":814,"o":"m 325 -22 q 178 19 242 -22 q 80 132 115 61 q 44 289 44 203 q 88 474 44 393 q 208 602 131 556 q 389 649 286 649 q 456 641 426 649 q 513 624 486 633 l 513 783 q 514 839 513 803 q 518 906 515 875 q 465 903 496 904 q 419 901 435 901 l 419 1007 q 528 1014 485 1007 q 598 1031 572 1021 q 633 1049 624 1040 l 708 1049 l 708 224 q 707 169 708 204 q 703 101 706 133 q 753 105 726 104 q 793 106 779 106 l 793 0 l 529 0 q 526 32 528 15 q 521 64 524 49 q 426 -3 475 17 q 325 -22 378 -22 m 397 104 q 464 123 433 104 q 513 171 494 142 q 513 226 513 199 q 513 282 513 254 l 513 521 q 471 538 499 531 q 414 546 443 546 q 320 513 357 546 q 266 426 283 481 q 249 310 249 372 q 263 203 249 250 q 310 131 278 157 q 397 104 343 104 m 285 726 l 285 835 l 814 835 l 814 732 l 285 726 z "},"e":{"ha":747,"x_min":43,"x_max":710,"o":"m 386 -22 q 207 23 285 -22 q 86 151 129 68 q 43 346 43 233 q 86 528 43 443 q 208 665 129 613 q 390 717 286 717 q 504 701 449 717 q 605 646 560 685 q 677 540 650 607 q 703 374 704 474 l 247 365 q 266 231 247 290 q 328 136 285 171 q 443 101 371 101 q 506 111 471 101 q 578 144 542 121 q 647 206 615 167 l 710 147 q 603 40 660 76 q 490 -10 546 3 q 386 -22 433 -22 m 256 463 l 511 463 q 495 555 510 521 q 456 604 481 589 q 397 619 431 619 q 301 576 336 619 q 256 463 267 532 z "},"é":{"ha":747,"x_min":43,"x_max":710,"o":"m 386 -22 q 207 23 285 -22 q 86 151 129 68 q 43 346 43 233 q 86 528 43 443 q 208 665 129 613 q 390 717 286 717 q 504 701 449 717 q 605 646 560 685 q 677 540 650 607 q 703 374 704 474 l 247 365 q 266 231 247 290 q 328 136 285 171 q 443 101 371 101 q 506 111 471 101 q 578 144 542 121 q 647 206 615 167 l 710 147 q 603 40 660 76 q 490 -10 546 3 q 386 -22 433 -22 m 256 463 l 511 463 q 495 555 510 521 q 456 604 481 589 q 397 619 431 619 q 301 576 336 619 q 256 463 267 532 m 324 785 l 260 842 l 374 1036 q 410 1073 389 1060 q 457 1087 432 1086 q 504 1069 482 1088 q 529 1024 526 1050 q 522 974 532 999 q 492 932 511 950 l 324 785 z "},"ĕ":{"ha":747,"x_min":43,"x_max":710,"o":"m 386 -22 q 207 23 285 -22 q 86 151 129 68 q 43 346 43 233 q 86 528 43 443 q 208 665 129 613 q 390 717 286 717 q 504 701 449 717 q 605 646 560 685 q 677 540 650 607 q 703 374 704 474 l 247 365 q 266 231 247 290 q 328 136 285 171 q 443 101 371 101 q 506 111 471 101 q 578 144 542 121 q 647 206 615 167 l 710 147 q 603 40 660 76 q 490 -10 546 3 q 386 -22 433 -22 m 256 463 l 511 463 q 495 555 510 521 q 456 604 481 589 q 397 619 431 619 q 301 576 336 619 q 256 463 267 532 m 392 833 q 311 851 353 833 q 233 908 269 868 q 175 1014 197 947 l 265 1060 q 318 991 288 1021 q 397 961 349 961 q 475 992 446 961 q 524 1061 504 1022 l 614 1021 q 520 876 578 919 q 392 833 463 833 z "},"ě":{"ha":747,"x_min":43,"x_max":710,"o":"m 386 -22 q 207 23 285 -22 q 86 151 129 68 q 43 346 43 233 q 86 528 43 443 q 208 665 129 613 q 390 717 286 717 q 504 701 449 717 q 605 646 560 685 q 677 540 650 607 q 703 374 704 474 l 247 365 q 266 231 247 290 q 328 136 285 171 q 443 101 371 101 q 506 111 471 101 q 578 144 542 121 q 647 206 615 167 l 710 147 q 603 40 660 76 q 490 -10 546 3 q 386 -22 433 -22 m 256 463 l 511 463 q 495 555 510 521 q 456 604 481 589 q 397 619 431 619 q 301 576 336 619 q 256 463 267 532 m 386 774 l 161 1008 l 221 1079 l 400 933 l 401 933 l 569 1079 l 628 1013 l 401 774 l 386 774 z "},"ê":{"ha":747,"x_min":43,"x_max":710,"o":"m 386 -22 q 207 23 285 -22 q 86 151 129 68 q 43 346 43 233 q 86 528 43 443 q 208 665 129 613 q 390 717 286 717 q 504 701 449 717 q 605 646 560 685 q 677 540 650 607 q 703 374 704 474 l 247 365 q 266 231 247 290 q 328 136 285 171 q 443 101 371 101 q 506 111 471 101 q 578 144 542 121 q 647 206 615 167 l 710 147 q 603 40 660 76 q 490 -10 546 3 q 386 -22 433 -22 m 256 463 l 511 463 q 495 555 510 521 q 456 604 481 589 q 397 619 431 619 q 301 576 336 619 q 256 463 267 532 m 571 781 l 394 926 l 393 926 l 215 790 l 157 857 l 394 1088 l 408 1088 l 631 851 l 571 781 z "},"ế":{"ha":747,"x_min":43,"x_max":846,"o":"m 386 -22 q 207 23 285 -22 q 86 151 129 68 q 43 346 43 233 q 86 528 43 443 q 208 665 129 613 q 390 717 286 717 q 504 701 449 717 q 605 646 560 685 q 677 540 650 607 q 703 374 704 474 l 247 365 q 266 231 247 290 q 328 136 285 171 q 443 101 371 101 q 506 111 471 101 q 578 144 542 121 q 647 206 615 167 l 710 147 q 603 40 660 76 q 490 -10 546 3 q 386 -22 433 -22 m 256 463 l 511 463 q 495 555 510 521 q 456 604 481 589 q 397 619 431 619 q 301 576 336 619 q 256 463 267 532 m 556 781 l 396 881 l 232 782 l 200 833 l 390 1006 l 411 1006 l 592 833 l 556 781 m 638 903 l 574 960 l 688 1154 q 724 1192 701 1178 q 771 1206 746 1206 q 818 1188 796 1206 q 843 1142 840 1168 q 835 1091 846 1115 q 806 1050 825 1067 l 638 903 z "},"ệ":{"ha":747,"x_min":43,"x_max":710,"o":"m 386 -22 q 207 23 285 -22 q 86 151 129 68 q 43 346 43 233 q 86 528 43 443 q 208 665 129 613 q 390 717 286 717 q 504 701 449 717 q 605 646 560 685 q 677 540 650 607 q 703 374 704 474 l 247 365 q 266 231 247 290 q 328 136 285 171 q 443 101 371 101 q 506 111 471 101 q 578 144 542 121 q 647 206 615 167 l 710 147 q 603 40 660 76 q 490 -10 546 3 q 386 -22 433 -22 m 256 463 l 511 463 q 495 555 510 521 q 456 604 481 589 q 397 619 431 619 q 301 576 336 619 q 256 463 267 532 m 396 -265 q 333 -239 357 -265 q 310 -176 310 -212 q 335 -112 310 -139 q 394 -86 360 -86 q 453 -112 431 -86 q 476 -176 476 -139 q 454 -239 476 -212 q 396 -265 432 -265 m 571 781 l 394 926 l 393 926 l 215 790 l 157 857 l 394 1088 l 408 1088 l 631 851 l 571 781 z "},"ề":{"ha":747,"x_min":43,"x_max":710,"o":"m 386 -22 q 207 23 285 -22 q 86 151 129 68 q 43 346 43 233 q 86 528 43 443 q 208 665 129 613 q 390 717 286 717 q 504 701 449 717 q 605 646 560 685 q 677 540 650 607 q 703 374 704 474 l 247 365 q 266 231 247 290 q 328 136 285 171 q 443 101 371 101 q 506 111 471 101 q 578 144 542 121 q 647 206 615 167 l 710 147 q 603 40 660 76 q 490 -10 546 3 q 386 -22 433 -22 m 256 463 l 511 463 q 495 555 510 521 q 456 604 481 589 q 397 619 431 619 q 301 576 336 619 q 256 463 267 532 m 556 781 l 396 881 l 232 782 l 200 833 l 390 1006 l 411 1006 l 592 833 l 556 781 m 607 963 l 439 1110 q 409 1151 419 1126 q 402 1201 399 1175 q 428 1247 406 1228 q 474 1265 450 1265 q 521 1251 499 1265 q 557 1214 543 1238 l 671 1019 l 607 963 z "},"ể":{"ha":747,"x_min":43,"x_max":733,"o":"m 386 -22 q 207 23 285 -22 q 86 151 129 68 q 43 346 43 233 q 86 528 43 443 q 208 665 129 613 q 390 717 286 717 q 504 701 449 717 q 605 646 560 685 q 677 540 650 607 q 703 374 704 474 l 247 365 q 266 231 247 290 q 328 136 285 171 q 443 101 371 101 q 506 111 471 101 q 578 144 542 121 q 647 206 615 167 l 710 147 q 603 40 660 76 q 490 -10 546 3 q 386 -22 433 -22 m 256 463 l 511 463 q 495 555 510 521 q 456 604 481 589 q 397 619 431 619 q 301 576 336 619 q 256 463 267 532 m 556 781 l 396 881 l 232 782 l 200 833 l 390 1006 l 411 1006 l 592 833 l 556 781 m 551 975 q 570 1020 551 1004 q 606 1054 589 1036 q 622 1078 615 1065 q 629 1108 629 1090 q 609 1152 629 1138 q 560 1167 589 1167 q 503 1153 521 1167 q 483 1129 486 1139 q 515 1118 504 1129 q 525 1092 525 1107 q 513 1063 525 1076 q 476 1049 500 1049 q 424 1069 444 1049 q 404 1119 404 1090 q 422 1181 404 1151 q 476 1231 440 1211 q 560 1250 511 1250 q 688 1215 642 1250 q 733 1121 733 1181 q 714 1065 733 1083 q 675 1029 694 1046 q 648 1001 658 1015 q 638 975 638 988 l 551 975 z "},"ễ":{"ha":747,"x_min":43,"x_max":710,"o":"m 386 -22 q 207 23 285 -22 q 86 151 129 68 q 43 346 43 233 q 86 528 43 443 q 208 665 129 613 q 390 717 286 717 q 504 701 449 717 q 605 646 560 685 q 677 540 650 607 q 703 374 704 474 l 247 365 q 266 231 247 290 q 328 136 285 171 q 443 101 371 101 q 506 111 471 101 q 578 144 542 121 q 647 206 615 167 l 710 147 q 603 40 660 76 q 490 -10 546 3 q 386 -22 433 -22 m 256 463 l 511 463 q 495 555 510 521 q 456 604 481 589 q 397 619 431 619 q 301 576 336 619 q 256 463 267 532 m 556 781 l 396 881 l 232 782 l 200 833 l 390 1006 l 411 1006 l 592 833 l 556 781 m 678 1189 q 601 1065 649 1103 q 513 1026 554 1026 q 448 1040 475 1026 q 397 1067 421 1054 q 344 1081 372 1081 q 303 1069 328 1081 q 258 1024 279 1057 l 181 1069 q 250 1173 204 1133 q 343 1213 296 1213 q 411 1199 386 1213 q 458 1173 436 1186 q 513 1160 479 1160 q 558 1178 536 1160 q 599 1229 581 1197 l 678 1189 z "},"ë":{"ha":747,"x_min":43,"x_max":710,"o":"m 386 -22 q 207 23 285 -22 q 86 151 129 68 q 43 346 43 233 q 86 528 43 443 q 208 665 129 613 q 390 717 286 717 q 504 701 449 717 q 605 646 560 685 q 677 540 650 607 q 703 374 704 474 l 247 365 q 266 231 247 290 q 328 136 285 171 q 443 101 371 101 q 506 111 471 101 q 578 144 542 121 q 647 206 615 167 l 710 147 q 603 40 660 76 q 490 -10 546 3 q 386 -22 433 -22 m 256 463 l 511 463 q 495 555 510 521 q 456 604 481 589 q 397 619 431 619 q 301 576 336 619 q 256 463 267 532 m 514 833 q 449 864 476 833 q 422 938 422 894 q 450 1012 422 981 q 515 1043 478 1043 q 581 1012 556 1043 q 607 938 607 981 q 579 864 607 894 q 514 833 551 833 m 272 833 q 208 864 235 833 q 181 938 181 894 q 208 1012 181 981 q 274 1043 236 1043 q 340 1012 314 1043 q 365 938 365 981 q 338 864 365 894 q 272 833 310 833 z "}}}
